<svg id="originals" xmlns="http://www.w3.org/2000/svg" xmlns:xlink="http://www.w3.org/1999/xlink" viewBox="0 0 445.0394 39.685"><defs><style>.cls-1,.cls-2,.cls-3{fill:none;}.cls-2{stroke:#e6e7e8;}.cls-2,.cls-3{stroke-miterlimit:10;stroke-width:0.0283px;}.cls-3{stroke:#939598;}.cls-4{fill:#fff;}.cls-5{fill:url(#_2x4);}.cls-6{fill:#231f20;}</style><pattern id="_2x4" data-name="2x4" width="5.6693" height="5.6693" patternUnits="userSpaceOnUse" viewBox="0 0 5.669 5.669"><rect class="cls-1" width="5.6693" height="5.6693"/><rect class="cls-2" x="4.252" y="5.6696" width="1.4173" height="1.4173"/><rect class="cls-2" x="5.6693" y="5.6696" width="1.4173" height="1.4173"/><rect class="cls-3" x="4.252" y="5.6696" width="2.8346" height="5.6693"/><rect class="cls-2" x="1.4174" y="5.6696" width="1.4173" height="1.4173"/><rect class="cls-2" x="2.8347" y="5.6696" width="1.4173" height="1.4173"/><rect class="cls-3" x="1.4174" y="5.6696" width="2.8346" height="5.6693"/><rect class="cls-2" x="-1.4173" y="5.6696" width="1.4173" height="1.4173"/><rect class="cls-2" y="5.6696" width="1.4173" height="1.4173"/><rect class="cls-3" x="-1.4173" y="5.6696" width="2.8346" height="5.6693"/><rect class="cls-2" x="4.252" y="2.8349" width="1.4173" height="1.4173"/><rect class="cls-2" x="5.6693" y="2.8349" width="1.4173" height="1.4173"/><rect class="cls-2" x="4.252" y="4.2523" width="1.4173" height="1.4173"/><rect class="cls-2" x="5.6693" y="4.2523" width="1.4173" height="1.4173"/><rect class="cls-2" x="4.252" y="0.0003" width="1.4173" height="1.4173"/><rect class="cls-2" x="5.6693" y="0.0003" width="1.4173" height="1.4173"/><rect class="cls-2" x="4.252" y="1.4176" width="1.4173" height="1.4173"/><rect class="cls-2" x="5.6693" y="1.4176" width="1.4173" height="1.4173"/><rect class="cls-3" x="4.252" y="0.0003" width="2.8346" height="5.6693"/><rect class="cls-2" x="1.4174" y="2.8349" width="1.4173" height="1.4173"/><rect class="cls-2" x="2.8347" y="2.8349" width="1.4173" height="1.4173"/><rect class="cls-2" x="1.4174" y="4.2523" width="1.4173" height="1.4173"/><rect class="cls-2" x="2.8347" y="4.2523" width="1.4173" height="1.4173"/><rect class="cls-2" x="1.4174" y="0.0003" width="1.4173" height="1.4173"/><rect class="cls-2" x="2.8347" y="0.0003" width="1.4173" height="1.4173"/><rect class="cls-2" x="1.4174" y="1.4176" width="1.4173" height="1.4173"/><rect class="cls-2" x="2.8347" y="1.4176" width="1.4173" height="1.4173"/><rect class="cls-3" x="1.4174" y="0.0003" width="2.8346" height="5.6693"/><rect class="cls-2" x="-1.4173" y="2.8349" width="1.4173" height="1.4173"/><rect class="cls-2" y="2.8349" width="1.4173" height="1.4173"/><rect class="cls-2" x="-1.4173" y="4.2523" width="1.4173" height="1.4173"/><rect class="cls-2" y="4.2523" width="1.4173" height="1.4173"/><rect class="cls-2" x="-1.4173" y="0.0003" width="1.4173" height="1.4173"/><rect class="cls-2" y="0.0003" width="1.4173" height="1.4173"/><rect class="cls-2" x="-1.4173" y="1.4176" width="1.4173" height="1.4173"/><rect class="cls-2" y="1.4176" width="1.4173" height="1.4173"/><rect class="cls-3" x="-1.4173" y="0.0003" width="2.8346" height="5.6693"/><rect class="cls-2" x="4.252" y="-1.417" width="1.4173" height="1.4173"/><rect class="cls-2" x="5.6693" y="-1.417" width="1.4173" height="1.4173"/><rect class="cls-3" x="4.252" y="-5.669" width="2.8346" height="5.6693"/><rect class="cls-2" x="1.4174" y="-1.417" width="1.4173" height="1.4173"/><rect class="cls-2" x="2.8347" y="-1.417" width="1.4173" height="1.4173"/><rect class="cls-3" x="1.4174" y="-5.669" width="2.8346" height="5.6693"/><rect class="cls-2" x="-1.4173" y="-1.417" width="1.4173" height="1.4173"/><rect class="cls-2" y="-1.417" width="1.4173" height="1.4173"/><rect class="cls-3" x="-1.4173" y="-5.669" width="2.8346" height="5.6693"/></pattern></defs><title>cover</title><rect class="cls-4" width="445.0394" height="39.685"/><rect class="cls-5" width="445.0394" height="39.685"/><rect class="cls-6" x="52.4409" y="5.6693" width="2.8346" height="5.6693"/><rect class="cls-6" x="55.2756" y="5.6693" width="2.8346" height="5.6693"/><rect class="cls-6" x="58.1102" y="5.6693" width="2.8346" height="5.6693"/><rect class="cls-6" x="60.9449" y="5.6693" width="2.8346" height="5.6693"/><rect class="cls-6" x="66.6142" y="5.6693" width="2.8346" height="5.6693"/><rect class="cls-6" x="72.2835" y="5.6693" width="2.8346" height="5.6693"/><rect class="cls-6" x="77.9528" y="5.6693" width="2.8346" height="5.6693"/><rect class="cls-6" x="80.7874" y="5.6693" width="2.8346" height="5.6693"/><rect class="cls-6" x="83.622" y="5.6693" width="2.8346" height="5.6693"/><rect class="cls-6" x="86.4567" y="5.6693" width="2.8346" height="5.6693"/><rect class="cls-6" x="52.4409" y="11.3386" width="2.8346" height="5.6693"/><rect class="cls-6" x="55.2756" y="11.3386" width="2.8346" height="5.6693"/><rect class="cls-6" x="58.1102" y="11.3386" width="2.8346" height="5.6693"/><rect class="cls-6" x="60.9449" y="11.3386" width="2.8346" height="5.6693"/><rect class="cls-6" x="63.7795" y="11.3386" width="2.8346" height="5.6693"/><rect class="cls-6" x="66.6142" y="11.3386" width="2.8346" height="5.6693"/><rect class="cls-6" x="72.2835" y="11.3386" width="2.8346" height="5.6693"/><rect class="cls-6" x="77.9528" y="11.3386" width="2.8346" height="5.6693"/><rect class="cls-6" x="86.4567" y="11.3386" width="2.8346" height="5.6693"/><rect class="cls-6" x="89.2913" y="11.3386" width="2.8346" height="5.6693"/><rect class="cls-6" x="92.126" y="11.3386" width="2.8346" height="5.6693"/><rect class="cls-6" x="52.4409" y="17.0079" width="2.8346" height="5.6693"/><rect class="cls-6" x="55.2756" y="17.0079" width="2.8346" height="5.6693"/><rect class="cls-6" x="58.1102" y="17.0079" width="2.8346" height="5.6693"/><rect class="cls-6" x="63.7795" y="17.0079" width="2.8346" height="5.6693"/><rect class="cls-6" x="69.4488" y="17.0079" width="2.8346" height="5.6693"/><rect class="cls-6" x="77.9528" y="17.0079" width="2.8346" height="5.6693"/><rect class="cls-6" x="80.7874" y="17.0079" width="2.8346" height="5.6693"/><rect class="cls-6" x="83.622" y="17.0079" width="2.8346" height="5.6693"/><rect class="cls-6" x="86.4567" y="17.0079" width="2.8346" height="5.6693"/><rect class="cls-6" x="89.2913" y="17.0079" width="2.8346" height="5.6693"/><rect class="cls-6" x="92.126" y="17.0079" width="2.8346" height="5.6693"/><rect class="cls-6" x="52.4409" y="22.6772" width="2.8346" height="5.6693"/><rect class="cls-6" x="58.1102" y="22.6772" width="2.8346" height="5.6693"/><rect class="cls-6" x="63.7795" y="22.6772" width="2.8346" height="5.6693"/><rect class="cls-6" x="66.6142" y="22.6772" width="2.8346" height="5.6693"/><rect class="cls-6" x="69.4488" y="22.6772" width="2.8346" height="5.6693"/><rect class="cls-6" x="72.2835" y="22.6772" width="2.8346" height="5.6693"/><rect class="cls-6" x="80.7874" y="22.6772" width="2.8346" height="5.6693"/><rect class="cls-6" x="83.622" y="22.6772" width="2.8346" height="5.6693"/><rect class="cls-6" x="86.4567" y="22.6772" width="2.8346" height="5.6693"/><rect class="cls-6" x="89.2913" y="22.6772" width="2.8346" height="5.6693"/><rect class="cls-6" x="52.4409" y="28.3465" width="2.8346" height="5.6693"/><rect class="cls-6" x="55.2756" y="28.3465" width="2.8346" height="5.6693"/><rect class="cls-6" x="58.1102" y="28.3465" width="2.8346" height="5.6693"/><rect class="cls-6" x="63.7795" y="28.3465" width="2.8346" height="5.6693"/><rect class="cls-6" x="69.4488" y="28.3465" width="2.8346" height="5.6693"/><rect class="cls-6" x="72.2835" y="28.3465" width="2.8346" height="5.6693"/><rect class="cls-6" x="75.1181" y="28.3465" width="2.8346" height="5.6693"/><rect class="cls-6" x="86.4567" y="28.3465" width="2.8346" height="5.6693"/><rect class="cls-6" x="89.2913" y="28.3465" width="2.8346" height="5.6693"/><rect class="cls-6" x="100.6299" y="5.6693" width="2.8346" height="5.6693"/><rect class="cls-6" x="106.2992" y="5.6693" width="2.8346" height="5.6693"/><rect class="cls-6" x="111.9685" y="5.6693" width="2.8346" height="5.6693"/><rect class="cls-6" x="114.8031" y="5.6693" width="2.8346" height="5.6693"/><rect class="cls-6" x="117.6378" y="5.6693" width="2.8346" height="5.6693"/><rect class="cls-6" x="123.3071" y="5.6693" width="2.8346" height="5.6693"/><rect class="cls-6" x="126.1417" y="5.6693" width="2.8346" height="5.6693"/><rect class="cls-6" x="128.9764" y="5.6693" width="2.8346" height="5.6693"/><rect class="cls-6" x="100.6299" y="11.3386" width="2.8346" height="5.6693"/><rect class="cls-6" x="103.4646" y="11.3386" width="2.8346" height="5.6693"/><rect class="cls-6" x="106.2992" y="11.3386" width="2.8346" height="5.6693"/><rect class="cls-6" x="120.4724" y="11.3386" width="2.8346" height="5.6693"/><rect class="cls-6" x="134.6457" y="11.3386" width="2.8346" height="5.6693"/><rect class="cls-6" x="137.4803" y="11.3386" width="2.8346" height="5.6693"/><rect class="cls-6" x="143.1496" y="11.3386" width="2.8346" height="5.6693"/><rect class="cls-6" x="100.6299" y="17.0079" width="2.8346" height="5.6693"/><rect class="cls-6" x="111.9685" y="17.0079" width="2.8346" height="5.6693"/><rect class="cls-6" x="114.8031" y="17.0079" width="2.8346" height="5.6693"/><rect class="cls-6" x="126.1417" y="17.0079" width="2.8346" height="5.6693"/><rect class="cls-6" x="137.4803" y="17.0079" width="2.8346" height="5.6693"/><rect class="cls-6" x="140.315" y="17.0079" width="2.8346" height="5.6693"/><rect class="cls-6" x="143.1496" y="17.0079" width="2.8346" height="5.6693"/><rect class="cls-6" x="100.6299" y="22.6772" width="2.8346" height="5.6693"/><rect class="cls-6" x="106.2992" y="22.6772" width="2.8346" height="5.6693"/><rect class="cls-6" x="109.1339" y="22.6772" width="2.8346" height="5.6693"/><rect class="cls-6" x="111.9685" y="22.6772" width="2.8346" height="5.6693"/><rect class="cls-6" x="114.8031" y="22.6772" width="2.8346" height="5.6693"/><rect class="cls-6" x="123.3071" y="22.6772" width="2.8346" height="5.6693"/><rect class="cls-6" x="126.1417" y="22.6772" width="2.8346" height="5.6693"/><rect class="cls-6" x="128.9764" y="22.6772" width="2.8346" height="5.6693"/><rect class="cls-6" x="131.811" y="22.6772" width="2.8346" height="5.6693"/><rect class="cls-6" x="137.4803" y="22.6772" width="2.8346" height="5.6693"/><rect class="cls-6" x="100.6299" y="28.3465" width="2.8346" height="5.6693"/><rect class="cls-6" x="106.2992" y="28.3465" width="2.8346" height="5.6693"/><rect class="cls-6" x="109.1339" y="28.3465" width="2.8346" height="5.6693"/><rect class="cls-6" x="111.9685" y="28.3465" width="2.8346" height="5.6693"/><rect class="cls-6" x="114.8031" y="28.3465" width="2.8346" height="5.6693"/><rect class="cls-6" x="117.6378" y="28.3465" width="2.8346" height="5.6693"/><rect class="cls-6" x="120.4724" y="28.3465" width="2.8346" height="5.6693"/><rect class="cls-6" x="126.1417" y="28.3465" width="2.8346" height="5.6693"/><rect class="cls-6" x="131.811" y="28.3465" width="2.8346" height="5.6693"/><rect class="cls-6" x="134.6457" y="28.3465" width="2.8346" height="5.6693"/><rect class="cls-6" x="148.8189" y="5.6693" width="2.8346" height="5.6693"/><rect class="cls-6" x="151.6535" y="5.6693" width="2.8346" height="5.6693"/><rect class="cls-6" x="154.4882" y="5.6693" width="2.8346" height="5.6693"/><rect class="cls-6" x="165.8268" y="5.6693" width="2.8346" height="5.6693"/><rect class="cls-6" x="168.6614" y="5.6693" width="2.8346" height="5.6693"/><rect class="cls-6" x="171.4961" y="5.6693" width="2.8346" height="5.6693"/><rect class="cls-6" x="177.1654" y="5.6693" width="2.8346" height="5.6693"/><rect class="cls-6" x="182.8346" y="5.6693" width="2.8346" height="5.6693"/><rect class="cls-6" x="148.8189" y="11.3386" width="2.8346" height="5.6693"/><rect class="cls-6" x="151.6535" y="11.3386" width="2.8346" height="5.6693"/><rect class="cls-6" x="154.4882" y="11.3386" width="2.8346" height="5.6693"/><rect class="cls-6" x="168.6614" y="11.3386" width="2.8346" height="5.6693"/><rect class="cls-6" x="180" y="11.3386" width="2.8346" height="5.6693"/><rect class="cls-6" x="182.8346" y="11.3386" width="2.8346" height="5.6693"/><rect class="cls-6" x="191.3386" y="11.3386" width="2.8346" height="5.6693"/><rect class="cls-6" x="148.8189" y="17.0079" width="2.8346" height="5.6693"/><rect class="cls-6" x="154.4882" y="17.0079" width="2.8346" height="5.6693"/><rect class="cls-6" x="157.3228" y="17.0079" width="2.8346" height="5.6693"/><rect class="cls-6" x="160.1575" y="17.0079" width="2.8346" height="5.6693"/><rect class="cls-6" x="162.9921" y="17.0079" width="2.8346" height="5.6693"/><rect class="cls-6" x="165.8268" y="17.0079" width="2.8346" height="5.6693"/><rect class="cls-6" x="174.3307" y="17.0079" width="2.8346" height="5.6693"/><rect class="cls-6" x="177.1654" y="17.0079" width="2.8346" height="5.6693"/><rect class="cls-6" x="182.8346" y="17.0079" width="2.8346" height="5.6693"/><rect class="cls-6" x="148.8189" y="22.6772" width="2.8346" height="5.6693"/><rect class="cls-6" x="151.6535" y="22.6772" width="2.8346" height="5.6693"/><rect class="cls-6" x="154.4882" y="22.6772" width="2.8346" height="5.6693"/><rect class="cls-6" x="157.3228" y="22.6772" width="2.8346" height="5.6693"/><rect class="cls-6" x="162.9921" y="22.6772" width="2.8346" height="5.6693"/><rect class="cls-6" x="168.6614" y="22.6772" width="2.8346" height="5.6693"/><rect class="cls-6" x="174.3307" y="22.6772" width="2.8346" height="5.6693"/><rect class="cls-6" x="177.1654" y="22.6772" width="2.8346" height="5.6693"/><rect class="cls-6" x="180" y="22.6772" width="2.8346" height="5.6693"/><rect class="cls-6" x="182.8346" y="22.6772" width="2.8346" height="5.6693"/><rect class="cls-6" x="148.8189" y="28.3465" width="2.8346" height="5.6693"/><rect class="cls-6" x="151.6535" y="28.3465" width="2.8346" height="5.6693"/><rect class="cls-6" x="154.4882" y="28.3465" width="2.8346" height="5.6693"/><rect class="cls-6" x="160.1575" y="28.3465" width="2.8346" height="5.6693"/><rect class="cls-6" x="162.9921" y="28.3465" width="2.8346" height="5.6693"/><rect class="cls-6" x="171.4961" y="28.3465" width="2.8346" height="5.6693"/><rect class="cls-6" x="174.3307" y="28.3465" width="2.8346" height="5.6693"/><rect class="cls-6" x="177.1654" y="28.3465" width="2.8346" height="5.6693"/><rect class="cls-6" x="188.5039" y="28.3465" width="2.8346" height="5.6693"/><rect class="cls-6" x="197.0079" y="5.6693" width="2.8346" height="5.6693"/><rect class="cls-6" x="199.8425" y="5.6693" width="2.8346" height="5.6693"/><rect class="cls-6" x="202.6772" y="5.6693" width="2.8346" height="5.6693"/><rect class="cls-6" x="208.3465" y="5.6693" width="2.8346" height="5.6693"/><rect class="cls-6" x="214.0157" y="5.6693" width="2.8346" height="5.6693"/><rect class="cls-6" x="219.685" y="5.6693" width="2.8346" height="5.6693"/><rect class="cls-6" x="222.5197" y="5.6693" width="2.8346" height="5.6693"/><rect class="cls-6" x="225.3543" y="5.6693" width="2.8346" height="5.6693"/><rect class="cls-6" x="197.0079" y="11.3386" width="2.8346" height="5.6693"/><rect class="cls-6" x="199.8425" y="11.3386" width="2.8346" height="5.6693"/><rect class="cls-6" x="202.6772" y="11.3386" width="2.8346" height="5.6693"/><rect class="cls-6" x="214.0157" y="11.3386" width="2.8346" height="5.6693"/><rect class="cls-6" x="228.189" y="11.3386" width="2.8346" height="5.6693"/><rect class="cls-6" x="231.0236" y="11.3386" width="2.8346" height="5.6693"/><rect class="cls-6" x="239.5276" y="11.3386" width="2.8346" height="5.6693"/><rect class="cls-6" x="197.0079" y="17.0079" width="2.8346" height="5.6693"/><rect class="cls-6" x="199.8425" y="17.0079" width="2.8346" height="5.6693"/><rect class="cls-6" x="205.5118" y="17.0079" width="2.8346" height="5.6693"/><rect class="cls-6" x="208.3465" y="17.0079" width="2.8346" height="5.6693"/><rect class="cls-6" x="211.1811" y="17.0079" width="2.8346" height="5.6693"/><rect class="cls-6" x="214.0157" y="17.0079" width="2.8346" height="5.6693"/><rect class="cls-6" x="216.8504" y="17.0079" width="2.8346" height="5.6693"/><rect class="cls-6" x="225.3543" y="17.0079" width="2.8346" height="5.6693"/><rect class="cls-6" x="236.6929" y="17.0079" width="2.8346" height="5.6693"/><rect class="cls-6" x="197.0079" y="22.6772" width="2.8346" height="5.6693"/><rect class="cls-6" x="199.8425" y="22.6772" width="2.8346" height="5.6693"/><rect class="cls-6" x="211.1811" y="22.6772" width="2.8346" height="5.6693"/><rect class="cls-6" x="225.3543" y="22.6772" width="2.8346" height="5.6693"/><rect class="cls-6" x="228.189" y="22.6772" width="2.8346" height="5.6693"/><rect class="cls-6" x="233.8583" y="22.6772" width="2.8346" height="5.6693"/><rect class="cls-6" x="236.6929" y="22.6772" width="2.8346" height="5.6693"/><rect class="cls-6" x="239.5276" y="22.6772" width="2.8346" height="5.6693"/><rect class="cls-6" x="197.0079" y="28.3465" width="2.8346" height="5.6693"/><rect class="cls-6" x="199.8425" y="28.3465" width="2.8346" height="5.6693"/><rect class="cls-6" x="205.5118" y="28.3465" width="2.8346" height="5.6693"/><rect class="cls-6" x="208.3465" y="28.3465" width="2.8346" height="5.6693"/><rect class="cls-6" x="216.8504" y="28.3465" width="2.8346" height="5.6693"/><rect class="cls-6" x="219.685" y="28.3465" width="2.8346" height="5.6693"/><rect class="cls-6" x="222.5197" y="28.3465" width="2.8346" height="5.6693"/><rect class="cls-6" x="225.3543" y="28.3465" width="2.8346" height="5.6693"/><rect class="cls-6" x="236.6929" y="28.3465" width="2.8346" height="5.6693"/><rect class="cls-6" x="245.1969" y="5.6693" width="2.8346" height="5.6693"/><rect class="cls-6" x="250.8661" y="5.6693" width="2.8346" height="5.6693"/><rect class="cls-6" x="259.3701" y="5.6693" width="2.8346" height="5.6693"/><rect class="cls-6" x="262.2047" y="5.6693" width="2.8346" height="5.6693"/><rect class="cls-6" x="265.0394" y="5.6693" width="2.8346" height="5.6693"/><rect class="cls-6" x="267.874" y="5.6693" width="2.8346" height="5.6693"/><rect class="cls-6" x="273.5433" y="5.6693" width="2.8346" height="5.6693"/><rect class="cls-6" x="276.378" y="5.6693" width="2.8346" height="5.6693"/><rect class="cls-6" x="279.2126" y="5.6693" width="2.8346" height="5.6693"/><rect class="cls-6" x="282.0472" y="5.6693" width="2.8346" height="5.6693"/><rect class="cls-6" x="245.1969" y="11.3386" width="2.8346" height="5.6693"/><rect class="cls-6" x="248.0315" y="11.3386" width="2.8346" height="5.6693"/><rect class="cls-6" x="253.7008" y="11.3386" width="2.8346" height="5.6693"/><rect class="cls-6" x="256.5354" y="11.3386" width="2.8346" height="5.6693"/><rect class="cls-6" x="259.3701" y="11.3386" width="2.8346" height="5.6693"/><rect class="cls-6" x="265.0394" y="11.3386" width="2.8346" height="5.6693"/><rect class="cls-6" x="270.7087" y="11.3386" width="2.8346" height="5.6693"/><rect class="cls-6" x="273.5433" y="11.3386" width="2.8346" height="5.6693"/><rect class="cls-6" x="276.378" y="11.3386" width="2.8346" height="5.6693"/><rect class="cls-6" x="279.2126" y="11.3386" width="2.8346" height="5.6693"/><rect class="cls-6" x="282.0472" y="11.3386" width="2.8346" height="5.6693"/><rect class="cls-6" x="284.8819" y="11.3386" width="2.8346" height="5.6693"/><rect class="cls-6" x="245.1969" y="17.0079" width="2.8346" height="5.6693"/><rect class="cls-6" x="256.5354" y="17.0079" width="2.8346" height="5.6693"/><rect class="cls-6" x="259.3701" y="17.0079" width="2.8346" height="5.6693"/><rect class="cls-6" x="262.2047" y="17.0079" width="2.8346" height="5.6693"/><rect class="cls-6" x="265.0394" y="17.0079" width="2.8346" height="5.6693"/><rect class="cls-6" x="270.7087" y="17.0079" width="2.8346" height="5.6693"/><rect class="cls-6" x="282.0472" y="17.0079" width="2.8346" height="5.6693"/><rect class="cls-6" x="245.1969" y="22.6772" width="2.8346" height="5.6693"/><rect class="cls-6" x="259.3701" y="22.6772" width="2.8346" height="5.6693"/><rect class="cls-6" x="262.2047" y="22.6772" width="2.8346" height="5.6693"/><rect class="cls-6" x="273.5433" y="22.6772" width="2.8346" height="5.6693"/><rect class="cls-6" x="276.378" y="22.6772" width="2.8346" height="5.6693"/><rect class="cls-6" x="284.8819" y="22.6772" width="2.8346" height="5.6693"/><rect class="cls-6" x="293.3858" y="22.6772" width="2.8346" height="5.6693"/><rect class="cls-6" x="307.5591" y="22.6772" width="2.8346" height="5.6693"/><rect class="cls-6" x="310.3937" y="22.6772" width="2.8346" height="5.6693"/><rect class="cls-6" x="321.7323" y="22.6772" width="2.8346" height="5.6693"/><rect class="cls-6" x="324.5669" y="22.6772" width="2.8346" height="5.6693"/><rect class="cls-6" x="333.0709" y="22.6772" width="2.8346" height="5.6693"/><rect class="cls-6" x="245.1969" y="28.3465" width="2.8346" height="5.6693"/><rect class="cls-6" x="248.0315" y="28.3465" width="2.8346" height="5.6693"/><rect class="cls-6" x="256.5354" y="28.3465" width="2.8346" height="5.6693"/><rect class="cls-6" x="267.874" y="28.3465" width="2.8346" height="5.6693"/><rect class="cls-6" x="270.7087" y="28.3465" width="2.8346" height="5.6693"/><rect class="cls-6" x="273.5433" y="28.3465" width="2.8346" height="5.6693"/><rect class="cls-6" x="276.378" y="28.3465" width="2.8346" height="5.6693"/><rect class="cls-6" x="284.8819" y="28.3465" width="2.8346" height="5.6693"/><rect class="cls-6" x="287.7165" y="28.3465" width="2.8346" height="5.6693"/><rect class="cls-6" x="293.3858" y="5.6693" width="2.8346" height="5.6693"/><rect class="cls-6" x="296.2205" y="5.6693" width="2.8346" height="5.6693"/><rect class="cls-6" x="301.8898" y="5.6693" width="2.8346" height="5.6693"/><rect class="cls-6" x="307.5591" y="5.6693" width="2.8346" height="5.6693"/><rect class="cls-6" x="310.3937" y="5.6693" width="2.8346" height="5.6693"/><rect class="cls-6" x="313.2283" y="5.6693" width="2.8346" height="5.6693"/><rect class="cls-6" x="324.5669" y="5.6693" width="2.8346" height="5.6693"/><rect class="cls-6" x="327.4016" y="5.6693" width="2.8346" height="5.6693"/><rect class="cls-6" x="330.2362" y="5.6693" width="2.8346" height="5.6693"/><rect class="cls-6" x="333.0709" y="5.6693" width="2.8346" height="5.6693"/><rect class="cls-6" x="293.3858" y="11.3386" width="2.8346" height="5.6693"/><rect class="cls-6" x="301.8898" y="11.3386" width="2.8346" height="5.6693"/><rect class="cls-6" x="307.5591" y="11.3386" width="2.8346" height="5.6693"/><rect class="cls-6" x="310.3937" y="11.3386" width="2.8346" height="5.6693"/><rect class="cls-6" x="313.2283" y="11.3386" width="2.8346" height="5.6693"/><rect class="cls-6" x="316.063" y="11.3386" width="2.8346" height="5.6693"/><rect class="cls-6" x="318.8976" y="11.3386" width="2.8346" height="5.6693"/><rect class="cls-6" x="330.2362" y="11.3386" width="2.8346" height="5.6693"/><rect class="cls-6" x="333.0709" y="11.3386" width="2.8346" height="5.6693"/><rect class="cls-6" x="293.3858" y="17.0079" width="2.8346" height="5.6693"/><rect class="cls-6" x="304.7244" y="17.0079" width="2.8346" height="5.6693"/><rect class="cls-6" x="321.7323" y="17.0079" width="2.8346" height="5.6693"/><rect class="cls-6" x="327.4016" y="17.0079" width="2.8346" height="5.6693"/><rect class="cls-6" x="330.2362" y="17.0079" width="2.8346" height="5.6693"/><rect class="cls-6" x="333.0709" y="17.0079" width="2.8346" height="5.6693"/><rect class="cls-6" x="335.9055" y="17.0079" width="2.8346" height="5.6693"/><rect class="cls-6" x="293.3858" y="28.3465" width="2.8346" height="5.6693"/><rect class="cls-6" x="296.2205" y="28.3465" width="2.8346" height="5.6693"/><rect class="cls-6" x="299.0551" y="28.3465" width="2.8346" height="5.6693"/><rect class="cls-6" x="313.2283" y="28.3465" width="2.8346" height="5.6693"/><rect class="cls-6" x="318.8976" y="28.3465" width="2.8346" height="5.6693"/><rect class="cls-6" x="321.7323" y="28.3465" width="2.8346" height="5.6693"/><rect class="cls-6" x="330.2362" y="28.3465" width="2.8346" height="5.6693"/><rect class="cls-6" x="341.5748" y="5.6693" width="2.8346" height="5.6693"/><rect class="cls-6" x="344.4094" y="5.6693" width="2.8346" height="5.6693"/><rect class="cls-6" x="347.2441" y="5.6693" width="2.8346" height="5.6693"/><rect class="cls-6" x="350.0787" y="5.6693" width="2.8346" height="5.6693"/><rect class="cls-6" x="355.748" y="5.6693" width="2.8346" height="5.6693"/><rect class="cls-6" x="361.4173" y="5.6693" width="2.8346" height="5.6693"/><rect class="cls-6" x="369.9213" y="5.6693" width="2.8346" height="5.6693"/><rect class="cls-6" x="372.7559" y="5.6693" width="2.8346" height="5.6693"/><rect class="cls-6" x="375.5906" y="5.6693" width="2.8346" height="5.6693"/><rect class="cls-6" x="378.4252" y="5.6693" width="2.8346" height="5.6693"/><rect class="cls-6" x="341.5748" y="11.3386" width="2.8346" height="5.6693"/><rect class="cls-6" x="344.4094" y="11.3386" width="2.8346" height="5.6693"/><rect class="cls-6" x="347.2441" y="11.3386" width="2.8346" height="5.6693"/><rect class="cls-6" x="350.0787" y="11.3386" width="2.8346" height="5.6693"/><rect class="cls-6" x="352.9134" y="11.3386" width="2.8346" height="5.6693"/><rect class="cls-6" x="355.748" y="11.3386" width="2.8346" height="5.6693"/><rect class="cls-6" x="361.4173" y="11.3386" width="2.8346" height="5.6693"/><rect class="cls-6" x="367.0866" y="11.3386" width="2.8346" height="5.6693"/><rect class="cls-6" x="372.7559" y="11.3386" width="2.8346" height="5.6693"/><rect class="cls-6" x="375.5906" y="11.3386" width="2.8346" height="5.6693"/><rect class="cls-6" x="378.4252" y="11.3386" width="2.8346" height="5.6693"/><rect class="cls-6" x="341.5748" y="17.0079" width="2.8346" height="5.6693"/><rect class="cls-6" x="344.4094" y="17.0079" width="2.8346" height="5.6693"/><rect class="cls-6" x="347.2441" y="17.0079" width="2.8346" height="5.6693"/><rect class="cls-6" x="352.9134" y="17.0079" width="2.8346" height="5.6693"/><rect class="cls-6" x="358.5827" y="17.0079" width="2.8346" height="5.6693"/><rect class="cls-6" x="367.0866" y="17.0079" width="2.8346" height="5.6693"/><rect class="cls-6" x="369.9213" y="17.0079" width="2.8346" height="5.6693"/><rect class="cls-6" x="372.7559" y="17.0079" width="2.8346" height="5.6693"/><rect class="cls-6" x="375.5906" y="17.0079" width="2.8346" height="5.6693"/><rect class="cls-6" x="378.4252" y="17.0079" width="2.8346" height="5.6693"/><rect class="cls-6" x="381.2598" y="17.0079" width="2.8346" height="5.6693"/><rect class="cls-6" x="341.5748" y="22.6772" width="2.8346" height="5.6693"/><rect class="cls-6" x="344.4094" y="22.6772" width="2.8346" height="5.6693"/><rect class="cls-6" x="347.2441" y="22.6772" width="2.8346" height="5.6693"/><rect class="cls-6" x="350.0787" y="22.6772" width="2.8346" height="5.6693"/><rect class="cls-6" x="352.9134" y="22.6772" width="2.8346" height="5.6693"/><rect class="cls-6" x="358.5827" y="22.6772" width="2.8346" height="5.6693"/><rect class="cls-6" x="364.252" y="22.6772" width="2.8346" height="5.6693"/><rect class="cls-6" x="367.0866" y="22.6772" width="2.8346" height="5.6693"/><rect class="cls-6" x="369.9213" y="22.6772" width="2.8346" height="5.6693"/><rect class="cls-6" x="372.7559" y="22.6772" width="2.8346" height="5.6693"/><rect class="cls-6" x="375.5906" y="22.6772" width="2.8346" height="5.6693"/><rect class="cls-6" x="378.4252" y="22.6772" width="2.8346" height="5.6693"/><rect class="cls-6" x="384.0945" y="22.6772" width="2.8346" height="5.6693"/><rect class="cls-6" x="341.5748" y="28.3465" width="2.8346" height="5.6693"/><rect class="cls-6" x="344.4094" y="28.3465" width="2.8346" height="5.6693"/><rect class="cls-6" x="347.2441" y="28.3465" width="2.8346" height="5.6693"/><rect class="cls-6" x="352.9134" y="28.3465" width="2.8346" height="5.6693"/><rect class="cls-6" x="358.5827" y="28.3465" width="2.8346" height="5.6693"/><rect class="cls-6" x="361.4173" y="28.3465" width="2.8346" height="5.6693"/><rect class="cls-6" x="364.252" y="28.3465" width="2.8346" height="5.6693"/><rect class="cls-6" x="372.7559" y="28.3465" width="2.8346" height="5.6693"/><rect class="cls-6" x="375.5906" y="28.3465" width="2.8346" height="5.6693"/><rect class="cls-6" x="41.1024" y="28.3465" width="2.8346" height="5.6693"/><rect class="cls-6" x="35.4331" y="28.3465" width="2.8346" height="5.6693"/><rect class="cls-6" x="29.7638" y="28.3465" width="2.8346" height="5.6693"/><rect class="cls-6" x="24.0945" y="28.3465" width="2.8346" height="5.6693"/><rect class="cls-6" x="21.2598" y="28.3465" width="2.8346" height="5.6693"/><rect class="cls-6" x="18.4252" y="28.3465" width="2.8346" height="5.6693"/><rect class="cls-6" x="15.5906" y="28.3465" width="2.8346" height="5.6693"/><rect class="cls-6" x="12.7559" y="28.3465" width="2.8346" height="5.6693"/><rect class="cls-6" x="9.9213" y="28.3465" width="2.8346" height="5.6693"/><rect class="cls-6" x="7.0866" y="28.3465" width="2.8346" height="5.6693"/><rect class="cls-6" x="4.252" y="28.3465" width="2.8346" height="5.6693"/><rect class="cls-6" x="41.1024" y="22.6772" width="2.8346" height="5.6693"/><rect class="cls-6" x="35.4331" y="22.6772" width="2.8346" height="5.6693"/><rect class="cls-6" x="29.7638" y="22.6772" width="2.8346" height="5.6693"/><rect class="cls-6" x="24.0945" y="22.6772" width="2.8346" height="5.6693"/><rect class="cls-6" x="21.2598" y="22.6772" width="2.8346" height="5.6693"/><rect class="cls-6" x="18.4252" y="22.6772" width="2.8346" height="5.6693"/><rect class="cls-6" x="15.5906" y="22.6772" width="2.8346" height="5.6693"/><rect class="cls-6" x="12.7559" y="22.6772" width="2.8346" height="5.6693"/><rect class="cls-6" x="9.9213" y="22.6772" width="2.8346" height="5.6693"/><rect class="cls-6" x="7.0866" y="22.6772" width="2.8346" height="5.6693"/><rect class="cls-6" x="4.252" y="22.6772" width="2.8346" height="5.6693"/><rect class="cls-6" x="41.1024" y="11.3386" width="2.8346" height="5.6693"/><rect class="cls-6" x="35.4331" y="11.3386" width="2.8346" height="5.6693"/><rect class="cls-6" x="29.7638" y="11.3386" width="2.8346" height="5.6693"/><rect class="cls-6" x="24.0945" y="11.3386" width="2.8346" height="5.6693"/><rect class="cls-6" x="21.2598" y="11.3386" width="2.8346" height="5.6693"/><rect class="cls-6" x="18.4252" y="11.3386" width="2.8346" height="5.6693"/><rect class="cls-6" x="15.5906" y="11.3386" width="2.8346" height="5.6693"/><rect class="cls-6" x="12.7559" y="11.3386" width="2.8346" height="5.6693"/><rect class="cls-6" x="9.9213" y="11.3386" width="2.8346" height="5.6693"/><rect class="cls-6" x="7.0866" y="11.3386" width="2.8346" height="5.6693"/><rect class="cls-6" x="4.252" y="11.3386" width="2.8346" height="5.6693"/><rect class="cls-6" x="41.1024" y="17.0079" width="2.8346" height="5.6693"/><rect class="cls-6" x="35.4331" y="17.0079" width="2.8346" height="5.6693"/><rect class="cls-6" x="29.7638" y="17.0079" width="2.8346" height="5.6693"/><rect class="cls-6" x="24.0945" y="17.0079" width="2.8346" height="5.6693"/><rect class="cls-6" x="21.2598" y="17.0079" width="2.8346" height="5.6693"/><rect class="cls-6" x="18.4252" y="17.0079" width="2.8346" height="5.6693"/><rect class="cls-6" x="15.5906" y="17.0079" width="2.8346" height="5.6693"/><rect class="cls-6" x="12.7559" y="17.0079" width="2.8346" height="5.6693"/><rect class="cls-6" x="9.9213" y="17.0079" width="2.8346" height="5.6693"/><rect class="cls-6" x="7.0866" y="17.0079" width="2.8346" height="5.6693"/><rect class="cls-6" x="4.252" y="17.0079" width="2.8346" height="5.6693"/><rect class="cls-6" x="41.1024" y="5.6693" width="2.8346" height="5.6693"/><rect class="cls-6" x="35.4331" y="5.6693" width="2.8346" height="5.6693"/><rect class="cls-6" x="29.7638" y="5.6693" width="2.8346" height="5.6693"/><rect class="cls-6" x="24.0945" y="5.6693" width="2.8346" height="5.6693"/><rect class="cls-6" x="21.2598" y="5.6693" width="2.8346" height="5.6693"/><rect class="cls-6" x="18.4252" y="5.6693" width="2.8346" height="5.6693"/><rect class="cls-6" x="15.5906" y="5.6693" width="2.8346" height="5.6693"/><rect class="cls-6" x="12.7559" y="5.6693" width="2.8346" height="5.6693"/><rect class="cls-6" x="9.9213" y="5.6693" width="2.8346" height="5.6693"/><rect class="cls-6" x="7.0866" y="5.6693" width="2.8346" height="5.6693"/><rect class="cls-6" x="4.252" y="5.6693" width="2.8346" height="5.6693"/><rect class="cls-6" x="437.9528" y="28.3465" width="2.8346" height="5.6693"/><rect class="cls-6" x="429.4488" y="28.3465" width="2.8346" height="5.6693"/><rect class="cls-6" x="423.7795" y="28.3465" width="2.8346" height="5.6693"/><rect class="cls-6" x="412.4409" y="28.3465" width="2.8346" height="5.6693"/><rect class="cls-6" x="406.7717" y="28.3465" width="2.8346" height="5.6693"/><rect class="cls-6" x="403.937" y="28.3465" width="2.8346" height="5.6693"/><rect class="cls-6" x="401.1024" y="28.3465" width="2.8346" height="5.6693"/><rect class="cls-6" x="398.2677" y="28.3465" width="2.8346" height="5.6693"/><rect class="cls-6" x="395.4331" y="28.3465" width="2.8346" height="5.6693"/><rect class="cls-6" x="392.5984" y="28.3465" width="2.8346" height="5.6693"/><rect class="cls-6" x="389.7638" y="28.3465" width="2.8346" height="5.6693"/><rect class="cls-6" x="437.9528" y="22.6772" width="2.8346" height="5.6693"/><rect class="cls-6" x="429.4488" y="22.6772" width="2.8346" height="5.6693"/><rect class="cls-6" x="423.7795" y="22.6772" width="2.8346" height="5.6693"/><rect class="cls-6" x="412.4409" y="22.6772" width="2.8346" height="5.6693"/><rect class="cls-6" x="406.7717" y="22.6772" width="2.8346" height="5.6693"/><rect class="cls-6" x="403.937" y="22.6772" width="2.8346" height="5.6693"/><rect class="cls-6" x="401.1024" y="22.6772" width="2.8346" height="5.6693"/><rect class="cls-6" x="398.2677" y="22.6772" width="2.8346" height="5.6693"/><rect class="cls-6" x="395.4331" y="22.6772" width="2.8346" height="5.6693"/><rect class="cls-6" x="392.5984" y="22.6772" width="2.8346" height="5.6693"/><rect class="cls-6" x="389.7638" y="22.6772" width="2.8346" height="5.6693"/><rect class="cls-6" x="437.9528" y="11.3386" width="2.8346" height="5.6693"/><rect class="cls-6" x="429.4488" y="11.3386" width="2.8346" height="5.6693"/><rect class="cls-6" x="423.7795" y="11.3386" width="2.8346" height="5.6693"/><rect class="cls-6" x="412.4409" y="11.3386" width="2.8346" height="5.6693"/><rect class="cls-6" x="406.7717" y="11.3386" width="2.8346" height="5.6693"/><rect class="cls-6" x="403.937" y="11.3386" width="2.8346" height="5.6693"/><rect class="cls-6" x="401.1024" y="11.3386" width="2.8346" height="5.6693"/><rect class="cls-6" x="398.2677" y="11.3386" width="2.8346" height="5.6693"/><rect class="cls-6" x="395.4331" y="11.3386" width="2.8346" height="5.6693"/><rect class="cls-6" x="392.5984" y="11.3386" width="2.8346" height="5.6693"/><rect class="cls-6" x="389.7638" y="11.3386" width="2.8346" height="5.6693"/><rect class="cls-6" x="437.9528" y="17.0079" width="2.8346" height="5.6693"/><rect class="cls-6" x="429.4488" y="17.0079" width="2.8346" height="5.6693"/><rect class="cls-6" x="423.7795" y="17.0079" width="2.8346" height="5.6693"/><rect class="cls-6" x="412.4409" y="17.0079" width="2.8346" height="5.6693"/><rect class="cls-6" x="406.7717" y="17.0079" width="2.8346" height="5.6693"/><rect class="cls-6" x="403.937" y="17.0079" width="2.8346" height="5.6693"/><rect class="cls-6" x="401.1024" y="17.0079" width="2.8346" height="5.6693"/><rect class="cls-6" x="398.2677" y="17.0079" width="2.8346" height="5.6693"/><rect class="cls-6" x="395.4331" y="17.0079" width="2.8346" height="5.6693"/><rect class="cls-6" x="392.5984" y="17.0079" width="2.8346" height="5.6693"/><rect class="cls-6" x="389.7638" y="17.0079" width="2.8346" height="5.6693"/><rect class="cls-6" x="437.9528" y="5.6693" width="2.8346" height="5.6693"/><rect class="cls-6" x="429.4488" y="5.6693" width="2.8346" height="5.6693"/><rect class="cls-6" x="423.7795" y="5.6693" width="2.8346" height="5.6693"/><rect class="cls-6" x="412.4409" y="5.6693" width="2.8346" height="5.6693"/><rect class="cls-6" x="406.7717" y="5.6693" width="2.8346" height="5.6693"/><rect class="cls-6" x="403.937" y="5.6693" width="2.8346" height="5.6693"/><rect class="cls-6" x="401.1024" y="5.6693" width="2.8346" height="5.6693"/><rect class="cls-6" x="398.2677" y="5.6693" width="2.8346" height="5.6693"/><rect class="cls-6" x="395.4331" y="5.6693" width="2.8346" height="5.6693"/><rect class="cls-6" x="392.5984" y="5.6693" width="2.8346" height="5.6693"/><rect class="cls-6" x="389.7638" y="5.6693" width="2.8346" height="5.6693"/></svg>