<svg id="originals" xmlns="http://www.w3.org/2000/svg" xmlns:xlink="http://www.w3.org/1999/xlink" viewBox="0 0 76.5354 73.7008"><defs><style>.cls-1,.cls-2,.cls-3{fill:none;}.cls-2{stroke:#e6e7e8;}.cls-2,.cls-3{stroke-miterlimit:10;stroke-width:0.0283px;}.cls-3{stroke:#939598;}.cls-4{fill:#fff;}.cls-5{fill:url(#_2x2);}.cls-6{fill:#010101;}</style><pattern id="_2x2" data-name="2x2" width="2.8346" height="2.8346" patternUnits="userSpaceOnUse" viewBox="0 0 2.835 2.835"><rect class="cls-1" width="2.8346" height="2.8346"/><rect class="cls-2" x="2.8346" y="1.4174" width="1.4173" height="1.4173"/><rect class="cls-2" x="2.8346" y="2.8348" width="1.4173" height="1.4173"/><rect class="cls-3" x="2.8346" y="1.4174" width="2.8346" height="5.6693"/><rect class="cls-2" y="1.4174" width="1.4173" height="1.4173"/><rect class="cls-2" x="1.4173" y="1.4174" width="1.4173" height="1.4173"/><rect class="cls-2" y="2.8348" width="1.4173" height="1.4173"/><rect class="cls-2" x="1.4173" y="2.8348" width="1.4173" height="1.4173"/><rect class="cls-3" y="1.4174" width="2.8346" height="5.6693"/><rect class="cls-2" x="-1.4173" y="1.4174" width="1.4173" height="1.4173"/><rect class="cls-2" x="-1.4173" y="2.8348" width="1.4173" height="1.4173"/><rect class="cls-3" x="-2.8347" y="1.4174" width="2.8346" height="5.6693"/><rect class="cls-2" x="2.8346" y="1.4174" width="1.4173" height="1.4173"/><rect class="cls-2" x="2.8346" y="2.8348" width="1.4173" height="1.4173"/><rect class="cls-2" x="2.8346" y="-1.4172" width="1.4173" height="1.4173"/><rect class="cls-2" x="2.8346" y="0.0001" width="1.4173" height="1.4173"/><rect class="cls-3" x="2.8346" y="-1.4172" width="2.8346" height="5.6693"/><rect class="cls-2" y="1.4174" width="1.4173" height="1.4173"/><rect class="cls-2" x="1.4173" y="1.4174" width="1.4173" height="1.4173"/><rect class="cls-2" y="2.8348" width="1.4173" height="1.4173"/><rect class="cls-2" x="1.4173" y="2.8348" width="1.4173" height="1.4173"/><rect class="cls-2" y="-1.4172" width="1.4173" height="1.4173"/><rect class="cls-2" x="1.4173" y="-1.4172" width="1.4173" height="1.4173"/><rect class="cls-2" y="0.0001" width="1.4173" height="1.4173"/><rect class="cls-2" x="1.4173" y="0.0001" width="1.4173" height="1.4173"/><rect class="cls-3" y="-1.4172" width="2.8346" height="5.6693"/><rect class="cls-2" x="-1.4173" y="1.4174" width="1.4173" height="1.4173"/><rect class="cls-2" x="-1.4173" y="2.8348" width="1.4173" height="1.4173"/><rect class="cls-2" x="-1.4173" y="-1.4172" width="1.4173" height="1.4173"/><rect class="cls-2" x="-1.4173" y="0.0001" width="1.4173" height="1.4173"/><rect class="cls-3" x="-2.8347" y="-1.4172" width="2.8346" height="5.6693"/><rect class="cls-2" x="2.8346" y="-1.4172" width="1.4173" height="1.4173"/><rect class="cls-2" x="2.8346" y="0.0001" width="1.4173" height="1.4173"/><rect class="cls-3" x="2.8346" y="-4.2518" width="2.8346" height="5.6693"/><rect class="cls-2" y="-1.4172" width="1.4173" height="1.4173"/><rect class="cls-2" x="1.4173" y="-1.4172" width="1.4173" height="1.4173"/><rect class="cls-2" y="0.0001" width="1.4173" height="1.4173"/><rect class="cls-2" x="1.4173" y="0.0001" width="1.4173" height="1.4173"/><rect class="cls-3" y="-4.2518" width="2.8346" height="5.6693"/><rect class="cls-2" x="-1.4173" y="-1.4172" width="1.4173" height="1.4173"/><rect class="cls-2" x="-1.4173" y="0.0001" width="1.4173" height="1.4173"/><rect class="cls-3" x="-2.8347" y="-4.2518" width="2.8346" height="5.6693"/></pattern></defs><title>cover</title><g id="BG"><rect class="cls-4" width="76.5354" height="73.7008"/><rect class="cls-5" width="76.5354" height="73.7008"/></g><rect class="cls-6" x="5.6693" y="4.252" width="2.8347" height="2.8347"/><rect class="cls-6" x="8.504" y="4.252" width="2.8347" height="2.8347"/><rect class="cls-6" x="11.3385" y="4.252" width="2.8347" height="2.8347"/><rect class="cls-6" x="14.1732" y="4.252" width="2.8347" height="2.8347"/><rect class="cls-6" x="19.8426" y="4.252" width="2.8347" height="2.8347"/><rect class="cls-6" x="28.3465" y="4.252" width="2.8347" height="2.8347"/><rect class="cls-6" x="31.1812" y="4.252" width="2.8347" height="2.8347"/><rect class="cls-6" x="36.8504" y="4.252" width="2.8347" height="2.8347"/><rect class="cls-6" x="39.6851" y="4.252" width="2.8347" height="2.8347"/><rect class="cls-6" x="65.197" y="4.252" width="2.8347" height="2.8347"/><rect class="cls-6" x="68.0314" y="4.252" width="2.8347" height="2.8347"/><rect class="cls-6" x="5.6693" y="7.0867" width="2.8347" height="2.8347"/><rect class="cls-6" x="25.5118" y="7.0867" width="2.8347" height="2.8347"/><rect class="cls-6" x="31.1812" y="7.0867" width="2.8347" height="2.8347"/><rect class="cls-6" x="36.8504" y="7.0867" width="2.8347" height="2.8347"/><rect class="cls-6" x="39.6851" y="7.0867" width="2.8347" height="2.8347"/><rect class="cls-6" x="45.3542" y="7.0867" width="2.8347" height="2.8347"/><rect class="cls-6" x="48.189" y="7.0867" width="2.8347" height="2.8347"/><rect class="cls-6" x="56.6928" y="7.0867" width="2.8347" height="2.8347"/><rect class="cls-6" x="59.5275" y="7.0867" width="2.8347" height="2.8347"/><rect class="cls-6" x="62.3623" y="7.0867" width="2.8347" height="2.8347"/><rect class="cls-6" x="11.3385" y="9.9211" width="2.8347" height="2.8347"/><rect class="cls-6" x="19.8426" y="9.9211" width="2.8347" height="2.8347"/><rect class="cls-6" x="28.3465" y="9.9211" width="2.8347" height="2.8347"/><rect class="cls-6" x="36.8504" y="9.9211" width="2.8347" height="2.8347"/><rect class="cls-6" x="42.5198" y="9.9211" width="2.8347" height="2.8347"/><rect class="cls-6" x="45.3542" y="9.9211" width="2.8347" height="2.8347"/><rect class="cls-6" x="51.0237" y="9.9211" width="2.8347" height="2.8347"/><rect class="cls-6" x="53.8584" y="9.9211" width="2.8347" height="2.8347"/><rect class="cls-6" x="59.5275" y="9.9211" width="2.8347" height="2.8347"/><rect class="cls-6" x="62.3623" y="9.9211" width="2.8347" height="2.8347"/><rect class="cls-6" x="5.6693" y="12.7558" width="2.8347" height="2.8347"/><rect class="cls-6" x="11.3385" y="12.7558" width="2.8347" height="2.8347"/><rect class="cls-6" x="17.0079" y="12.7558" width="2.8347" height="2.8347"/><rect class="cls-6" x="25.5118" y="12.7558" width="2.8347" height="2.8347"/><rect class="cls-6" x="31.1812" y="12.7558" width="2.8347" height="2.8347"/><rect class="cls-6" x="42.5198" y="12.7558" width="2.8347" height="2.8347"/><rect class="cls-6" x="45.3542" y="12.7558" width="2.8347" height="2.8347"/><rect class="cls-6" x="51.0237" y="12.7558" width="2.8347" height="2.8347"/><rect class="cls-6" x="53.8584" y="12.7558" width="2.8347" height="2.8347"/><rect class="cls-6" x="59.5275" y="12.7558" width="2.8347" height="2.8347"/><rect class="cls-6" x="62.3623" y="12.7558" width="2.8347" height="2.8347"/><rect class="cls-6" x="8.504" y="15.5906" width="2.8347" height="2.8347"/><rect class="cls-6" x="11.3385" y="15.5906" width="2.8347" height="2.8347"/><rect class="cls-6" x="19.8426" y="15.5906" width="2.8347" height="2.8347"/><rect class="cls-6" x="28.3465" y="15.5906" width="2.8347" height="2.8347"/><rect class="cls-6" x="31.1812" y="15.5906" width="2.8347" height="2.8347"/><rect class="cls-6" x="34.0156" y="15.5906" width="2.8347" height="2.8347"/><rect class="cls-6" x="36.8504" y="15.5906" width="2.8347" height="2.8347"/><rect class="cls-6" x="39.6851" y="15.5906" width="2.8347" height="2.8347"/><rect class="cls-6" x="42.5198" y="15.5906" width="2.8347" height="2.8347"/><rect class="cls-6" x="48.189" y="15.5906" width="2.8347" height="2.8347"/><rect class="cls-6" x="53.8584" y="15.5906" width="2.8347" height="2.8347"/><rect class="cls-6" x="56.6928" y="15.5906" width="2.8347" height="2.8347"/><rect class="cls-6" x="59.5275" y="15.5906" width="2.8347" height="2.8347"/><rect class="cls-6" x="62.3623" y="15.5906" width="2.8347" height="2.8347"/><rect class="cls-6" x="65.197" y="15.5906" width="2.8347" height="2.8347"/><rect class="cls-6" x="68.0314" y="15.5906" width="2.8347" height="2.8347"/><rect class="cls-6" x="5.6693" y="18.4253" width="2.8347" height="2.8347"/><rect class="cls-6" x="14.1732" y="18.4253" width="2.8347" height="2.8347"/><rect class="cls-6" x="17.0079" y="18.4253" width="2.8347" height="2.8347"/><rect class="cls-6" x="22.6771" y="18.4253" width="2.8347" height="2.8347"/><rect class="cls-6" x="36.8504" y="18.4253" width="2.8347" height="2.8347"/><rect class="cls-6" x="42.5198" y="18.4253" width="2.8347" height="2.8347"/><rect class="cls-6" x="45.3542" y="18.4253" width="2.8347" height="2.8347"/><rect class="cls-6" x="48.189" y="18.4253" width="2.8347" height="2.8347"/><rect class="cls-6" x="51.0237" y="18.4253" width="2.8347" height="2.8347"/><rect class="cls-6" x="5.6693" y="21.2597" width="2.8347" height="2.8347"/><rect class="cls-6" x="11.3385" y="21.2597" width="2.8347" height="2.8347"/><rect class="cls-6" x="17.0079" y="21.2597" width="2.8347" height="2.8347"/><rect class="cls-6" x="19.8426" y="21.2597" width="2.8347" height="2.8347"/><rect class="cls-6" x="22.6771" y="21.2597" width="2.8347" height="2.8347"/><rect class="cls-6" x="25.5118" y="21.2597" width="2.8347" height="2.8347"/><rect class="cls-6" x="28.3465" y="21.2597" width="2.8347" height="2.8347"/><rect class="cls-6" x="36.8504" y="21.2597" width="2.8347" height="2.8347"/><rect class="cls-6" x="42.5198" y="21.2597" width="2.8347" height="2.8347"/><rect class="cls-6" x="51.0237" y="21.2597" width="2.8347" height="2.8347"/><rect class="cls-6" x="53.8584" y="21.2597" width="2.8347" height="2.8347"/><rect class="cls-6" x="56.6928" y="21.2597" width="2.8347" height="2.8347"/><rect class="cls-6" x="59.5275" y="21.2597" width="2.8347" height="2.8347"/><rect class="cls-6" x="68.0314" y="21.2597" width="2.8347" height="2.8347"/><rect class="cls-6" x="5.6693" y="24.0944" width="2.8347" height="2.8347"/><rect class="cls-6" x="8.504" y="24.0944" width="2.8347" height="2.8347"/><rect class="cls-6" x="11.3385" y="24.0944" width="2.8347" height="2.8347"/><rect class="cls-6" x="22.6771" y="24.0944" width="2.8347" height="2.8347"/><rect class="cls-6" x="25.5118" y="24.0944" width="2.8347" height="2.8347"/><rect class="cls-6" x="28.3465" y="24.0944" width="2.8347" height="2.8347"/><rect class="cls-6" x="31.1812" y="24.0944" width="2.8347" height="2.8347"/><rect class="cls-6" x="34.0156" y="24.0944" width="2.8347" height="2.8347"/><rect class="cls-6" x="36.8504" y="24.0944" width="2.8347" height="2.8347"/><rect class="cls-6" x="39.6851" y="24.0944" width="2.8347" height="2.8347"/><rect class="cls-6" x="42.5198" y="24.0944" width="2.8347" height="2.8347"/><rect class="cls-6" x="45.3542" y="24.0944" width="2.8347" height="2.8347"/><rect class="cls-6" x="48.189" y="24.0944" width="2.8347" height="2.8347"/><rect class="cls-6" x="51.0237" y="24.0944" width="2.8347" height="2.8347"/><rect class="cls-6" x="56.6928" y="24.0944" width="2.8347" height="2.8347"/><rect class="cls-6" x="59.5275" y="24.0944" width="2.8347" height="2.8347"/><rect class="cls-6" x="62.3623" y="24.0944" width="2.8347" height="2.8347"/><rect class="cls-6" x="8.504" y="26.9292" width="2.8347" height="2.8347"/><rect class="cls-6" x="11.3385" y="26.9292" width="2.8347" height="2.8347"/><rect class="cls-6" x="19.8426" y="26.9292" width="2.8347" height="2.8347"/><rect class="cls-6" x="22.6771" y="26.9292" width="2.8347" height="2.8347"/><rect class="cls-6" x="25.5118" y="26.9292" width="2.8347" height="2.8347"/><rect class="cls-6" x="48.189" y="26.9292" width="2.8347" height="2.8347"/><rect class="cls-6" x="51.0237" y="26.9292" width="2.8347" height="2.8347"/><rect class="cls-6" x="53.8584" y="26.9292" width="2.8347" height="2.8347"/><rect class="cls-6" x="59.5275" y="26.9292" width="2.8347" height="2.8347"/><rect class="cls-6" x="65.197" y="26.9292" width="2.8347" height="2.8347"/><rect class="cls-6" x="8.504" y="29.7639" width="2.8347" height="2.8347"/><rect class="cls-6" x="14.1732" y="29.7639" width="2.8347" height="2.8347"/><rect class="cls-6" x="17.0079" y="29.7639" width="2.8347" height="2.8347"/><rect class="cls-6" x="25.5118" y="29.7639" width="2.8347" height="2.8347"/><rect class="cls-6" x="31.1812" y="29.7639" width="2.8347" height="2.8347"/><rect class="cls-6" x="34.0156" y="29.7639" width="2.8347" height="2.8347"/><rect class="cls-6" x="36.8504" y="29.7639" width="2.8347" height="2.8347"/><rect class="cls-6" x="39.6851" y="29.7639" width="2.8347" height="2.8347"/><rect class="cls-6" x="42.5198" y="29.7639" width="2.8347" height="2.8347"/><rect class="cls-6" x="48.189" y="29.7639" width="2.8347" height="2.8347"/><rect class="cls-6" x="51.0237" y="29.7639" width="2.8347" height="2.8347"/><rect class="cls-6" x="53.8584" y="29.7639" width="2.8347" height="2.8347"/><rect class="cls-6" x="59.5275" y="29.7639" width="2.8347" height="2.8347"/><rect class="cls-6" x="65.197" y="29.7639" width="2.8347" height="2.8347"/><rect class="cls-6" x="5.6693" y="32.5983" width="2.8347" height="2.8347"/><rect class="cls-6" x="11.3385" y="32.5983" width="2.8347" height="2.8347"/><rect class="cls-6" x="17.0079" y="32.5983" width="2.8347" height="2.8347"/><rect class="cls-6" x="19.8426" y="32.5983" width="2.8347" height="2.8347"/><rect class="cls-6" x="25.5118" y="32.5983" width="2.8347" height="2.8347"/><rect class="cls-6" x="31.1812" y="32.5983" width="2.8347" height="2.8347"/><rect class="cls-6" x="42.5198" y="32.5983" width="2.8347" height="2.8347"/><rect class="cls-6" x="48.189" y="32.5983" width="2.8347" height="2.8347"/><rect class="cls-6" x="51.0237" y="32.5983" width="2.8347" height="2.8347"/><rect class="cls-6" x="53.8584" y="32.5983" width="2.8347" height="2.8347"/><rect class="cls-6" x="56.6928" y="32.5983" width="2.8347" height="2.8347"/><rect class="cls-6" x="59.5275" y="32.5983" width="2.8347" height="2.8347"/><rect class="cls-6" x="17.0079" y="35.433" width="2.8347" height="2.8347"/><rect class="cls-6" x="22.6771" y="35.433" width="2.8347" height="2.8347"/><rect class="cls-6" x="25.5118" y="35.433" width="2.8347" height="2.8347"/><rect class="cls-6" x="31.1812" y="35.433" width="2.8347" height="2.8347"/><rect class="cls-6" x="36.8504" y="35.433" width="2.8347" height="2.8347"/><rect class="cls-6" x="42.5198" y="35.433" width="2.8347" height="2.8347"/><rect class="cls-6" x="48.189" y="35.433" width="2.8347" height="2.8347"/><rect class="cls-6" x="51.0237" y="35.433" width="2.8347" height="2.8347"/><rect class="cls-6" x="56.6928" y="35.433" width="2.8347" height="2.8347"/><rect class="cls-6" x="62.3623" y="35.433" width="2.8347" height="2.8347"/><rect class="cls-6" x="5.6693" y="38.2678" width="2.8347" height="2.8347"/><rect class="cls-6" x="8.504" y="38.2678" width="2.8347" height="2.8347"/><rect class="cls-6" x="11.3385" y="38.2678" width="2.8347" height="2.8347"/><rect class="cls-6" x="25.5118" y="38.2678" width="2.8347" height="2.8347"/><rect class="cls-6" x="31.1812" y="38.2678" width="2.8347" height="2.8347"/><rect class="cls-6" x="42.5198" y="38.2678" width="2.8347" height="2.8347"/><rect class="cls-6" x="48.189" y="38.2678" width="2.8347" height="2.8347"/><rect class="cls-6" x="62.3623" y="38.2678" width="2.8347" height="2.8347"/><rect class="cls-6" x="68.0314" y="38.2678" width="2.8347" height="2.8347"/><rect class="cls-6" x="8.504" y="41.1025" width="2.8347" height="2.8347"/><rect class="cls-6" x="14.1732" y="41.1025" width="2.8347" height="2.8347"/><rect class="cls-6" x="17.0079" y="41.1025" width="2.8347" height="2.8347"/><rect class="cls-6" x="19.8426" y="41.1025" width="2.8347" height="2.8347"/><rect class="cls-6" x="25.5118" y="41.1025" width="2.8347" height="2.8347"/><rect class="cls-6" x="31.1812" y="41.1025" width="2.8347" height="2.8347"/><rect class="cls-6" x="34.0156" y="41.1025" width="2.8347" height="2.8347"/><rect class="cls-6" x="36.8504" y="41.1025" width="2.8347" height="2.8347"/><rect class="cls-6" x="39.6851" y="41.1025" width="2.8347" height="2.8347"/><rect class="cls-6" x="42.5198" y="41.1025" width="2.8347" height="2.8347"/><rect class="cls-6" x="48.189" y="41.1025" width="2.8347" height="2.8347"/><rect class="cls-6" x="53.8584" y="41.1025" width="2.8347" height="2.8347"/><rect class="cls-6" x="62.3623" y="41.1025" width="2.8347" height="2.8347"/><rect class="cls-6" x="65.197" y="41.1025" width="2.8347" height="2.8347"/><rect class="cls-6" x="68.0314" y="41.1025" width="2.8347" height="2.8347"/><rect class="cls-6" x="11.3385" y="43.9369" width="2.8347" height="2.8347"/><rect class="cls-6" x="14.1732" y="43.9369" width="2.8347" height="2.8347"/><rect class="cls-6" x="25.5118" y="43.9369" width="2.8347" height="2.8347"/><rect class="cls-6" x="48.189" y="43.9369" width="2.8347" height="2.8347"/><rect class="cls-6" x="62.3623" y="43.9369" width="2.8347" height="2.8347"/><rect class="cls-6" x="14.1732" y="46.7716" width="2.8347" height="2.8347"/><rect class="cls-6" x="25.5118" y="46.7716" width="2.8347" height="2.8347"/><rect class="cls-6" x="28.3465" y="46.7716" width="2.8347" height="2.8347"/><rect class="cls-6" x="31.1812" y="46.7716" width="2.8347" height="2.8347"/><rect class="cls-6" x="34.0156" y="46.7716" width="2.8347" height="2.8347"/><rect class="cls-6" x="36.8504" y="46.7716" width="2.8347" height="2.8347"/><rect class="cls-6" x="39.6851" y="46.7716" width="2.8347" height="2.8347"/><rect class="cls-6" x="42.5198" y="46.7716" width="2.8347" height="2.8347"/><rect class="cls-6" x="45.3542" y="46.7716" width="2.8347" height="2.8347"/><rect class="cls-6" x="48.189" y="46.7716" width="2.8347" height="2.8347"/><rect class="cls-6" x="51.0237" y="46.7716" width="2.8347" height="2.8347"/><rect class="cls-6" x="53.8584" y="46.7716" width="2.8347" height="2.8347"/><rect class="cls-6" x="59.5275" y="46.7716" width="2.8347" height="2.8347"/><rect class="cls-6" x="62.3623" y="46.7716" width="2.8347" height="2.8347"/><rect class="cls-6" x="19.8426" y="49.6063" width="2.8347" height="2.8347"/><rect class="cls-6" x="28.3465" y="49.6063" width="2.8347" height="2.8347"/><rect class="cls-6" x="34.0156" y="49.6063" width="2.8347" height="2.8347"/><rect class="cls-6" x="42.5198" y="49.6063" width="2.8347" height="2.8347"/><rect class="cls-6" x="62.3623" y="49.6063" width="2.8347" height="2.8347"/><rect class="cls-6" x="68.0314" y="49.6063" width="2.8347" height="2.8347"/><rect class="cls-6" x="8.504" y="52.4411" width="2.8347" height="2.8347"/><rect class="cls-6" x="11.3385" y="52.4411" width="2.8347" height="2.8347"/><rect class="cls-6" x="17.0079" y="52.4411" width="2.8347" height="2.8347"/><rect class="cls-6" x="19.8426" y="52.4411" width="2.8347" height="2.8347"/><rect class="cls-6" x="25.5118" y="52.4411" width="2.8347" height="2.8347"/><rect class="cls-6" x="28.3465" y="52.4411" width="2.8347" height="2.8347"/><rect class="cls-6" x="31.1812" y="52.4411" width="2.8347" height="2.8347"/><rect class="cls-6" x="42.5198" y="52.4411" width="2.8347" height="2.8347"/><rect class="cls-6" x="48.189" y="52.4411" width="2.8347" height="2.8347"/><rect class="cls-6" x="59.5275" y="52.4411" width="2.8347" height="2.8347"/><rect class="cls-6" x="62.3623" y="52.4411" width="2.8347" height="2.8347"/><rect class="cls-6" x="8.504" y="55.2755" width="2.8347" height="2.8347"/><rect class="cls-6" x="14.1732" y="55.2755" width="2.8347" height="2.8347"/><rect class="cls-6" x="19.8426" y="55.2755" width="2.8347" height="2.8347"/><rect class="cls-6" x="28.3465" y="55.2755" width="2.8347" height="2.8347"/><rect class="cls-6" x="36.8504" y="55.2755" width="2.8347" height="2.8347"/><rect class="cls-6" x="45.3542" y="55.2755" width="2.8347" height="2.8347"/><rect class="cls-6" x="51.0237" y="55.2755" width="2.8347" height="2.8347"/><rect class="cls-6" x="53.8584" y="55.2755" width="2.8347" height="2.8347"/><rect class="cls-6" x="56.6928" y="55.2755" width="2.8347" height="2.8347"/><rect class="cls-6" x="59.5275" y="55.2755" width="2.8347" height="2.8347"/><rect class="cls-6" x="62.3623" y="55.2755" width="2.8347" height="2.8347"/><rect class="cls-6" x="65.197" y="55.2755" width="2.8347" height="2.8347"/><rect class="cls-6" x="8.504" y="58.1102" width="2.8347" height="2.8347"/><rect class="cls-6" x="17.0079" y="58.1102" width="2.8347" height="2.8347"/><rect class="cls-6" x="19.8426" y="58.1102" width="2.8347" height="2.8347"/><rect class="cls-6" x="28.3465" y="58.1102" width="2.8347" height="2.8347"/><rect class="cls-6" x="39.6851" y="58.1102" width="2.8347" height="2.8347"/><rect class="cls-6" x="62.3623" y="58.1102" width="2.8347" height="2.8347"/><rect class="cls-6" x="68.0314" y="58.1102" width="2.8347" height="2.8347"/><rect class="cls-6" x="11.3385" y="60.9449" width="2.8347" height="2.8347"/><rect class="cls-6" x="22.6771" y="60.9449" width="2.8347" height="2.8347"/><rect class="cls-6" x="25.5118" y="60.9449" width="2.8347" height="2.8347"/><rect class="cls-6" x="28.3465" y="60.9449" width="2.8347" height="2.8347"/><rect class="cls-6" x="31.1812" y="60.9449" width="2.8347" height="2.8347"/><rect class="cls-6" x="34.0156" y="60.9449" width="2.8347" height="2.8347"/><rect class="cls-6" x="42.5198" y="60.9449" width="2.8347" height="2.8347"/><rect class="cls-6" x="48.189" y="60.9449" width="2.8347" height="2.8347"/><rect class="cls-6" x="51.0237" y="60.9449" width="2.8347" height="2.8347"/><rect class="cls-6" x="56.6928" y="60.9449" width="2.8347" height="2.8347"/><rect class="cls-6" x="59.5275" y="60.9449" width="2.8347" height="2.8347"/><rect class="cls-6" x="65.197" y="60.9449" width="2.8347" height="2.8347"/><rect class="cls-6" x="8.504" y="63.7797" width="2.8347" height="2.8347"/><rect class="cls-6" x="11.3385" y="63.7797" width="2.8347" height="2.8347"/><rect class="cls-6" x="22.6771" y="63.7797" width="2.8347" height="2.8347"/><rect class="cls-6" x="36.8504" y="63.7797" width="2.8347" height="2.8347"/><rect class="cls-6" x="42.5198" y="63.7797" width="2.8347" height="2.8347"/><rect class="cls-6" x="51.0237" y="63.7797" width="2.8347" height="2.8347"/><rect class="cls-6" x="56.6928" y="63.7797" width="2.8347" height="2.8347"/><rect class="cls-6" x="68.0314" y="63.7797" width="2.8347" height="2.8347"/><rect class="cls-6" x="25.5118" y="66.6141" width="2.8347" height="2.8347"/><rect class="cls-6" x="28.3465" y="66.6141" width="2.8347" height="2.8347"/><rect class="cls-6" x="34.0156" y="66.6141" width="2.8347" height="2.8347"/><rect class="cls-6" x="51.0237" y="66.6141" width="2.8347" height="2.8347"/><rect class="cls-6" x="53.8584" y="66.6141" width="2.8347" height="2.8347"/><rect class="cls-6" x="59.5275" y="66.6141" width="2.8347" height="2.8347"/></svg>