<svg id="originals" xmlns="http://www.w3.org/2000/svg" xmlns:xlink="http://www.w3.org/1999/xlink" viewBox="0 0 153.0709 119.0551"><defs><style>.cls-1,.cls-2,.cls-3,.cls-6{fill:none;}.cls-2{stroke:#e6e7e8;}.cls-2,.cls-3,.cls-6{stroke-miterlimit:10;}.cls-2,.cls-3{stroke-width:0.0283px;}.cls-3{stroke:#939598;}.cls-4{fill:#fff;}.cls-5{fill:url(#_2x2);}.cls-6{stroke:#231f20;stroke-width:0.4252px;}.cls-7{fill:#231f20;}</style><pattern id="_2x2" data-name="2x2" width="2.8346" height="2.8346" patternUnits="userSpaceOnUse" viewBox="0 0 2.835 2.835"><rect class="cls-1" width="2.8346" height="2.8346"/><rect class="cls-2" x="2.8346" y="1.4174" width="1.4173" height="1.4173"/><rect class="cls-2" x="2.8346" y="2.8348" width="1.4173" height="1.4173"/><rect class="cls-3" x="2.8346" y="1.4174" width="2.8346" height="5.6693"/><rect class="cls-2" y="1.4174" width="1.4173" height="1.4173"/><rect class="cls-2" x="1.4173" y="1.4174" width="1.4173" height="1.4173"/><rect class="cls-2" y="2.8348" width="1.4173" height="1.4173"/><rect class="cls-2" x="1.4173" y="2.8348" width="1.4173" height="1.4173"/><rect class="cls-3" y="1.4174" width="2.8346" height="5.6693"/><rect class="cls-2" x="-1.4173" y="1.4174" width="1.4173" height="1.4173"/><rect class="cls-2" x="-1.4173" y="2.8348" width="1.4173" height="1.4173"/><rect class="cls-3" x="-2.8347" y="1.4174" width="2.8346" height="5.6693"/><rect class="cls-2" x="2.8346" y="1.4174" width="1.4173" height="1.4173"/><rect class="cls-2" x="2.8346" y="2.8348" width="1.4173" height="1.4173"/><rect class="cls-2" x="2.8346" y="-1.4172" width="1.4173" height="1.4173"/><rect class="cls-2" x="2.8346" y="0.0001" width="1.4173" height="1.4173"/><rect class="cls-3" x="2.8346" y="-1.4172" width="2.8346" height="5.6693"/><rect class="cls-2" y="1.4174" width="1.4173" height="1.4173"/><rect class="cls-2" x="1.4173" y="1.4174" width="1.4173" height="1.4173"/><rect class="cls-2" y="2.8348" width="1.4173" height="1.4173"/><rect class="cls-2" x="1.4173" y="2.8348" width="1.4173" height="1.4173"/><rect class="cls-2" y="-1.4172" width="1.4173" height="1.4173"/><rect class="cls-2" x="1.4173" y="-1.4172" width="1.4173" height="1.4173"/><rect class="cls-2" y="0.0001" width="1.4173" height="1.4173"/><rect class="cls-2" x="1.4173" y="0.0001" width="1.4173" height="1.4173"/><rect class="cls-3" y="-1.4172" width="2.8346" height="5.6693"/><rect class="cls-2" x="-1.4173" y="1.4174" width="1.4173" height="1.4173"/><rect class="cls-2" x="-1.4173" y="2.8348" width="1.4173" height="1.4173"/><rect class="cls-2" x="-1.4173" y="-1.4172" width="1.4173" height="1.4173"/><rect class="cls-2" x="-1.4173" y="0.0001" width="1.4173" height="1.4173"/><rect class="cls-3" x="-2.8347" y="-1.4172" width="2.8346" height="5.6693"/><rect class="cls-2" x="2.8346" y="-1.4172" width="1.4173" height="1.4173"/><rect class="cls-2" x="2.8346" y="0.0001" width="1.4173" height="1.4173"/><rect class="cls-3" x="2.8346" y="-4.2518" width="2.8346" height="5.6693"/><rect class="cls-2" y="-1.4172" width="1.4173" height="1.4173"/><rect class="cls-2" x="1.4173" y="-1.4172" width="1.4173" height="1.4173"/><rect class="cls-2" y="0.0001" width="1.4173" height="1.4173"/><rect class="cls-2" x="1.4173" y="0.0001" width="1.4173" height="1.4173"/><rect class="cls-3" y="-4.2518" width="2.8346" height="5.6693"/><rect class="cls-2" x="-1.4173" y="-1.4172" width="1.4173" height="1.4173"/><rect class="cls-2" x="-1.4173" y="0.0001" width="1.4173" height="1.4173"/><rect class="cls-3" x="-2.8347" y="-4.2518" width="2.8346" height="5.6693"/></pattern></defs><title>fig-003</title><g id="BG"><rect class="cls-4" width="153.0709" height="119.0551"/><rect class="cls-5" width="153.0709" height="119.0551"/></g><rect class="cls-6" x="5.6693" y="4.252" width="28.3465" height="28.3465"/><rect class="cls-6" x="5.6693" y="32.5984" width="28.3465" height="28.3465"/><rect class="cls-6" x="34.0157" y="4.252" width="28.3465" height="28.3465"/><rect class="cls-6" x="34.0157" y="32.5984" width="28.3465" height="28.3465"/><rect class="cls-6" x="62.3622" y="4.252" width="28.3465" height="28.3465"/><rect class="cls-6" x="62.3622" y="32.5984" width="28.3465" height="28.3465"/><rect class="cls-6" x="90.7087" y="4.252" width="28.3465" height="28.3465"/><rect class="cls-6" x="90.7087" y="32.5984" width="28.3465" height="28.3465"/><rect class="cls-6" x="119.0551" y="4.252" width="28.3465" height="28.3465"/><rect class="cls-6" x="119.0551" y="32.5984" width="28.3465" height="28.3465"/><path class="cls-7" d="M18.9018,48.8036a.3825.3825,0,0,1-.1884.3872q-.1553.0726-.3018.125c-.0976.0347-.1992.0655-.3042.0914s-.2153.05-.33.0717-.2383.0425-.3711.0611q-.2937.044-.5976.1a3.6651,3.6651,0,0,0-.57.1494l.0166.2158q0,.4372-.9356.4375a.254.254,0,0,1-.1523-.05.8635.8635,0,0,1-.1245-.1079.8547.8547,0,0,1-.0889-.1079q-.033-.05-.05-.05a.9119.9119,0,0,0-.2129.0439q-.1524.0447-.3267.1t-.3349.1084a1.6127,1.6127,0,0,1-.2383.0635,5.1892,5.1892,0,0,1-.5786.1548,2.2152,2.2152,0,0,1-.4126.05.848.848,0,0,1-.332-.0605.7409.7409,0,0,1-.2354-.1524.6942.6942,0,0,1-.1382-.1909.4361.4361,0,0,1-.0473-.1826.3922.3922,0,0,1,.122-.291,1.0263,1.0263,0,0,1,.33-.2046,3.0736,3.0736,0,0,1,.4844-.1494q.2769-.0638.5923-.1192.282-.0556.5923-.1221a4.0251,4.0251,0,0,0,.5756-.166q.0279-.2879.0445-.5786t.0444-.4951q.0389-.3216.0913-.69t.1109-.7392q.0577-.3707.1162-.7168t.102-.6148c.03-.1787.0547-.3247.0752-.437s.0322-.1762.0357-.1914a2.64,2.64,0,0,0-.2461.13c-.1055.061-.2178.1255-.3379.1938s-.2373.1353-.3516.2017-.21.1187-.2881.1553c-.0517.0259-.1264.0571-.2241.0942s-.2046.0718-.3208.105-.2339.061-.3516.083a1.7052,1.7052,0,0,1-.3159.0332.5369.5369,0,0,1-.3154-.0967.3309.3309,0,0,1-.1382-.2905.4761.4761,0,0,1,.08-.291.738.738,0,0,1,.2407-.1963,3.7441,3.7441,0,0,1,.3989-.1856c.1582-.0644.3433-.1484.5533-.2519.0371-.0186.0952-.0488.1748-.0913s.17-.0923.2739-.1494.2109-.1182.3237-.1826.22-.1255.3213-.1832.1929-.1083.2739-.1547.1382-.08.1719-.1026c.11-.07.2173-.1347.3208-.1938s.1983-.1094.2852-.1519.1616-.0757.2241-.1a.4461.4461,0,0,1,.144-.0356.51.51,0,0,1,.4761.31,1.088,1.088,0,0,1,.1494.4927.5432.5432,0,0,1-.166.36q-.1275.5478-.2353,1.0908t-.2076,1.1294q-.0945.5589-.1411,1.03t-.0469.8247q0,.0666-.0083.2549c-.0058.1255-.0083.2544-.0083.3872.1143-.0181.2593-.0489.4346-.0913s.3506-.0874.5259-.1358.3359-.0913.4814-.13.2447-.062.2964-.0693c.1289-.0181.2676-.0322.4151-.0415s.3081-.0137.4819-.0137c.0625.1255.1108.2261.144.3018A.5429.5429,0,0,1,18.9018,48.8036Z" transform="translate(0 0)"/><path class="cls-7" d="M27.6377,46.2236a2.7336,2.7336,0,0,1-.4868,1.478,5.1235,5.1235,0,0,1-.54.6865,6.6668,6.6668,0,0,1-.6948.648,8.8605,8.8605,0,0,1-.7612.5478,7.6463,7.6463,0,0,1-.8223.46,6.1889,6.1889,0,0,1-.7974.3208,4.4712,4.4712,0,0,1-.73.1718q-.4154.0609-.7256.0914t-.5259.03a1.9956,1.9956,0,0,1-.8579-.1743,1.7773,1.7773,0,0,1-.62-.4731,2.0657,2.0657,0,0,1-.3765-.6949,2.7229,2.7229,0,0,1-.1274-.8388,4.7372,4.7372,0,0,1,.2768-1.5059,6.0748,6.0748,0,0,1,.3238-.7671,6.6316,6.6316,0,0,1,.44-.7446,4.955,4.955,0,0,1,.501-.6367,5.2752,5.2752,0,0,1,.5508-.5147,7.8705,7.8705,0,0,1,.6645-.4707,6.8705,6.8705,0,0,1,.72-.3984,4.0143,4.0143,0,0,1,.7388-.28,2.8369,2.8369,0,0,1,.7173-.0913,2.4234,2.4234,0,0,1,.5727.0718,4.0608,4.0608,0,0,1,.59.1938,3.6029,3.6029,0,0,1,.4814.2549q.238.1494.4346.2959c.1313.0981.2417.1885.3325.2715a1.9827,1.9827,0,0,1,.18.18,2.2559,2.2559,0,0,1,.41.8139A3.9538,3.9538,0,0,1,27.6377,46.2236Zm-1.3233.166a2.1916,2.1916,0,0,0-.0273-.3155c-.0186-.122-.0425-.2407-.0723-.3574s-.0605-.2221-.0937-.3183a.6072.6072,0,0,0-.1-.1993c-.0366-.0478-.084-.104-.1411-.1689s-.1182-.13-.1826-.1963-.129-.1308-.1939-.1938-.1245-.1162-.18-.1607a.7626.7626,0,0,1-.41.0943.2589.2589,0,0,1-.1138-.0362c-.0459-.0239-.0938-.0512-.1436-.083s-.0981-.0591-.144-.083a.264.264,0,0,0-.1079-.0361,2.4391,2.4391,0,0,0-.479.042,1.6448,1.6448,0,0,0-.3931.13,2.0472,2.0472,0,0,0-.3711.2325q-.1852.1443-.4126.3432a6.2256,6.2256,0,0,0-1.24,1.4785A3.0819,3.0819,0,0,0,21.022,48.2a2.6334,2.6334,0,0,0,.019.31,2.0931,2.0931,0,0,0,.0581.2988,1.56,1.56,0,0,0,.0889.2437.354.354,0,0,0,.1162.1494,1.6842,1.6842,0,0,0,.9082.2549,1.9122,1.9122,0,0,0,.57-.0972,4.819,4.819,0,0,0,.6314-.249,6.8128,6.8128,0,0,0,.6255-.3379q.3046-.1854.5537-.357.1274-.0885.3017-.2241t.3653-.3076q.1911-.1715.3794-.3623a3.9944,3.9944,0,0,0,.3378-.3877,2.3954,2.3954,0,0,0,.2437-.3877A.8126.8126,0,0,0,26.3144,46.39Z" transform="translate(0 0)"/><path class="cls-7" d="M22.7991,16.0805a.882.882,0,0,1-.0386.23,2.7476,2.7476,0,0,1-.1055.2958q-.16.3823-.2881.7144c-.0844.2212-.1513.41-.1992.5645q-.1157.3822-.3017,1.0546t-.4234,1.6363q-.0277.1164-.05.2768a2.37,2.37,0,0,0-.022.3208q0,.9581-.57.958a.5923.5923,0,0,1-.5429-.2436,1.131,1.131,0,0,1-.0938-.1856,1.7677,1.7677,0,0,1-.0747-.2187q-.0307-.1105-.05-.2158a1,1,0,0,1-.02-.1826,1.2007,1.2007,0,0,1,.0415-.26c.0278-.1143.0625-.2446.105-.39s.0913-.3008.1469-.4654.1089-.3257.1607-.4843.1-.3072.1435-.4458.08-.2535.1055-.3457q-.1773.1047-.3711.2045t-.3848.1827q-.1911.0834-.3623.144a2.3649,2.3649,0,0,1-.3047.0889,5.5089,5.5089,0,0,1-1.0019.1049,1.2216,1.2216,0,0,1-.5181-.1162,1.5844,1.5844,0,0,1-.4512-.313,1.5471,1.5471,0,0,1-.3208-.4619,1.3363,1.3363,0,0,1-.122-.5649,2.137,2.137,0,0,1,.3047-1.085,2.6457,2.6457,0,0,1,.313-.4262q.1743-.1941.3681-.3711.3706-.3267,1.0352-.8028a1.033,1.033,0,0,1,.1992-.1025q.1384-.0579.3213-.1216t.393-.1221q.21-.0577.4151-.1049c.1367-.0313.2656-.0572.3877-.0777a1.9643,1.9643,0,0,1,.31-.03,1.7071,1.7071,0,0,1,.4126.0439,1.3876,1.3876,0,0,1,.3208.1245,1.7927,1.7927,0,0,1,.2823.1939q.1362.1134.291.2578c.018.0185.0342.0342.0469.0468a.5269.5269,0,0,0,.0468.0415,2.6047,2.6047,0,0,1,.3213.26,1.039,1.039,0,0,1,.0664.1357,1.5638,1.5638,0,0,1,.0723.2242Zm-1.3677.1162a.4547.4547,0,0,0-.1275-.1524.65.65,0,0,0-.1713-.0913.9121.9121,0,0,0-.1939-.0444,1.7693,1.7693,0,0,0-.1938-.0107,4.1269,4.1269,0,0,0-.418.019,1.7248,1.7248,0,0,0-.36.0776,2.0868,2.0868,0,0,0-.3569.1607,3.3221,3.3221,0,0,0-.4043.2739q-.1326.1055-.3071.2686a3.5583,3.5583,0,0,0-.33.3544,2.5591,2.5591,0,0,0-.26.3848.7653.7653,0,0,0-.105.36.637.637,0,0,0,.1661.4541.5651.5651,0,0,0,.4316.1772,1.4978,1.4978,0,0,0,.396-.0669,4.26,4.26,0,0,0,.4985-.1767q.263-.1113.523-.252a4.5405,4.5405,0,0,0,.4707-.291,1.9211,1.9211,0,0,0,.23-.1826.91.91,0,0,0,.125-.1441.5982.5982,0,0,0,.0664-.13q.0219-.0638.05-.1465Z" transform="translate(0 0)"/><path class="cls-7" d="M50.9988,44.7731a.6662.6662,0,0,1-.1245.3213,4.0587,4.0587,0,0,1-.2935.4067q-.1692.2081-.3462.3877t-.2822.2686c-.0186.0107-.0537.0342-.105.0688s-.1108.0748-.1772.1192-.1367.0913-.2105.1411-.1421.0972-.205.1411-.1163.0816-.16.1109a.7914.7914,0,0,0-.0776.0556q.1383.066.2876.1494a2.0779,2.0779,0,0,1,.2768.1826,4.01,4.01,0,0,1,.4126.3682,3.1016,3.1016,0,0,1,.3184.3818,1.9411,1.9411,0,0,1,.2075.3765.9686.9686,0,0,1,.0747.3628c0,.0776-.0044.1641-.0137.26a2.352,2.352,0,0,1-.0469.2905,1.7865,1.7865,0,0,1-.0859.2768.7732.7732,0,0,1-.1357.2242,1.0807,1.0807,0,0,1-.2906.2246,3.33,3.33,0,0,1-.4345.2016,5.1685,5.1685,0,0,1-.5205.169q-.2769.0747-.5425.1245a4.977,4.977,0,0,1-.8862.1,3.2605,3.2605,0,0,1-.4761-.0415q-.2769-.0411-.5532-.11a4.6552,4.6552,0,0,1-.5123-.1582,1.176,1.176,0,0,1-.3515-.1879,1.1622,1.1622,0,0,1-.3657-.9136,1.6163,1.6163,0,0,1,.0166-.2437.7937.7937,0,0,1,.0693-.2158,1.8091,1.8091,0,0,1,.147-.2466c.0625-.09.1455-.2016.249-.3349a2.26,2.26,0,0,1,.3848-.39,5.0088,5.0088,0,0,1,.4511-.3237c.0518-.0371.0948-.0654.13-.0859s.0694-.04.1026-.0581.0693-.0406.1079-.0665.0879-.0629.1469-.1108q-.3324-.1773-.6118-.3433a3.1287,3.1287,0,0,1-.4458-.31,1.5983,1.5983,0,0,1-.2158-.2437,2.6781,2.6781,0,0,1-.1992-.31,2.267,2.267,0,0,1-.1441-.31.7351.7351,0,0,1-.0556-.2436,1.0678,1.0678,0,0,1,.1772-.6114,2.15,2.15,0,0,1,.4541-.4819,4.493,4.493,0,0,1,.6148-.4043q.3376-.1853.6533-.3735a2.42,2.42,0,0,1,1.251-.31,1.1932,1.1932,0,0,1,.3515.0718,3.73,3.73,0,0,1,.4375.1772,3.3733,3.3733,0,0,1,.3985.2246.8388.8388,0,0,1,.2407.2129.9036.9036,0,0,1,.0835.1885,2.5094,2.5094,0,0,1,.0718.2764l.0112.1665.0439-.05c.0259-.03.0547-.0611.086-.0943s.0591-.0639.083-.0913.0381-.0434.0415-.0473a.7371.7371,0,0,1,.2822.1333.5075.5075,0,0,1,.1441.18.5768.5768,0,0,1,.0527.1938C50.9959,44.6633,50.9988,44.7214,50.9988,44.7731ZM49.3269,48.66a.5153.5153,0,0,0-.0722-.2436,1.6316,1.6316,0,0,0-.18-.2632,2.3128,2.3128,0,0,0-.2354-.2437,2.6085,2.6085,0,0,0-.2383-.1909c-.0923-.0625-.1723-.1162-.2407-.1606a1.2534,1.2534,0,0,0-.1963-.105q-.1992.1384-.4487.3433a5.5465,5.5465,0,0,0-.4678.4316,3.26,3.26,0,0,0-.3681.4512.7545.7545,0,0,0-.1495.4072.18.18,0,0,0,.0777.144.6044.6044,0,0,0,.1826.0967,1.4116,1.4116,0,0,0,.2129.0552.9835.9835,0,0,0,.1636.02c.0883,0,.2-.0034.3349-.0112s.2739-.0181.418-.0332.28-.0322.41-.0522a2.41,2.41,0,0,0,.3046-.064.8043.8043,0,0,0,.0855-.044q.0586-.0336.1245-.0776c.0444-.03.0889-.06.1333-.0913a1.3787,1.3787,0,0,0,.11-.0859.2871.2871,0,0,0,.039-.1719Zm.0664-3.6875a.7023.7023,0,0,0-.0747-.3237.808.808,0,0,0-.1992-.2519.9368.9368,0,0,0-.2827-.1631.92.92,0,0,0-.3237-.0586,1.2027,1.2027,0,0,0-.3267.0722,3.5142,3.5142,0,0,0-.4678.1939,3.2,3.2,0,0,0-.4707.2851,1.2294,1.2294,0,0,0-.3349.3457.2079.2079,0,0,0-.05.0943.504.504,0,0,0,.1441.3266,1.8847,1.8847,0,0,0,.3486.31,1.5651,1.5651,0,0,1,.1856.1133c.0717.05.1469.1006.2241.1523l.2241.1494c.0723.0484.1323.085.18.1109q.1941-.1664.4067-.3433t.396-.354a2.4612,2.4612,0,0,0,.3018-.3462A.5536.5536,0,0,0,49.3933,44.9723Z" transform="translate(0 0)"/><path class="cls-7" d="M51.5247,15.1674a.897.897,0,0,1-.0142.16.2868.2868,0,0,1-.0581.1329q-.0777.1054-.1743.2246c-.0645.0791-.13.1587-.1968.2378s-.1328.1572-.1992.2324-.1255.145-.1773.208c-.0664.0771-.1455.1816-.2377.3125s-.1885.2715-.2881.4209-.1973.2973-.2935.4429-.1787.2724-.249.3793q-.1992.2989-.4292.6919t-.4346.8252c-.0517.11-.0932.1983-.1245.2627s-.0561.1162-.0747.1553-.0322.0684-.0415.0884-.0176.0381-.0249.0527q-.1106.2322-.1992.4234t-.1494.3628a2.4256,2.4256,0,0,0-.0943.332,1.6448,1.6448,0,0,0-.0332.332.868.868,0,0,1-.0386.25.6687.6687,0,0,1-.125.2324.646.646,0,0,1-.2182.1714.7107.7107,0,0,1-.3213.0664.5733.5733,0,0,1-.313-.0854.8041.8041,0,0,1-.227-.2158,1.0117,1.0117,0,0,1-.1382-.2827.97.97,0,0,1-.0469-.2852,2.6263,2.6263,0,0,1,.293-.8359q.3874-.8189.8056-1.6192a14.3963,14.3963,0,0,1,.9331-1.542q.1217-.1772.2657-.3794t.2934-.4013q.1494-.1992.3018-.3848t.2851-.3184c-.0556.004-.1562.0083-.3017.0137s-.32.0132-.5235.0225-.4272.0195-.6723.03-.4937.0214-.7447.0307-.4975.0191-.7392.03-.4614.0205-.6587.0278-.3648.0127-.501.0166-.2256.0054-.2661.0054a.4371.4371,0,0,1-.2187-.0552.5749.5749,0,0,1-.1631-.1387.6291.6291,0,0,1-.1026-.1826.5692.5692,0,0,1-.0356-.1938.4955.4955,0,0,1,.0552-.2188.8056.8056,0,0,1,.1464-.2075.8211.8211,0,0,1,.2081-.1548.49.49,0,0,1,.2324-.061q.0329,0,.1963.0054c.1088.0039.24.0092.393.0166s.3184.0146.4956.0224.3462.0147.5069.022.3017.0127.4233.0166.2031.0054.2437.0054c.1474,0,.3144-.0015.5009-.0054s.3814-.0112.584-.022.41-.0244.62-.039.4136-.0332.6089-.0552q.2271-.0279.4405-.0444t.479-.0166a.5953.5953,0,0,1,.3847.122A.4331.4331,0,0,1,51.5247,15.1674Z" transform="translate(0 0)"/><path class="cls-7" d="M79.9654,47.8263a1.1839,1.1839,0,0,1-.1079.4927,2.0252,2.0252,0,0,1-.2906.457,3.2924,3.2924,0,0,1-.4184.4151,6.0013,6.0013,0,0,1-.4927.3711q-.2571.1743-.5147.3237t-.4843.2715a2.5348,2.5348,0,0,1-.7974.2378,8.2142,8.2142,0,0,1-1.1846.083,3.2668,3.2668,0,0,1-.4985-.0332q-.216-.033-.3711-.0718a1.8228,1.8228,0,0,1-.5893-.2656,2.9628,2.9628,0,0,1-.5484-.4678,2.6542,2.6542,0,0,1-.4038-.5732,1.2714,1.2714,0,0,1-.1582-.5869,4.9735,4.9735,0,0,1,.0581-.7974,3.608,3.608,0,0,1,.18-.6782,4.4329,4.4329,0,0,1,.3017-.6392q.18-.3156.418-.6758a4.9991,4.9991,0,0,1,.3071-.4013q.1971-.2352.4488-.5064t.54-.5591q.2878-.2878.5816-.5537a2.7257,2.7257,0,0,1,.6391-.4345,1.5591,1.5591,0,0,1,.6895-.169.7259.7259,0,0,1,.4814.166.5376.5376,0,0,1,.2329.4322.5536.5536,0,0,1-.13.41.7138.7138,0,0,1-.39.1714,1.7947,1.7947,0,0,0-.6865.26A3.877,3.877,0,0,0,76.148,45a6.9867,6.9867,0,0,0-.584.6391q-.2827.3494-.5537.6978a2.1959,2.1959,0,0,0-.2324.3984,4.0042,4.0042,0,0,0-.1939.5039,4.6691,4.6691,0,0,0-.1328.5288,2.5686,2.5686,0,0,0-.05.4737,1.053,1.053,0,0,0,.0273.2544.8224.8224,0,0,0,.0694.1884.6548.6548,0,0,0,.083.1246.597.597,0,0,0,.0693.0688.7466.7466,0,0,0,.0664.0474.389.389,0,0,1,.0664.0527,4.6138,4.6138,0,0,1,.0581-.6147,1.6955,1.6955,0,0,1,.1578-.4927,3.9869,3.9869,0,0,1,.3681-.59,2.8633,2.8633,0,0,1,.418-.4453,2.1016,2.1016,0,0,1,.4653-.2964,2.6358,2.6358,0,0,1,.5591-.1855,6.2584,6.2584,0,0,1,1.3511-.1216,1.8513,1.8513,0,0,1,.6557.1216,1.98,1.98,0,0,1,.5787.3349,1.7247,1.7247,0,0,1,.4125.504A1.31,1.31,0,0,1,79.9654,47.8263Zm-1.5391.5039a1.59,1.59,0,0,0,.2627-.3212.8418.8418,0,0,0,.1191-.2935.8121.8121,0,0,0-.2656-.2187,1.449,1.449,0,0,0-.31-.1133,1.6054,1.6054,0,0,0-.3184-.0445q-.1575-.0051-.2852-.0053a1.89,1.89,0,0,0-.7724.144,1.4561,1.4561,0,0,0-.54.4043,1.87,1.87,0,0,0-.3349.6255,3.425,3.425,0,0,0-.1524.814c.1035.0073.1983.0136.2852.019s.17.0083.2519.0083a1.9892,1.9892,0,0,0,.2378-.0137,1.7574,1.7574,0,0,0,.2412-.0468,2.1393,2.1393,0,0,0,.2686-.0943,3.4842,3.4842,0,0,0,.3154-.1553,5.15,5.15,0,0,0,.5176-.3208A4.5879,4.5879,0,0,0,78.4263,48.33Z" transform="translate(0 0)"/><path class="cls-7" d="M80.5879,15.2226a.4694.4694,0,0,1-.0664.2129,1.3544,1.3544,0,0,1-.4038.457.7126.7126,0,0,1-.2661.1216,3.4112,3.4112,0,0,1-.5034.0722q-.2886.022-.6533.022c-.0332,0-.1231-.0029-.2686-.0083s-.312-.0117-.4985-.02-.3726-.0137-.5591-.0191-.3369-.0083-.4512-.0083q-.3376,0-.667.0249a2.6374,2.6374,0,0,0-.5346.0855q-.0937.0945-.1827.1968t-.188.2324q-.1.13-.2158.2988t-.2661.396a1.5764,1.5764,0,0,0,.36.1025q.2269.0418.479.0777t.4985.0688a3.514,3.514,0,0,1,.4121.0777,5.08,5.08,0,0,1,.9219.2436,2.0192,2.0192,0,0,1,.65.3877,1.4707,1.4707,0,0,1,.3877.5757,2.3123,2.3123,0,0,1,.1274.814,1.2351,1.2351,0,0,1-.1079.4926,2.467,2.467,0,0,1-.28.4815,2.9,2.9,0,0,1-.3877.4292,3.0857,3.0857,0,0,1-.4262.33,7.0282,7.0282,0,0,1-.6338.3652,4.1534,4.1534,0,0,1-.6226.2549,3.9854,3.9854,0,0,1-.6562.1465,5.4,5.4,0,0,1-.7334.0468,3.9606,3.9606,0,0,1-1.0576-.13,2.902,2.902,0,0,1-.9024-.4346c-.0517-.0371-.1025-.0737-.1523-.1108a.8966.8966,0,0,1-.1328-.1192.4963.4963,0,0,1-.0914-.1382.4067.4067,0,0,1-.0332-.1689q0-.6694.8526-.67a.5766.5766,0,0,1,.249.0551,1.5221,1.5221,0,0,1,.26.1665,2.3853,2.3853,0,0,0,.5815.2491,2.202,2.202,0,0,0,.5757.0776,2.57,2.57,0,0,0,.6118-.083,4.1685,4.1685,0,0,0,.6587-.2246,3.2449,3.2449,0,0,0,.5952-.335,1.577,1.577,0,0,0,.415-.415.3472.3472,0,0,0,.0333-.1885.8815.8815,0,0,0-.15-.5283,1.0958,1.0958,0,0,0-.396-.335,2.0722,2.0722,0,0,0-.559-.1885q-.3127-.0607-.6421-.0942t-.648-.0522q-.3178-.02-.5674-.0581a1.433,1.433,0,0,1-.3462-.1084,1.7791,1.7791,0,0,1-.3266-.188,1.2172,1.2172,0,0,1-.2432-.2325.3952.3952,0,0,1-.0971-.2407.8176.8176,0,0,1,.2324-.4985q.0278-.0389.144-.2046t.3213-.4653q.4263-.6313.7393-1.0078a1.1886,1.1886,0,0,1,.5175-.4263c.0845-.0181.1929-.0347.3238-.05s.2871-.0274.4677-.0386.39-.02.6285-.0278.5083-.0166.811-.0274q.249-.011.4321-.0083c.1216.0015.2388-.0009.3516-.0083s.2285-.0215.3486-.0415a4.11,4.11,0,0,0,.4292-.1025,3.4025,3.4025,0,0,1,.34-.0859,1.227,1.227,0,0,1,.2021-.025,1.2627,1.2627,0,0,1,.2793.0386,1.6142,1.6142,0,0,1,.3159.1109.9545.9545,0,0,1,.2573.1743A.3149.3149,0,0,1,80.5879,15.2226Z" transform="translate(0 0)"/><path class="cls-7" d="M108.7852,47.5444a.3892.3892,0,0,1-.0444.18.5322.5322,0,0,1-.1192.1524.5855.5855,0,0,1-.1689.105.5171.5171,0,0,1-.1992.039.7054.7054,0,0,1-.3487-.0776,2.9585,2.9585,0,0,0-.5815-.144,4.3613,4.3613,0,0,0-.6587-.05H106.41a4.2959,4.2959,0,0,0-.0913.504c-.02.17-.0342.3286-.0415.476-.0034.0777-.0054.15-.0054.2188V49.15q0,.2711.0166.5977a1.6828,1.6828,0,0,1,.1939.26.486.486,0,0,1,.083.1939.5378.5378,0,0,1-.0693.26.8943.8943,0,0,1-.1744.2271.9289.9289,0,0,1-.23.1606.5458.5458,0,0,1-.2408.0606,1.7,1.7,0,0,1-.1855-.0137,1.1265,1.1265,0,0,1-.2432-.0581.8775.8775,0,0,1-.2353-.1274.4618.4618,0,0,1-.1607-.2271,1.6977,1.6977,0,0,1-.083-.5093c0-.0664.0034-.1611.0108-.2851s.0166-.2525.0278-.3872.0215-.2622.03-.3824.0161-.2094.02-.2685q.0109-.21.0332-.4263t.061-.4262a10.588,10.588,0,0,0-1.1074.05,6.1775,6.1775,0,0,0-.8027.1328q-.3933.1-.7559.1577a4.3,4.3,0,0,1-.6836.0581.5381.5381,0,0,1-.1992-.0415,1.2421,1.2421,0,0,1-.2134-.11,1.7024,1.7024,0,0,1-.2075-.1577,1.6319,1.6319,0,0,1-.1772-.1831.9.9,0,0,1,.1245-.2436q.0974-.1435.2436-.3184c.0982-.1162.2085-.2388.3326-.3682s.2519-.2573.3847-.3847.2666-.2515.4014-.3736.2627-.2324.3848-.332q.5646-.4651.9716-.8027t.6919-.5786q.285-.2411.4678-.3931t.2988-.252q.1166-.1.1885-.1552c.0479-.0367.0942-.07.1382-.1.0664-.044.1553-.11.2661-.1963s.2261-.1729.3457-.2578.2344-.1582.3433-.2212a.5755.5755,0,0,1,.2578-.0943.9.9,0,0,1,.4678.1055.322.322,0,0,1,.1743.2876c-.0113.041-.0279.1035-.05.1885s-.0484.1782-.0777.2793-.0591.208-.0884.3183-.0576.2105-.0834.2993q-.1326.4036-.2242.77t-.1523.6889c-.04.2163-.0747.418-.1021.6065s-.0566.3618-.0859.5205q.1715,0,.4316.019c.1739.0132.3692.02.587.02a2.7667,2.7667,0,0,1,.6035.0527.9073.9073,0,0,1,.3545.1523.47.47,0,0,1,.1689.252A1.3563,1.3563,0,0,1,108.7852,47.5444Zm-2.9346-3.0455c-.1142.0923-.2373.1875-.3681.2852s-.26.1968-.3872.2964-.2495.1982-.3658.2959a3.3613,3.3613,0,0,0-.3071.291,3.8314,3.8314,0,0,1-.3017.2876c-.1309.1147-.2735.2354-.4263.3628s-.3071.2529-.4624.3765-.2915.23-.41.3183q.1494-.0168.3628-.0469c.1421-.02.294-.0415.4566-.0639s.3286-.0459.4985-.0718.332-.0488.4868-.0693.2954-.0386.4209-.0552.2251-.0269.2988-.0308q.017-.1047.0391-.2075t.0527-.227c.02-.083.043-.1763.0689-.2793s.0556-.2237.0888-.36Z" transform="translate(0 0)"/><path class="cls-7" d="M108.2952,19.06a1.7608,1.7608,0,0,1-.147.7168,2.4388,2.4388,0,0,1-.39.6172,3.3659,3.3659,0,0,1-.5649.5175,5.0864,5.0864,0,0,1-.6724.418,6.6036,6.6036,0,0,1-.709.3184,6.3366,6.3366,0,0,1-.6782.2187,6.47,6.47,0,0,1-1.6387.2324c-.103,0-.2114-.0019-.3237-.0053s-.2393-.0147-.3794-.0332c-.1548-.0186-.2954-.04-.4209-.0635s-.2417-.0508-.3486-.0806a.69.69,0,0,1-.23-.1191.8073.8073,0,0,1-.1748-.188.8828.8828,0,0,1-.11-.2324.8267.8267,0,0,1-.039-.2466.6241.6241,0,0,1,.1967-.501.8.8,0,0,1,.54-.1689.39.39,0,0,1,.0889.0083.5243.5243,0,0,1,.0664.0224c.0219.0088.0478.021.0776.0357s.0679.0332.1162.0556q.2988.1216.5952.2212a1.8075,1.8075,0,0,0,.5781.1,5.378,5.378,0,0,0,.6368-.0415,5.9492,5.9492,0,0,0,.706-.1274,4.9793,4.9793,0,0,0,.6948-.2212,2.8489,2.8489,0,0,0,.6006-.3237,1.584,1.584,0,0,0,.4209-.4351,1.01,1.01,0,0,0,.1577-.5561.5713.5713,0,0,0-.4482-.6148,4.2694,4.2694,0,0,0-1.3013-.1826,3.35,3.35,0,0,0-1.6606.3931q-.67,0-.67-.3872a.5734.5734,0,0,1,.0136-.1026,1.0084,1.0084,0,0,1,.0445-.1523,1.23,1.23,0,0,1,.0771-.169.7117.7117,0,0,1,.1192-.1577c.0478-.0478.1152-.11.2021-.1855s.1856-.1612.2964-.2574q.1715-.1494.4453-.3652t.5952-.4458q.3216-.23.6646-.4487t.6533-.3789a2.4194,2.4194,0,0,0-.29.0385q-.23.0389-.5454.0943t-.6758.1191q-.36.0638-.6778.1187t-.5566.0913a2.6773,2.6773,0,0,1-.3047.0361,1.2456,1.2456,0,0,1-.83-.249.925.925,0,0,1-.2934-.7476.4343.4343,0,0,1,.1684-.36.6572.6572,0,0,1,.4185-.1328.6443.6443,0,0,1,.1826.0278,1.7345,1.7345,0,0,1,.18.0635c.0571.0239.1128.0488.166.0747s.1006.0483.1411.0664a.6749.6749,0,0,0,.1358.0332,1.1015,1.1015,0,0,0,.1689.0112c.0889,0,.1958-.0044.3213-.0137s.2769-.0224.4541-.039.3838-.0357.62-.0581.5059-.044.8086-.0664c.0366-.0035.09-.0074.1607-.0108s.1484-.0088.2353-.0141.1758-.0113.2681-.0166.1782-.01.2578-.0137.1465-.0073.2022-.0112.09-.0054.1049-.0054q.8694,0,.8692.5869a.7255.7255,0,0,1-.0635.3125.8407.8407,0,0,1-.2051.2632,2.7272,2.7272,0,0,1-.3569.2656q-.2161.1385-.5259.3267-.2051.1215-.418.2383t-.4043.2241q-.1911.1077-.3515.2187a1.738,1.738,0,0,0-.2715.2271c.0483-.0039.1064-.0093.1748-.0166s.1411-.0157.2183-.0249.1562-.0176.2353-.0249.1524-.0113.2188-.0113a4.5118,4.5118,0,0,1,.9082.0884,2.3156,2.3156,0,0,1,.7583.291,1.5466,1.5466,0,0,1,.52.5259A1.5135,1.5135,0,0,1,108.2952,19.06Z" transform="translate(0 0)"/><path class="cls-7" d="M137.1178,49.321a.947.947,0,0,1-.0777.3266.4658.4658,0,0,1-.1523.1826,1.2337,1.2337,0,0,1-.274.1578,1.8536,1.8536,0,0,1-.3652.1108,2.1653,2.1653,0,0,1-.4321.0415q-.2711,0-.4732-.0137a1.6067,1.6067,0,0,1-.3349-.0527,4.1607,4.1607,0,0,0-.4234-.0913q-.2467-.0417-.5234-.0693c-.1846-.0181-.373-.0332-.5645-.044s-.3764-.0166-.5537-.0166q-.2328,0-.5371.022a5.6185,5.6185,0,0,0-.6089.0776,3.9954,3.9954,0,0,0-.5678.1441,1.185,1.185,0,0,0-.4121.2212,2.1906,2.1906,0,0,0-.2.2021.9852.9852,0,0,1-.1661.1577.5662.5662,0,0,1-.1963.0943,1.1058,1.1058,0,0,1-.2905.0332q-.6262,0-.626-.5259a1.2745,1.2745,0,0,1,.0806-.46,1.5223,1.5223,0,0,1,.2188-.3906,2.2228,2.2228,0,0,1,.3154-.3321,4.0068,4.0068,0,0,1,.3652-.28q.2769-.1883.6065-.3789t.667-.396q.3376-.2052.6616-.4263a6.2833,6.2833,0,0,0,.5952-.46q.2271-.1992.3818-.3491t.2686-.2656c.0757-.0777.1391-.1475.1909-.21s.1-.1216.144-.1772q.1275-.1656.2437-.3238a3.2177,3.2177,0,0,0,.2051-.3125,1.867,1.867,0,0,0,.1411-.3076.9322.9322,0,0,0,.0522-.3071.8992.8992,0,0,0-.08-.3765,1,1,0,0,0-.2242-.313,1.0829,1.0829,0,0,0-.3486-.2158,1.2425,1.2425,0,0,0-.4541-.08,1.7991,1.7991,0,0,0-.7422.31q-.1771.1047-.3237.2046c-.0977.0664-.188.1323-.2715.1968a2.742,2.742,0,0,0-.2324.2021c-.0718.07-.1431.1455-.2129.2266a1.0271,1.0271,0,0,1-.1441.1387.6571.6571,0,0,1-.1635.0913.8417.8417,0,0,1-.21.05,2.4757,2.4757,0,0,1-.28.0136.3349.3349,0,0,1-.2187-.0854.812.812,0,0,1-.1743-.2051,1.1648,1.1648,0,0,1-.1138-.249.7449.7449,0,0,1-.0415-.2134.37.37,0,0,1,.0473-.1938.6135.6135,0,0,1,.1441-.1548,2.8975,2.8975,0,0,1,.2378-.169q.1413-.0915.33-.2241.2767-.1992.5063-.3569t.44-.28a4.4734,4.4734,0,0,1,.415-.2134,3.9719,3.9719,0,0,1,.4375-.1631,2.1993,2.1993,0,0,1,.4292-.08q.252-.0249.5674-.0249a1.7184,1.7184,0,0,1,.7583.1826,2.6614,2.6614,0,0,1,.6782.47,2.4541,2.4541,0,0,1,.4873.645,1.5362,1.5362,0,0,1,.1855.7114,2.4727,2.4727,0,0,1-.0556.4849,1.8318,1.8318,0,0,1-.249.5893q-.1714.2827-.39.584t-.4624.5786a6.0248,6.0248,0,0,1-.5786.5674q-.3237.28-.6807.5318t-.728.4677q-.3713.2161-.7256.3877a2.8689,2.8689,0,0,1,.4014-.0722q.2351-.0272.5068-.05t.562-.03c.1934-.0054.3829-.0083.5674-.0083a3.8879,3.8879,0,0,1,.4287.0249q.2249.0249.4458.0527c.1475.0186.2915.0357.4322.0523a3.3064,3.3064,0,0,0,.3872.0249,1.2121,1.2121,0,0,0,.2412-.022q.1077-.0219.2016-.0469c.063-.0166.1231-.0322.18-.0473a.7448.7448,0,0,1,.1856-.022.3937.3937,0,0,1,.1992.0581.7223.7223,0,0,1,.1743.1411.8929.8929,0,0,1,.1221.1719A.3413.3413,0,0,1,137.1178,49.321Z" transform="translate(0 0)"/><path class="cls-7" d="M136.6556,20.4628a.3826.3826,0,0,1-.1885.3872q-.1552.0724-.3017.125c-.0977.0347-.1993.0654-.3042.0913s-.2154.05-.33.0718-.2383.0425-.3711.061q-.2937.0439-.5977.1a3.6823,3.6823,0,0,0-.57.1494l.0166.2159q0,.4372-.9355.4375a.2541.2541,0,0,1-.1524-.05.9077.9077,0,0,1-.2134-.2159q-.0328-.05-.05-.05a.9137.9137,0,0,0-.2129.044q-.1522.0447-.3266.1t-.335.1084a1.6256,1.6256,0,0,1-.2383.0635,5.2,5.2,0,0,1-.5786.1548,2.2133,2.2133,0,0,1-.4126.05.8483.8483,0,0,1-.332-.0606.7413.7413,0,0,1-.2354-.1523.6921.6921,0,0,1-.1381-.191.4345.4345,0,0,1-.0474-.1826.3922.3922,0,0,1,.1221-.291,1.0269,1.0269,0,0,1,.33-.2046,3.0933,3.0933,0,0,1,.4843-.1494q.2769-.0638.5923-.1191.282-.0557.5923-.1221a4.03,4.03,0,0,0,.5757-.166q.0277-.2878.0444-.5786t.0445-.4951q.0387-.3216.0913-.6895t.1108-.7393q.0579-.37.1162-.7168t.1021-.6147c.03-.1787.0547-.3247.0752-.437s.0322-.1763.0356-.1914a2.6282,2.6282,0,0,0-.2461.13c-.1055.061-.2178.1254-.3379.1938s-.2373.1353-.3515.2017-.21.1186-.2881.1552q-.0777.0389-.2241.0943t-.3208.105q-.175.05-.3516.083a1.7147,1.7147,0,0,1-.3159.0332.5377.5377,0,0,1-.3155-.0967.3312.3312,0,0,1-.1381-.2905.4766.4766,0,0,1,.08-.2911.7383.7383,0,0,1,.2408-.1962,3.7349,3.7349,0,0,1,.3989-.1856c.1582-.0644.3432-.1484.5532-.2519.0371-.0186.0952-.0489.1748-.0914s.17-.0922.2739-.1494.211-.1181.3238-.1826.22-.1255.3213-.1831.1928-.1084.2739-.1548.1382-.08.1719-.1025c.11-.07.2172-.1348.3208-.1939s.1982-.1093.2851-.1518.1616-.0757.2241-.1a.4474.4474,0,0,1,.1441-.0357.5107.5107,0,0,1,.4761.31,1.0877,1.0877,0,0,1,.1494.4927.5429.5429,0,0,1-.166.36q-.1275.5479-.2354,1.0909t-.2075,1.1293q-.0945.5589-.1411,1.03t-.0469.8247q0,.0667-.0083.2549c-.0059.1255-.0083.2544-.0083.3872.1142-.018.2593-.0488.4346-.0913s.3505-.0874.5258-.1357.336-.0913.4815-.13.2446-.062.2964-.0693c.1289-.0181.2676-.0323.415-.0415s.3081-.0137.4819-.0137c.0625.1255.1109.2261.1441.3017A.5433.5433,0,0,1,136.6556,20.4628Z" transform="translate(0 0)"/><path class="cls-7" d="M56.1992,75.8989a3.6385,3.6385,0,0,0-.61-.7651,11.8749,11.8749,0,0,0-.9883-.8721,4.1443,4.1443,0,0,1-.8574-.8721,1.3069,1.3069,0,0,1-.2471-.7075,1.4811,1.4811,0,0,1,.0581-.4018,2.238,2.238,0,0,1,.1548-.4019,2.2144,2.2144,0,0,1,.2231-.3589,1.3445,1.3445,0,0,1,.271-.271,1.44,1.44,0,0,1,.3491-.184q.2227-.0873.4986-.17t.5913-.16q.315-.0777.6348-.1358.3969-.0768.8037-.1645t.7754-.1743q.3677-.0873.6782-.1695t.4941-.1406c.103-.0454.2227-.0952.3584-.15a1.0168,1.0168,0,0,1,.3779-.082.5155.5155,0,0,1,.3731.1113.5819.5819,0,0,1,.1113.4116.6926.6926,0,0,1-.1162.3487,1.9474,1.9474,0,0,1-.33.3974,3.2621,3.2621,0,0,1-.5229.3975,5.0921,5.0921,0,0,1-.6978.3584,4.3536,4.3536,0,0,1-.46.15c-.1973.0552-.4087.1113-.6348.17s-.457.1147-.6929.1694-.4487.1079-.6391.16-.3457.1-.4654.1455-.1826.084-.1889.1162q0,.0388.0776.1113c.0518.0484.1128.1016.1841.16s.147.1182.2275.18.15.1113.2085.15A8.6264,8.6264,0,0,1,57.3716,74.33,5.6581,5.6581,0,0,1,58.21,75.55a5.8117,5.8117,0,0,1,.499,1.4434,8.4558,8.4558,0,0,1,.1645,1.7343,5.4685,5.4685,0,0,1-.1308,1.1577,8.0145,8.0145,0,0,1-.3584,1.1968,7.9176,7.9176,0,0,1-.5425,1.1333,5.9791,5.9791,0,0,1-.6929.9693,4.787,4.787,0,0,1-.7651.7021,5.5148,5.5148,0,0,1-.8916.5381,4.9983,4.9983,0,0,1-.9492.3437,3.8785,3.8785,0,0,1-.94.1211,1.8382,1.8382,0,0,1-.8139-.1743,2.1682,2.1682,0,0,1-.63-.46,2.6865,2.6865,0,0,1-.4551-.6538,4.78,4.78,0,0,1-.3-.751,5.0186,5.0186,0,0,1-.1694-.751,4.5678,4.5678,0,0,1-.0537-.6489,6.0407,6.0407,0,0,1,.165-1.3809,7.883,7.883,0,0,1,.45-1.3564,7.9783,7.9783,0,0,1,.6734-1.2354,6.0184,6.0184,0,0,1,.8383-1.0122,3.9975,3.9975,0,0,1,.9444-.6831,2.16,2.16,0,0,1,.9882-.2519,1.3057,1.3057,0,0,1,.6783.184Zm.2905.8721a1.884,1.884,0,0,0-1.0078.2808,3.2775,3.2775,0,0,0-.8183.727,5.0265,5.0265,0,0,0-.63.9976,9.0677,9.0677,0,0,0-.4458,1.0952,7.5411,7.5411,0,0,0-.2661,1.0268,4.6483,4.6483,0,0,0-.0874.7847,3.2643,3.2643,0,0,0,.1645,1.1626q.1649.4167.3975.4165a1.1881,1.1881,0,0,0,.5327-.1548,3.5542,3.5542,0,0,0,.6055-.4018,4.6029,4.6029,0,0,0,.5815-.5669,4.149,4.149,0,0,0,.46-.64,7.8092,7.8092,0,0,0,.6445-1.4482,4.7923,4.7923,0,0,0,.2373-1.4873,4.951,4.951,0,0,0-.1357-1.3565Q56.5866,76.7713,56.49,76.771Z" transform="translate(0 0)"/><path class="cls-7" d="M76.9526,78.5537a6.24,6.24,0,0,1-.5429.95,13.8464,13.8464,0,0,1-.9834,1.2935,18.8313,18.8313,0,0,1-1.3223,1.4,13.1287,13.1287,0,0,1-1.55,1.2788,9.0267,9.0267,0,0,1-1.6714.935,4.3113,4.3113,0,0,1-1.69.3633,1.2344,1.2344,0,0,1-.688-.1889,1.5712,1.5712,0,0,1-.4844-.5039,2.3742,2.3742,0,0,1-.2861-.7071,3.5107,3.5107,0,0,1-.0918-.7993,4.3325,4.3325,0,0,1,.0337-.46c.0229-.1968.0532-.4214.0923-.6734s.084-.5229.1357-.8139.103-.5874.1548-.8912l.1553-.8335q.0768-.4159.15-.7993t.1211-.707a5.3878,5.3878,0,0,0,.0581-.5571.8424.8424,0,0,0-.2617.0727,1.0273,1.0273,0,0,0-.334.2857,4.2517,4.2517,0,0,0-.4263.6445,12.5359,12.5359,0,0,0-.5474,1.1382q-.194.4459-.4165.93t-.49.9687a10.4979,10.4979,0,0,1-.5908.95,7.4578,7.4578,0,0,1-.7217.8814,4.342,4.342,0,0,1-1.4727,1.0127,4.261,4.261,0,0,1-1.6279.3344,2.3724,2.3724,0,0,1-.9492-.1841,2.2663,2.2663,0,0,1-.7271-.49,2.1838,2.1838,0,0,1-.4648-.7021,2.2864,2.2864,0,0,1-.0776-1.4776,1.1636,1.1636,0,0,1,.2324-.4263.8329.8329,0,0,1,.33-.2275,1.1071,1.1071,0,0,1,.3877-.0679,1.0844,1.0844,0,0,1,.7363.252,1.1218,1.1218,0,0,1,.33.8037.6364.6364,0,0,0,.1162.3394.7006.7006,0,0,0,.2227.1938.7692.7692,0,0,0,.247.0869,1.2235,1.2235,0,0,0,.1792.0195,1.8486,1.8486,0,0,0,1.2451-.707,9.086,9.086,0,0,0,1.4-2.1606q.4168-.8336.7076-1.4243t.5229-1.0127q.233-.4212.4312-.712a3.67,3.67,0,0,1,.4311-.5234,2.4352,2.4352,0,0,1,.9253-.5713,3.4087,3.4087,0,0,1,1.148-.1938,2.652,2.652,0,0,1,.4218.0434,2.1946,2.1946,0,0,1,.5034.15,1.4652,1.4652,0,0,1,.4361.2857.6753.6753,0,0,1,.2085.46,3.2545,3.2545,0,0,1-.063.45q-.063.3442-.16.8384t-.208,1.08q-.1113.5866-.2085,1.187t-.16,1.1577a8.8755,8.8755,0,0,0-.063.9834,7.2453,7.2453,0,0,0,.0288.7266,1.5717,1.5717,0,0,0,.0874.4116.3365.3365,0,0,0,.1455.1841.4686.4686,0,0,0,.2129.0439,1.9124,1.9124,0,0,0,.8574-.2715,7.3175,7.3175,0,0,0,1.1045-.7461q.5962-.4746,1.25-1.1045t1.3032-1.3466q.2614-.2908.5132-.5572t.47-.4746a2.6266,2.6266,0,0,1,.4116-.33.669.669,0,0,1,.3394-.1211.5232.5232,0,0,1,.3584.15.484.484,0,0,1,.1645.3731Z" transform="translate(0 0)"/><path class="cls-7" d="M88.792,78.04a1.6047,1.6047,0,0,1-.5718,1.0274,3.7529,3.7529,0,0,1-.7119.5571,5.22,5.22,0,0,1-.8188.4019,4.9391,4.9391,0,0,1-.8575.247,4.3016,4.3016,0,0,1-.8091.0826,3.2426,3.2426,0,0,1-.455-.0342,3.4768,3.4768,0,0,1-.48-.1016,4.6025,4.6025,0,0,1-.4551-.1553,2.1443,2.1443,0,0,1-.3926-.2031,3.993,3.993,0,0,1-.6635,1.9136,6.7575,6.7575,0,0,1-1.6421,1.6225,5.3031,5.3031,0,0,1-1.8072.8287,8.5061,8.5061,0,0,1-2.1362.2661,1.4268,1.4268,0,0,1-.5718-.1211,2.36,2.36,0,0,1-.5327-.3194,3.2532,3.2532,0,0,1-.47-.4555,3.6852,3.6852,0,0,1-.3779-.5327,2.7688,2.7688,0,0,1-.2471-.5523,1.6753,1.6753,0,0,1-.0869-.499,6.0889,6.0889,0,0,1,.1645-1.4487,6.2057,6.2057,0,0,1,.47-1.2886,8.7066,8.7066,0,0,1,.7314-1.2109q.4263-.5962.9395-1.2256a4.7456,4.7456,0,0,1,.7412-.7168,6.9577,6.9577,0,0,1,.9253-.62,5.9378,5.9378,0,0,1,.9785-.441,2.7732,2.7732,0,0,1,.8916-.1694,6.38,6.38,0,0,1,.78.0483,1.9824,1.9824,0,0,1,1.3906.8233,3.1773,3.1773,0,0,1,.4746,1.0659q.0777.2813.1162.499a.7112.7112,0,0,0,.126.3247,3.2965,3.2965,0,0,0,.32.334,2.3525,2.3525,0,0,0,.4165.3052,2.4372,2.4372,0,0,0,.5137.2231,2.0487,2.0487,0,0,0,.61.087,4.8106,4.8106,0,0,0,.6783-.0484,4.493,4.493,0,0,0,.6489-.1406,3.003,3.003,0,0,0,.5718-.2324,2.0818,2.0818,0,0,0,.4458-.315c.0644-.0644.1225-.1211.1743-.1694a1.2992,1.2992,0,0,1,.1548-.126.5313.5313,0,0,1,.1743-.0776.9275.9275,0,0,1,.2231-.0239.2835.2835,0,0,1,.1841.0629.5854.5854,0,0,1,.1309.15.7872.7872,0,0,1,.082.1841A.6147.6147,0,0,1,88.792,78.04Zm-7.3442.5913q-.1356-.1355-.2955-.31a2.1224,2.1224,0,0,1-.2856-.3975,2.5357,2.5357,0,0,1-.189-.4067,2.63,2.63,0,0,1-.1069-.3828c-.0225-.12-.0386-.229-.0483-.33s-.0176-.189-.024-.2661a1.5429,1.5429,0,0,0-.4121.1357,3.5391,3.5391,0,0,0-.4551.2564,4.9115,4.9115,0,0,0-.4262.3149q-.1992.1649-.3345.3a7.168,7.168,0,0,0-.5039.5767,6.7452,6.7452,0,0,0-.4116.5908q-.189.3054-.3633.64t-.3682.7412a1.9505,1.9505,0,0,0-.1357.378c-.0386.1484-.0728.3051-.1016.47s-.0517.33-.0678.4941-.0245.312-.0245.441a.6475.6475,0,0,0,.0533.2226,1.1622,1.1622,0,0,0,.1406.2568,1.0707,1.0707,0,0,0,.1938.2085.3363.3363,0,0,0,.2129.087q.4461,0,.77-.024a2.8836,2.8836,0,0,0,.6153-.1113,2.6853,2.6853,0,0,0,.581-.2568,6.5307,6.5307,0,0,0,.669-.46,3.7027,3.7027,0,0,0,.6684-.6636,5.1462,5.1462,0,0,0,.5132-.79,4.8516,4.8516,0,0,0,.3345-.7944,2.2812,2.2812,0,0,0,.1211-.6592Z" transform="translate(0 0)"/><path class="cls-7" d="M102.4336,78.1177a.7787.7787,0,0,1-.0967.2856q-.0966.1992-.2715.48t-.4116.61q-.2373.33-.5185.6782-.4454.5427-.9253,1.0947t-1.0025,1.0708q-.5236.5178-1.0757.9736a8.5822,8.5822,0,0,1-1.1333.7945,5.9448,5.9448,0,0,1-1.187.5327,3.9944,3.9944,0,0,1-1.2256.1938,3.1148,3.1148,0,0,1-1.3178-.2373,2.2374,2.2374,0,0,1-.8233-.6445,3.17,3.17,0,0,1-.5039-.9443q-.1845-.5383-.3486-1.1387a1.8216,1.8216,0,0,0-.3345-.7266.5411.5411,0,0,0-.3926-.2036,1.0005,1.0005,0,0,0-.208.0342c-.0937.0225-.1938.0517-.3.0869s-.2119.0762-.3149.1211a1.39,1.39,0,0,0-.2617.1455.2676.2676,0,0,0-.0825.16,2.8131,2.8131,0,0,0-.0582.4219c-.0161.1933-.0288.4521-.0385.7749s-.0147.73-.0147,1.2207a.8951.8951,0,0,1-.0776.3925.727.727,0,0,1-.208.2613.8092.8092,0,0,1-.3052.1455,1.4606,1.4606,0,0,1-.3584.0434,1.1861,1.1861,0,0,1-.5718-.1211.8477.8477,0,0,1-.3486-.3535,1.6173,1.6173,0,0,1-.17-.5669,5.9739,5.9739,0,0,1-.0435-.76q0-.1648.0337-.5381t.0874-.8716q.0536-.4995.126-1.0806t.1548-1.1723q.0827-.5911.16-1.148t.15-1.0078q.0734-.45.1309-.751a1.9385,1.9385,0,0,1,.0972-.3774l-.01.0093a1.1313,1.1313,0,0,1,.1645-.2515,1.2711,1.2711,0,0,1,.2471-.2231,1.38,1.38,0,0,1,.315-.16,1.0472,1.0472,0,0,1,.3584-.063.7938.7938,0,0,1,.4121.1065,1.1853,1.1853,0,0,1,.5083.6152,1.0444,1.0444,0,0,1,.0678.3535,4.3883,4.3883,0,0,1-.1162.8574q-.1164.5479-.271,1.2744-.0783.3392-.1308.5909t-.1021.5522q.1356-.0388.3247-.1016t.4019-.15a4.4461,4.4461,0,0,0,.436-.2081,4.11,4.11,0,0,0,.4263-.2666,2.8525,2.8525,0,0,0,.373-.3584q.1986-.2226.4024-.48t.4018-.5181q.1986-.2614.3731-.4653.1457-.1839.2954-.3389c.1-.103.186-.19.2568-.2617a3.4483,3.4483,0,0,1,.4024-.3438,3.88,3.88,0,0,1,.4409-.2812,2.5257,2.5257,0,0,1,.4355-.189,1.2744,1.2744,0,0,1,.378-.0674,1.3344,1.3344,0,0,1,.499.0869,1.2079,1.2079,0,0,1,.3682.2232.952.952,0,0,1,.228.3.7543.7543,0,0,1,.0771.3193.7019.7019,0,0,1-.063.2666,1.4465,1.4465,0,0,1-.1743.3,1.6294,1.6294,0,0,1-.247.2666.84.84,0,0,1-.2808.1646h.01a2.243,2.243,0,0,0-.6348.3584,4.5025,4.5025,0,0,0-.6348.61q-.145.1656-.3437.3638t-.4214.4018q-.2233.2037-.47.3975a5.4286,5.4286,0,0,1-.4991.3486,1.8788,1.8788,0,0,1,.95,1.3467,6.0993,6.0993,0,0,0,.2085.7217,1.76,1.76,0,0,0,.2612.4941.9394.9394,0,0,0,.3589.2813,1.2248,1.2248,0,0,0,.4985.0918,3.6,3.6,0,0,0,1.4194-.3389,6.1764,6.1764,0,0,0,1.6426-1.124q.3582-.32.7412-.7075t.7652-.7993q.383-.4117.7607-.8331t.7266-.809c.0581-.0645.1225-.1358.1938-.2129a1.7821,1.7821,0,0,1,.2324-.2134,1.3709,1.3709,0,0,1,.2764-.1646.7732.7732,0,0,1,.3242-.0678.4693.4693,0,0,1,.31.0967A.3948.3948,0,0,1,102.4336,78.1177Z" transform="translate(0 0)"/><path class="cls-7" d="M44.5337,100.4463a8.7242,8.7242,0,0,1-.15,1.6328,10.1472,10.1472,0,0,1-1.0127,2.8872,10.4116,10.4116,0,0,1-.7559,1.2158,6.8777,6.8777,0,0,1-2.0879,1.8892,5.72,5.72,0,0,1-1.3032.5571,5.0421,5.0421,0,0,1-1.4048.1987,1.5961,1.5961,0,0,1-.8232-.2421,2.5126,2.5126,0,0,1-.7363-.6929,3.7772,3.7772,0,0,1-.5332-1.085,4.6466,4.6466,0,0,1-.2032-1.4194,7.9462,7.9462,0,0,1,.0918-1.1773,5.589,5.589,0,0,1,.3633-1.2788,7.5206,7.5206,0,0,1,.7608-1.3808,9.9119,9.9119,0,0,1,1.2739-1.4824,5.8163,5.8163,0,0,1,1.0224-.79,7.2293,7.2293,0,0,1,1.0464-.5278,5.67,5.67,0,0,1,.9493-.2954,3.7244,3.7244,0,0,1,.7412-.0923h.0966c.0586,0,.12.0034.1841.01a5.189,5.189,0,0,0-.4116-1.1626,4.5829,4.5829,0,0,0-.5957-.92,2.8828,2.8828,0,0,0-.6978-.61,1.4,1.4,0,0,0-.7265-.2232c-.0713,0-.1519.0035-.2422.01s-.1812.0161-.2715.0293-.1792.0273-.2661.0435a2.1315,2.1315,0,0,0-.228.0532q-.0871.0293-.2227.0679t-.2856.0825c-.1006.0288-.1958.0532-.2862.0722a1.0719,1.0719,0,0,1-.2129.0293.5013.5013,0,0,1-.2421-.0629.8153.8153,0,0,1-.2037-.1548.7712.7712,0,0,1-.1406-.2085.5341.5341,0,0,1-.0532-.2227.5674.5674,0,0,1,.1064-.3149,1.6532,1.6532,0,0,1,.2666-.3052,2.9107,2.9107,0,0,1,.3487-.2715c.126-.084.2407-.1548.3442-.2134a4.0427,4.0427,0,0,1,.8428-.2807,5.4744,5.4744,0,0,1,1.1724-.1065,3.1881,3.1881,0,0,1,1.6084.4649A4.7612,4.7612,0,0,1,43.1,95.5049a7.3018,7.3018,0,0,1,1.0371,2.1221A9.293,9.293,0,0,1,44.5337,100.4463Zm-2.0733.6006q0-.2124-.01-.5523a2.737,2.737,0,0,0-.0874-.6294,4.2948,4.2948,0,0,0-.9492.2471,5.5672,5.5672,0,0,0-.9932.4941,6.0579,6.0579,0,0,0-.93.7168,4.8144,4.8144,0,0,0-.77.9253,8.169,8.169,0,0,0-.5718,1.0367,6.021,6.021,0,0,0-.3247.8867,4.6158,4.6158,0,0,0-.145.7749q-.0343.3633-.0342.7026a2.3829,2.3829,0,0,0,.0386.4068,1.9709,1.9709,0,0,0,.1167.4116,1.1542,1.1542,0,0,0,.189.32.3285.3285,0,0,0,.2563.1309c.1226,0,.2441-.0035.3633-.01a1.575,1.575,0,0,0,.373-.0679,2.1892,2.1892,0,0,0,.417-.1792,3.2433,3.2433,0,0,0,.4942-.3437,5.07,5.07,0,0,0,.7412-.7412,7.7061,7.7061,0,0,0,.6294-.8965,8.9748,8.9748,0,0,0,.5088-.9737,9.8237,9.8237,0,0,0,.3779-.9785,7.0517,7.0517,0,0,0,.2324-.9106A4.392,4.392,0,0,0,42.46,101.0469Z" transform="translate(0 0)"/><path class="cls-7" d="M59.5513,101.793a2.38,2.38,0,0,1,.2905-.2808.5264.5264,0,0,1,.3394-.126.2867.2867,0,0,1,.2612.1211.8551.8551,0,0,1,.0776.4312,2.0792,2.0792,0,0,1-.0918.5766,1.5785,1.5785,0,0,1-.2568.5279q-.2037.2518-.499.5766t-.6543.6783q-.3582.3537-.7554.707t-.79.6733q-.3926.32-.7656.5816a5.1029,5.1029,0,0,1-.6929.4165q-.3778.1838-.6923.31a5.4216,5.4216,0,0,1-.625.208,4.5987,4.5987,0,0,1-.63.1216,5.8121,5.8121,0,0,1-.6978.0386,1.5013,1.5013,0,0,1-.78-.2036,1.84,1.84,0,0,1-.5908-.5718,2.8774,2.8774,0,0,1-.3828-.8862,4.5158,4.5158,0,0,1-.1357-1.148q-.33.3971-.7076.8135t-.78.8091q-.4022.3925-.8042.7363t-.77.6055a4.53,4.53,0,0,1-.6879.4121,1.3433,1.3433,0,0,1-.5523.15,1.9883,1.9883,0,0,1-.8672-.1743,1.7588,1.7588,0,0,1-.5957-.4507,1.8214,1.8214,0,0,1-.3442-.62,2.1778,2.1778,0,0,1-.1113-.6734q0-.1545.0146-.3823c.01-.1518.0239-.3066.0435-.4653s.0434-.315.0727-.47a3.11,3.11,0,0,1,.1016-.4072,7.9,7.9,0,0,1,.4653-1.2158,12.6153,12.6153,0,0,1,.688-1.2593q.3867-.6255.8379-1.2163a11.0969,11.0969,0,0,1,.93-1.0752,7.595,7.595,0,0,1,.9589-.8286,3.5088,3.5088,0,0,1,.9156-.4892,1.6771,1.6771,0,0,1,.3-.1163c.1294-.0385.268-.0742.417-.1064s.292-.0581.4311-.0776a2.5789,2.5789,0,0,1,.334-.0289,1.082,1.082,0,0,1,.46.0967,1.242,1.242,0,0,1,.3682.2617,1.57,1.57,0,0,1,.2661.3682,1.4429,1.4429,0,0,1,.1455.4263,1.4912,1.4912,0,0,1,.3394.0581,1.0823,1.0823,0,0,1,.2954.1357.7245.7245,0,0,1,.2129.2178.5417.5417,0,0,1,.0825.2954,1.5267,1.5267,0,0,1-.0337.2715q-.0343.1743-.0825.3779c-.0322.1358-.0713.2759-.1162.4214s-.0874.2827-.126.4116-.0776.29-.1162.48-.0747.3872-.1069.5908-.0581.4038-.0772.6006-.0293.37-.0293.5186a3.6473,3.6473,0,0,0,.2232,1.4726.7519.7519,0,0,0,.7265.4746,1.777,1.777,0,0,0,.6153-.1455,6.5158,6.5158,0,0,0,.8281-.4018q.4556-.2563.9692-.6055t1.0269-.7607q.5135-.4116,1.0029-.8672T59.5513,101.793Zm-9.7276,2.4028a8.6322,8.6322,0,0,0,.62-.78,11.3624,11.3624,0,0,0,.6348-.998,9.4053,9.4053,0,0,0,.5425-1.1289,6.14,6.14,0,0,0,.3437-1.1626.483.483,0,0,0-.1694-.2954.3994.3994,0,0,0-.2183-.0728,1.3456,1.3456,0,0,0-.455.0874,4.1252,4.1252,0,0,0-.4556.1939,2.6741,2.6741,0,0,0-.625.47,8.087,8.087,0,0,0-.7461.8237q-.3824.48-.7554,1.0513a12.9747,12.9747,0,0,0-.6684,1.143,8.0123,8.0123,0,0,0-.4751,1.1,2.9342,2.9342,0,0,0-.1792.9252,1.8,1.8,0,0,0,.0146.2232,1.3533,1.3533,0,0,0,.0435.2129.5.5,0,0,0,.0776.16.1511.1511,0,0,0,.126.0625.7339.7339,0,0,0,.2954-.145,6.5442,6.5442,0,0,0,.5332-.4072q.3142-.2615.707-.6343T49.8237,104.1958Z" transform="translate(0 0)"/><path class="cls-7" d="M75.0049,102.1128a1.1177,1.1177,0,0,1-.1309.3926,6.1925,6.1925,0,0,1-.4311.7265q-.3.45-.7945,1.08t-1.2212,1.4536q-.4357.4842-.9736.9981a9.3461,9.3461,0,0,1-1.1479.9345,6.5039,6.5039,0,0,1-1.2886.6929,3.7046,3.7046,0,0,1-1.3858.2715,2.6872,2.6872,0,0,1-1.0463-.1841,1.8742,1.8742,0,0,1-.7168-.5185,2.15,2.15,0,0,1-.4165-.8189,3.9613,3.9613,0,0,1-.1358-1.0752q0-.3684.0435-.94a9.636,9.636,0,0,1,.16-1.1529,1.7781,1.7781,0,0,1-.4941.2955,4.8373,4.8373,0,0,1-.7266.2324q-.4167.1017-.92.1841t-1.0757.16a.18.18,0,0,0-.1211.0918.782.782,0,0,0-.0874.1939c-.0224.0742-.042.1518-.0581.2324s-.0307.1567-.0434.228q-.0388.2615-.0825.6006a5.6537,5.6537,0,0,0-.0435.7168,1.7649,1.7649,0,0,1,.02.2954v.373c0,.084-.0034.17-.01.2569a1.3494,1.3494,0,0,1-.0484.2666,2.8058,2.8058,0,0,0-.1211.4018,1.3546,1.3546,0,0,1-.1308.3584.6367.6367,0,0,1-.2666.2569,1.1953,1.1953,0,0,1-.5474.0971,1.2811,1.2811,0,0,1-.5718-.1118.9152.9152,0,0,1-.3486-.29,1.0364,1.0364,0,0,1-.1694-.4116,2.5541,2.5541,0,0,1-.0435-.4746q0-.252.019-.4893t.02-.3442a1.8562,1.8562,0,0,1,.0434-.315q.044-.2175.0972-.5039t.0967-.61a4.7218,4.7218,0,0,0,.0434-.6343.1948.1948,0,0,0-.0629-.1406q-.063-.063-.1353-.1407a.8332.8332,0,0,1-.1357-.2031.7392.7392,0,0,1-.063-.33.68.68,0,0,1,.0869-.3632,1.0928,1.0928,0,0,1,.1938-.2374c.0713-.0644.1372-.1225.1988-.1743a.26.26,0,0,0,.1015-.1748q.0388-.3779.0777-.8086t.0727-.8432q.0338-.4116.0679-.79t.063-.6489a2.2878,2.2878,0,0,1,.0771-.3779,2.2262,2.2262,0,0,1,.2085-.5039,1.5935,1.5935,0,0,1,.3633-.441.8109.8109,0,0,1,.5425-.1889.7085.7085,0,0,1,.48.1552,1.1209,1.1209,0,0,1,.2807.3682,1.56,1.56,0,0,1,.1358.44,2.7076,2.7076,0,0,1,.0337.3829,2.52,2.52,0,0,1-.0533.354q-.0534.276-.1113.6538t-.1113.809a6.5832,6.5832,0,0,0-.0532.8091c0,.045-.002.1114-.0049.1983s-.0083.1308-.0147.1308q.5911,0,1.1338-.0434a9.14,9.14,0,0,0,.9927-.1309,4.5647,4.5647,0,0,0,.7754-.2129,1.3889,1.3889,0,0,0,.48-.2812,1.5127,1.5127,0,0,0,.2617-.4116,3.5318,3.5318,0,0,0,.1938-.5523c.0513-.1973.0953-.3989.13-.6055s.06-.3974.0728-.5717a2.4107,2.4107,0,0,1,.0922-.5235,1.21,1.21,0,0,1,.2129-.4165.9833.9833,0,0,1,.3633-.2759,1.3042,1.3042,0,0,1,.543-.102.8876.8876,0,0,1,.4355.0972.781.781,0,0,1,.2813.2612,1.1749,1.1749,0,0,1,.1548.3828,2.1248,2.1248,0,0,1,.0488.46,2.7708,2.7708,0,0,1-.063.5424c-.0425.2066-.0937.4165-.1553.63s-.1274.4229-.1987.63-.1323.394-.1841.5615c-.0322.1035-.0722.2539-.1211.4507s-.0937.4233-.1352.6782-.08.5347-.1118.8379a8.7916,8.7916,0,0,0-.0484.93,3.269,3.269,0,0,0,.063.6929,1.4885,1.4885,0,0,0,.1743.4648.6794.6794,0,0,0,.2617.2568.6967.6967,0,0,0,.3248.0777,2.0287,2.0287,0,0,0,.5712-.0918,3.3748,3.3748,0,0,0,.669-.291,5.8138,5.8138,0,0,0,.7749-.5279,10.507,10.507,0,0,0,.8916-.8042q.3969-.4071.78-.8286t.7314-.8232q.3486-.4021.6636-.7559t.5718-.62a4.5087,4.5087,0,0,1,.455-.4214.5938.5938,0,0,1,.315-.1553.371.371,0,0,1,.228.063.4188.4188,0,0,1,.126.16.6549.6549,0,0,1,.0532.208C75.0015,101.979,75.0049,102.0483,75.0049,102.1128Z" transform="translate(0 0)"/><path class="cls-7" d="M89.47,102.1128a1.1168,1.1168,0,0,1-.1308.3926,6.1959,6.1959,0,0,1-.4312.7265q-.3.45-.7944,1.08t-1.2212,1.4536q-.4358.4842-.9737.9981a9.3461,9.3461,0,0,1-1.1479.9345,6.4983,6.4983,0,0,1-1.2886.6929,3.7037,3.7037,0,0,1-1.3857.2715,2.6874,2.6874,0,0,1-1.0464-.1841,1.875,1.875,0,0,1-.7168-.5185,2.15,2.15,0,0,1-.4165-.8189,3.9653,3.9653,0,0,1-.1357-1.0752q0-.3684.0434-.94a9.6162,9.6162,0,0,1,.16-1.1529,1.7788,1.7788,0,0,1-.4942.2955,4.84,4.84,0,0,1-.7265.2324q-.4168.1017-.92.1841t-1.0757.16a.18.18,0,0,0-.1211.0918.7748.7748,0,0,0-.0874.1939q-.0338.1113-.0581.2324c-.0161.081-.0308.1567-.0435.228q-.0388.2615-.0825.6006a5.6723,5.6723,0,0,0-.0435.7168,1.763,1.763,0,0,1,.02.2954v.373c0,.084-.0035.17-.01.2569a1.3564,1.3564,0,0,1-.0483.2666,2.7931,2.7931,0,0,0-.1211.4018,1.3547,1.3547,0,0,1-.1309.3584.6367.6367,0,0,1-.2666.2569,1.195,1.195,0,0,1-.5474.0971,1.28,1.28,0,0,1-.5717-.1118.9147.9147,0,0,1-.3487-.29,1.0364,1.0364,0,0,1-.1694-.4116,2.5541,2.5541,0,0,1-.0435-.4746q0-.252.0191-.4893t.02-.3442a1.8591,1.8591,0,0,1,.0435-.315q.044-.2175.0971-.5039t.0967-.61a4.7222,4.7222,0,0,0,.0435-.6343.1946.1946,0,0,0-.063-.1406c-.042-.042-.0869-.0889-.1353-.1407a.8332.8332,0,0,1-.1357-.2031.7392.7392,0,0,1-.063-.33.68.68,0,0,1,.0869-.3632,1.0931,1.0931,0,0,1,.1939-.2374c.0713-.0644.1372-.1225.1987-.1743a.26.26,0,0,0,.1016-.1748q.0387-.3779.0776-.8086t.0727-.8432q.0337-.4116.0679-.79t.063-.6489a2.2905,2.2905,0,0,1,.0772-.3779,2.2216,2.2216,0,0,1,.2085-.5039,1.5914,1.5914,0,0,1,.3632-.441.8111.8111,0,0,1,.5425-.1889.7084.7084,0,0,1,.48.1552,1.1226,1.1226,0,0,1,.2808.3682,1.5635,1.5635,0,0,1,.1357.44,2.6927,2.6927,0,0,1,.0337.3829,2.53,2.53,0,0,1-.0532.354q-.0535.276-.1114.6538t-.1113.809a6.603,6.603,0,0,0-.0532.8091c0,.045-.002.1114-.0049.1983s-.0083.1308-.0146.1308q.591,0,1.1337-.0434a9.1362,9.1362,0,0,0,.9927-.1309,4.5647,4.5647,0,0,0,.7754-.2129,1.3889,1.3889,0,0,0,.4795-.2812,1.5127,1.5127,0,0,0,.2617-.4116,3.5319,3.5319,0,0,0,.1939-.5523c.0512-.1973.0952-.3989.13-.6055s.06-.3974.0728-.5717a2.4107,2.4107,0,0,1,.0923-.5235,1.2069,1.2069,0,0,1,.2129-.4165A.9816.9816,0,0,1,81.36,98.94a1.3037,1.3037,0,0,1,.5429-.102.888.888,0,0,1,.4356.0972.7807.7807,0,0,1,.2812.2612,1.1727,1.1727,0,0,1,.1548.3828,2.1248,2.1248,0,0,1,.0488.46,2.7708,2.7708,0,0,1-.063.5424q-.0636.31-.1552.63t-.1988.63q-.1062.31-.184.5615c-.0323.1035-.0723.2539-.1211.4507s-.0938.4233-.1353.6782-.08.5347-.1118.8379a8.8185,8.8185,0,0,0-.0483.93,3.27,3.27,0,0,0,.0629.6929,1.486,1.486,0,0,0,.1744.4648.6794.6794,0,0,0,.2617.2568.6966.6966,0,0,0,.3247.0777,2.03,2.03,0,0,0,.5713-.0918,3.3741,3.3741,0,0,0,.6689-.291,5.8138,5.8138,0,0,0,.7749-.5279,10.4917,10.4917,0,0,0,.8916-.8042q.397-.4071.78-.8286t.7315-.8232q.3486-.4021.6635-.7559t.5718-.62a4.5084,4.5084,0,0,1,.4551-.4214.5935.5935,0,0,1,.3149-.1553.3713.3713,0,0,1,.2281.063.42.42,0,0,1,.1259.16.6549.6549,0,0,1,.0532.208C89.4668,101.979,89.47,102.0483,89.47,102.1128Z" transform="translate(0 0)"/><path class="cls-7" d="M105.03,101.1147a1.276,1.276,0,0,1-.1162.4556,5.8336,5.8336,0,0,1-.2764.5718q-.16.29-.3247.5425t-.2612.3779q-.4461.5808-.9693,1.1724t-1.09,1.1284q-.567.5376-1.1529,1.0078a11.5233,11.5233,0,0,1-1.1528.8188,6.406,6.406,0,0,1-1.0952.5474,2.8066,2.8066,0,0,1-.9834.1982,1.7777,1.7777,0,0,1-.76-.1792,2.01,2.01,0,0,1-.6879-.5424,2.9193,2.9193,0,0,1-.4991-.9058,3.7663,3.7663,0,0,1-.1938-1.269,5.3546,5.3546,0,0,1,.0972-.9063q.0966-.547.2226-1.1142t.2568-1.0513q.13-.4842.1988-.7168a3.37,3.37,0,0,1-.3828.2568q-.2088.1209-.4024.2276-1.0173.5039-2.0635.9013a.9292.9292,0,0,1,.46.1792,1.7119,1.7119,0,0,1,.4121.4214,2.2344,2.2344,0,0,1,.2954.61,2.4407,2.4407,0,0,1,.1114.7461,3.45,3.45,0,0,1-.4019,1.5742,5.34,5.34,0,0,1-1.0659,1.4292,5.4916,5.4916,0,0,1-1.5259,1.0366,4.2423,4.2423,0,0,1-1.7925.3975,1.5891,1.5891,0,0,1-.7607-.189,1.7866,1.7866,0,0,1-.61-.5474,2.7929,2.7929,0,0,1-.4018-.872,4.26,4.26,0,0,1-.1455-1.1626,7.5336,7.5336,0,0,1,.0483-.8384q.0483-.4307.1357-.896t.2134-.9883q.1252-.5229.2808-1.124.1062-.4357.2134-.8911t.2129-.8819q.1068-.4262.2085-.7993a5.7334,5.7334,0,0,1,.208-.6347.5928.5928,0,0,1,.2329-.2857,1.853,1.853,0,0,1,.3872-.2036,2.8151,2.8151,0,0,1,.417-.126,1.6409,1.6409,0,0,1,.3193-.0434.5862.5862,0,0,1,.5137.2182,1.07,1.07,0,0,1,.1548.6245,2.2865,2.2865,0,0,1-.1016.5865q-.1018.3633-.2324.7749t-.2617.8188a5.9228,5.9228,0,0,0-.189.7266,1.4554,1.4554,0,0,1,.3682-.2808,4.2187,4.2187,0,0,1,.4262-.2036q.5721-.2424,1.2017-.48t1.395-.5185q.4073-.1546.7847-.3291a7.35,7.35,0,0,0,.6928-.3638,6.1058,6.1058,0,0,0,.5572-.3726,2.2856,2.2856,0,0,0,.3779-.3491,2.8168,2.8168,0,0,0,.2178-.3149,1.84,1.84,0,0,0,.1792-.45.8313.8313,0,0,1,.102-.2085,1.0155,1.0155,0,0,1,.1841-.2085,1.0442,1.0442,0,0,1,.2661-.1646.8444.8444,0,0,1,.3394-.0678,1.0347,1.0347,0,0,1,.33.0629,1.8885,1.8885,0,0,1,.3535.1646,1.08,1.08,0,0,1,.2807.2378.4489.4489,0,0,1,.1114.2905,1.708,1.708,0,0,1-.024.3,1.7578,1.7578,0,0,1-.1406.3877q-.0966.252-.2178.6587t-.2519.9009q-.1311.4944-.252,1.0322t-.2182,1.0464q-.0968.5083-.1548.9492a5.8631,5.8631,0,0,0-.0581.7412,2.0159,2.0159,0,0,0,.063.5425,1.3039,1.3039,0,0,0,.1548.3633.6564.6564,0,0,0,.1938.2036.3531.3531,0,0,0,.1792.063,1.7643,1.7643,0,0,0,.7026-.1939,6.3972,6.3972,0,0,0,.9351-.5473q.5135-.3538,1.1-.833t1.1914-1.0562q.6057-.5765,1.2066-1.2207t1.143-1.313c.0645.0064.1294.0112.1939.0147a.7819.7819,0,0,1,.1792.0288.3053.3053,0,0,1,.1406.0874.31.31,0,0,1,.0679.1889Zm-13.2154,2.2579a.72.72,0,0,0-.2085.0337c-.0742.0229-.1469.0483-.2177.0776s-.1426.0566-.2134.082a.5971.5971,0,0,1-.2036.0391.8848.8848,0,0,1-.2808-.0484.407.407,0,0,1-.2134-.1455q-.1157.3874-.2031.7945t-.15.7944q-.063.3875-.0918.7266c-.02.2265-.0293.4262-.0293.601a2.286,2.286,0,0,0,.1211.8086q.1209.315.315.315a1.4991,1.4991,0,0,0,.78-.252,3.1232,3.1232,0,0,0,.7558-.6587,3.6766,3.6766,0,0,0,.5669-.9253,2.6188,2.6188,0,0,0,.2227-1.0415,1.2343,1.2343,0,0,0-.0826-.4409,1.478,1.478,0,0,0-.2128-.3872,1.0877,1.0877,0,0,0-.3-.2715A.6785.6785,0,0,0,91.8149,103.3726Z" transform="translate(0 0)"/><path class="cls-7" d="M118.3716,101.5508a1.3862,1.3862,0,0,1-.1743.5669,7.9584,7.9584,0,0,1-.4458.7749q-.271.4218-.6153.8867t-.688.8916q-.3435.4263-.644.7847t-.5039.581a9.0055,9.0055,0,0,1-.833.8042,6.587,6.587,0,0,1-.9644.6831,5.1842,5.1842,0,0,1-1.07.47,3.9006,3.9006,0,0,1-1.1626.1744,2.39,2.39,0,0,1-.8139-.15,4.8,4.8,0,0,1-.8623-.4214,8.8833,8.8833,0,0,1-.93-.6587q-.4849-.3875-1.0078-.8526a7.9175,7.9175,0,0,0-.562.5616q-.2711.301-.4937.5962t-.3926.5664a3.573,3.573,0,0,0-.2568.4751q-.0968.2322-.2324.581t-.252.6592a2.6507,2.6507,0,0,1-.2666.5859q-.16.2564-.3242.48a2.0344,2.0344,0,0,1-1.2647-.3779,1.3528,1.3528,0,0,1-.3828-1.0654,1.9446,1.9446,0,0,1,.0972-.5816,4.1492,4.1492,0,0,1,.2519-.62,5.34,5.34,0,0,1,.3584-.61,6.5336,6.5336,0,0,1,.4166-.5523q.2226-.2709.7265-.7651t1.1724-1.1143q-.1743-.2036-.3828-.4458t-.4117-.4892q-.2036-.2469-.373-.4746a3.7265,3.7265,0,0,1-.2661-.4024,7.849,7.849,0,0,1-.6109-1.2983,3.0316,3.0316,0,0,1-.1743-.9492,1.6973,1.6973,0,0,1,.0728-.4991,1.0689,1.0689,0,0,1,.2373-.4165,1.2108,1.2108,0,0,1,.4311-.291,1.7,1.7,0,0,1,.6543-.1113.9093.9093,0,0,1,.5474.1455.9877.9877,0,0,1,.3052.3584,1.5792,1.5792,0,0,1,.145.4409c.0259.1519.0454.2856.0581.4019a4.1257,4.1257,0,0,0,.2471,1.061,5.6717,5.6717,0,0,0,.3344.6929,3.3271,3.3271,0,0,0,.3.4409q.1941.2467.3584.4311.2813-.2812.5767-.6108t.5571-.6392a4.3209,4.3209,0,0,0,.5327-.7656,7.3915,7.3915,0,0,0,.4361-.9394,3.396,3.396,0,0,1,.2617-.4751,1.28,1.28,0,0,1,.271-.2955.8613.8613,0,0,1,.3247-.1547,1.6918,1.6918,0,0,1,.4023-.044,1.0556,1.0556,0,0,1,.4312.0923,1.134,1.134,0,0,1,.3682.2617,1.4384,1.4384,0,0,1,.2612.3921,1.1527,1.1527,0,0,1,.102.4844,1.0244,1.0244,0,0,1-.1308.4653,3.7727,3.7727,0,0,1-.3487.5376q-.2182.2856-.49.6055t-.5522.6684a8.4043,8.4043,0,0,1-.7071.78q-.4263.4212-.8721.896a7.7379,7.7379,0,0,0,.61.4844,7.073,7.073,0,0,0,.7266.46,6.3276,6.3276,0,0,0,.7363.3487,1.7648,1.7648,0,0,0,.63.1406,2.8956,2.8956,0,0,0,1.41-.4556,7.4159,7.4159,0,0,0,1.6519-1.3755q.3589-.3778.751-.8432t.8867-1.1045q1.0071-1.2978,1.3369-1.2984a.494.494,0,0,1,.3633.1211A.4278.4278,0,0,1,118.3716,101.5508Z" transform="translate(0 0)"/></svg>