<svg id="originals" xmlns="http://www.w3.org/2000/svg" xmlns:xlink="http://www.w3.org/1999/xlink" viewBox="0 0 76.5354 104.8819"><defs><style>.cls-1,.cls-2,.cls-3{fill:none;}.cls-2{stroke:#e6e7e8;}.cls-2,.cls-3{stroke-miterlimit:10;stroke-width:0.0283px;}.cls-3{stroke:#939598;}.cls-4{fill:#fff;}.cls-5{fill:url(#_2x2);}.cls-6{fill:#010101;}.cls-7{fill:#00a651;}.cls-7,.cls-8{opacity:0.25;}.cls-9{fill:#00aeef;}.cls-10,.cls-11{fill:#be1e2d;}.cls-11,.cls-12,.cls-13,.cls-14,.cls-15,.cls-16{opacity:0.5;}.cls-12{fill:#f7941d;}.cls-13{fill:#39b54a;}.cls-14{fill:#006838;}.cls-15{fill:#2b3990;}.cls-16{fill:#27aae1;}</style><pattern id="_2x2" data-name="2x2" width="2.8346" height="2.8346" patternUnits="userSpaceOnUse" viewBox="0 0 2.835 2.835"><rect class="cls-1" width="2.8346" height="2.8346"/><rect class="cls-2" x="2.8346" y="1.4174" width="1.4173" height="1.4173"/><rect class="cls-2" x="2.8346" y="2.8348" width="1.4173" height="1.4173"/><rect class="cls-3" x="2.8346" y="1.4174" width="2.8346" height="5.6693"/><rect class="cls-2" y="1.4174" width="1.4173" height="1.4173"/><rect class="cls-2" x="1.4173" y="1.4174" width="1.4173" height="1.4173"/><rect class="cls-2" y="2.8348" width="1.4173" height="1.4173"/><rect class="cls-2" x="1.4173" y="2.8348" width="1.4173" height="1.4173"/><rect class="cls-3" y="1.4174" width="2.8346" height="5.6693"/><rect class="cls-2" x="-1.4173" y="1.4174" width="1.4173" height="1.4173"/><rect class="cls-2" x="-1.4173" y="2.8348" width="1.4173" height="1.4173"/><rect class="cls-3" x="-2.8347" y="1.4174" width="2.8346" height="5.6693"/><rect class="cls-2" x="2.8346" y="1.4174" width="1.4173" height="1.4173"/><rect class="cls-2" x="2.8346" y="2.8348" width="1.4173" height="1.4173"/><rect class="cls-2" x="2.8346" y="-1.4172" width="1.4173" height="1.4173"/><rect class="cls-2" x="2.8346" y="0.0001" width="1.4173" height="1.4173"/><rect class="cls-3" x="2.8346" y="-1.4172" width="2.8346" height="5.6693"/><rect class="cls-2" y="1.4174" width="1.4173" height="1.4173"/><rect class="cls-2" x="1.4173" y="1.4174" width="1.4173" height="1.4173"/><rect class="cls-2" y="2.8348" width="1.4173" height="1.4173"/><rect class="cls-2" x="1.4173" y="2.8348" width="1.4173" height="1.4173"/><rect class="cls-2" y="-1.4172" width="1.4173" height="1.4173"/><rect class="cls-2" x="1.4173" y="-1.4172" width="1.4173" height="1.4173"/><rect class="cls-2" y="0.0001" width="1.4173" height="1.4173"/><rect class="cls-2" x="1.4173" y="0.0001" width="1.4173" height="1.4173"/><rect class="cls-3" y="-1.4172" width="2.8346" height="5.6693"/><rect class="cls-2" x="-1.4173" y="1.4174" width="1.4173" height="1.4173"/><rect class="cls-2" x="-1.4173" y="2.8348" width="1.4173" height="1.4173"/><rect class="cls-2" x="-1.4173" y="-1.4172" width="1.4173" height="1.4173"/><rect class="cls-2" x="-1.4173" y="0.0001" width="1.4173" height="1.4173"/><rect class="cls-3" x="-2.8347" y="-1.4172" width="2.8346" height="5.6693"/><rect class="cls-2" x="2.8346" y="-1.4172" width="1.4173" height="1.4173"/><rect class="cls-2" x="2.8346" y="0.0001" width="1.4173" height="1.4173"/><rect class="cls-3" x="2.8346" y="-4.2518" width="2.8346" height="5.6693"/><rect class="cls-2" y="-1.4172" width="1.4173" height="1.4173"/><rect class="cls-2" x="1.4173" y="-1.4172" width="1.4173" height="1.4173"/><rect class="cls-2" y="0.0001" width="1.4173" height="1.4173"/><rect class="cls-2" x="1.4173" y="0.0001" width="1.4173" height="1.4173"/><rect class="cls-3" y="-4.2518" width="2.8346" height="5.6693"/><rect class="cls-2" x="-1.4173" y="-1.4172" width="1.4173" height="1.4173"/><rect class="cls-2" x="-1.4173" y="0.0001" width="1.4173" height="1.4173"/><rect class="cls-3" x="-2.8347" y="-4.2518" width="2.8346" height="5.6693"/></pattern></defs><title>fig-008</title><g id="BG"><rect class="cls-4" width="76.5354" height="104.8819"/><rect class="cls-5" width="76.5354" height="104.8819"/></g><rect class="cls-6" x="5.6695" y="32.5984" width="2.8347" height="2.8347"/><rect class="cls-6" x="8.5042" y="32.5984" width="2.8347" height="2.8347"/><rect class="cls-6" x="11.3387" y="32.5984" width="2.8347" height="2.8347"/><rect class="cls-6" x="14.1734" y="32.5984" width="2.8347" height="2.8347"/><rect class="cls-6" x="19.8428" y="32.5984" width="2.8347" height="2.8347"/><rect class="cls-6" x="28.3467" y="32.5984" width="2.8347" height="2.8347"/><rect class="cls-6" x="31.1814" y="32.5984" width="2.8347" height="2.8347"/><rect class="cls-6" x="36.8506" y="32.5984" width="2.8347" height="2.8347"/><rect class="cls-6" x="39.6853" y="32.5984" width="2.8347" height="2.8347"/><rect class="cls-6" x="65.1972" y="32.5984" width="2.8347" height="2.8347"/><rect class="cls-6" x="68.0316" y="32.5984" width="2.8347" height="2.8347"/><rect class="cls-6" x="5.6695" y="35.4331" width="2.8347" height="2.8347"/><rect class="cls-6" x="25.512" y="35.4331" width="2.8347" height="2.8347"/><rect class="cls-6" x="31.1814" y="35.4331" width="2.8347" height="2.8347"/><rect class="cls-6" x="36.8506" y="35.4331" width="2.8347" height="2.8347"/><rect class="cls-6" x="39.6853" y="35.4331" width="2.8347" height="2.8347"/><rect class="cls-6" x="45.3545" y="35.4331" width="2.8347" height="2.8347"/><rect class="cls-6" x="48.1892" y="35.4331" width="2.8347" height="2.8347"/><rect class="cls-6" x="56.693" y="35.4331" width="2.8347" height="2.8347"/><rect class="cls-6" x="59.5278" y="35.4331" width="2.8347" height="2.8347"/><rect class="cls-6" x="62.3625" y="35.4331" width="2.8347" height="2.8347"/><rect class="cls-6" x="11.3387" y="38.2676" width="2.8347" height="2.8347"/><rect class="cls-6" x="19.8428" y="38.2676" width="2.8347" height="2.8347"/><rect class="cls-6" x="28.3467" y="38.2676" width="2.8347" height="2.8347"/><rect class="cls-6" x="36.8506" y="38.2676" width="2.8347" height="2.8347"/><rect class="cls-6" x="42.52" y="38.2676" width="2.8347" height="2.8347"/><rect class="cls-6" x="45.3545" y="38.2676" width="2.8347" height="2.8347"/><rect class="cls-6" x="51.0239" y="38.2676" width="2.8347" height="2.8347"/><rect class="cls-6" x="53.8586" y="38.2676" width="2.8347" height="2.8347"/><rect class="cls-6" x="59.5278" y="38.2676" width="2.8347" height="2.8347"/><rect class="cls-6" x="62.3625" y="38.2676" width="2.8347" height="2.8347"/><rect class="cls-6" x="5.6695" y="41.1023" width="2.8347" height="2.8347"/><rect class="cls-6" x="11.3387" y="41.1023" width="2.8347" height="2.8347"/><rect class="cls-6" x="17.0081" y="41.1023" width="2.8347" height="2.8347"/><rect class="cls-6" x="25.512" y="41.1023" width="2.8347" height="2.8347"/><rect class="cls-6" x="31.1814" y="41.1023" width="2.8347" height="2.8347"/><rect class="cls-6" x="42.52" y="41.1023" width="2.8347" height="2.8347"/><rect class="cls-6" x="45.3545" y="41.1023" width="2.8347" height="2.8347"/><rect class="cls-6" x="51.0239" y="41.1023" width="2.8347" height="2.8347"/><rect class="cls-6" x="53.8586" y="41.1023" width="2.8347" height="2.8347"/><rect class="cls-6" x="59.5278" y="41.1023" width="2.8347" height="2.8347"/><rect class="cls-6" x="62.3625" y="41.1023" width="2.8347" height="2.8347"/><rect class="cls-6" x="8.5042" y="43.937" width="2.8347" height="2.8347"/><rect class="cls-6" x="11.3387" y="43.937" width="2.8347" height="2.8347"/><rect class="cls-6" x="19.8428" y="43.937" width="2.8347" height="2.8347"/><rect class="cls-6" x="28.3467" y="43.937" width="2.8347" height="2.8347"/><rect class="cls-6" x="31.1814" y="43.937" width="2.8347" height="2.8347"/><rect class="cls-6" x="34.0159" y="43.937" width="2.8347" height="2.8347"/><rect class="cls-6" x="36.8506" y="43.937" width="2.8347" height="2.8347"/><rect class="cls-6" x="39.6853" y="43.937" width="2.8347" height="2.8347"/><rect class="cls-6" x="42.52" y="43.937" width="2.8347" height="2.8347"/><rect class="cls-6" x="48.1892" y="43.937" width="2.8347" height="2.8347"/><rect class="cls-6" x="53.8586" y="43.937" width="2.8347" height="2.8347"/><rect class="cls-6" x="56.693" y="43.937" width="2.8347" height="2.8347"/><rect class="cls-6" x="59.5278" y="43.937" width="2.8347" height="2.8347"/><rect class="cls-6" x="62.3625" y="43.937" width="2.8347" height="2.8347"/><rect class="cls-6" x="65.1972" y="43.937" width="2.8347" height="2.8347"/><rect class="cls-6" x="68.0316" y="43.937" width="2.8347" height="2.8347"/><rect class="cls-6" x="5.6695" y="46.7717" width="2.8347" height="2.8347"/><rect class="cls-6" x="14.1734" y="46.7717" width="2.8347" height="2.8347"/><rect class="cls-6" x="17.0081" y="46.7717" width="2.8347" height="2.8347"/><rect class="cls-6" x="22.6773" y="46.7717" width="2.8347" height="2.8347"/><rect class="cls-6" x="36.8506" y="46.7717" width="2.8347" height="2.8347"/><rect class="cls-6" x="42.52" y="46.7717" width="2.8347" height="2.8347"/><rect class="cls-6" x="45.3545" y="46.7717" width="2.8347" height="2.8347"/><rect class="cls-6" x="48.1892" y="46.7717" width="2.8347" height="2.8347"/><rect class="cls-6" x="51.0239" y="46.7717" width="2.8347" height="2.8347"/><rect class="cls-6" x="5.6695" y="49.6062" width="2.8347" height="2.8347"/><rect class="cls-6" x="11.3387" y="49.6062" width="2.8347" height="2.8347"/><rect class="cls-6" x="17.0081" y="49.6062" width="2.8347" height="2.8347"/><rect class="cls-6" x="19.8428" y="49.6062" width="2.8347" height="2.8347"/><rect class="cls-6" x="22.6773" y="49.6062" width="2.8347" height="2.8347"/><rect class="cls-6" x="25.512" y="49.6062" width="2.8347" height="2.8347"/><rect class="cls-6" x="28.3466" y="49.6062" width="2.8347" height="2.8347"/><rect class="cls-6" x="36.8504" y="49.6062" width="2.8347" height="2.8347"/><rect class="cls-6" x="42.5199" y="49.6062" width="2.8347" height="2.8347"/><rect class="cls-6" x="51.0239" y="49.6062" width="2.8347" height="2.8347"/><rect class="cls-6" x="53.8586" y="49.6062" width="2.8347" height="2.8347"/><rect class="cls-6" x="56.693" y="49.6062" width="2.8347" height="2.8347"/><rect class="cls-6" x="59.5278" y="49.6062" width="2.8347" height="2.8347"/><rect class="cls-6" x="68.0316" y="49.6062" width="2.8347" height="2.8347"/><rect class="cls-6" x="5.6695" y="52.4409" width="2.8347" height="2.8347"/><rect class="cls-6" x="8.5042" y="52.4409" width="2.8347" height="2.8347"/><rect class="cls-6" x="11.3387" y="52.4409" width="2.8347" height="2.8347"/><rect class="cls-6" x="22.6773" y="52.4409" width="2.8347" height="2.8347"/><rect class="cls-6" x="25.512" y="52.4409" width="2.8347" height="2.8347"/><rect class="cls-6" x="28.3467" y="52.4409" width="2.8347" height="2.8347"/><rect class="cls-6" x="31.1814" y="52.4409" width="2.8347" height="2.8347"/><rect class="cls-6" x="34.0159" y="52.4409" width="2.8347" height="2.8347"/><rect class="cls-6" x="36.8506" y="52.4409" width="2.8347" height="2.8347"/><rect class="cls-6" x="39.6853" y="52.4409" width="2.8347" height="2.8347"/><rect class="cls-6" x="42.52" y="52.4409" width="2.8347" height="2.8347"/><rect class="cls-6" x="45.3545" y="52.4409" width="2.8347" height="2.8347"/><rect class="cls-6" x="48.1892" y="52.4409" width="2.8347" height="2.8347"/><rect class="cls-6" x="51.0239" y="52.4409" width="2.8347" height="2.8347"/><rect class="cls-6" x="56.693" y="52.4409" width="2.8347" height="2.8347"/><rect class="cls-6" x="59.5278" y="52.4409" width="2.8347" height="2.8347"/><rect class="cls-6" x="62.3625" y="52.4409" width="2.8347" height="2.8347"/><rect class="cls-6" x="8.5042" y="55.2756" width="2.8347" height="2.8347"/><rect class="cls-6" x="11.3387" y="55.2756" width="2.8347" height="2.8347"/><rect class="cls-6" x="19.8428" y="55.2756" width="2.8347" height="2.8347"/><rect class="cls-6" x="22.6773" y="55.2756" width="2.8347" height="2.8347"/><rect class="cls-6" x="25.512" y="55.2756" width="2.8347" height="2.8347"/><rect class="cls-6" x="48.1892" y="55.2756" width="2.8347" height="2.8347"/><rect class="cls-6" x="51.0239" y="55.2756" width="2.8347" height="2.8347"/><rect class="cls-6" x="53.8586" y="55.2756" width="2.8347" height="2.8347"/><rect class="cls-6" x="59.5278" y="55.2756" width="2.8347" height="2.8347"/><rect class="cls-6" x="65.1972" y="55.2756" width="2.8347" height="2.8347"/><rect class="cls-6" x="8.5042" y="58.1103" width="2.8347" height="2.8347"/><rect class="cls-6" x="14.1734" y="58.1103" width="2.8347" height="2.8347"/><rect class="cls-6" x="17.0081" y="58.1103" width="2.8347" height="2.8347"/><rect class="cls-6" x="25.512" y="58.1103" width="2.8347" height="2.8347"/><rect class="cls-6" x="31.1814" y="58.1103" width="2.8347" height="2.8347"/><rect class="cls-6" x="34.0159" y="58.1103" width="2.8347" height="2.8347"/><rect class="cls-6" x="36.8506" y="58.1103" width="2.8347" height="2.8347"/><rect class="cls-6" x="39.6853" y="58.1103" width="2.8347" height="2.8347"/><rect class="cls-6" x="42.52" y="58.1103" width="2.8347" height="2.8347"/><rect class="cls-6" x="48.1892" y="58.1103" width="2.8347" height="2.8347"/><rect class="cls-6" x="51.0239" y="58.1103" width="2.8347" height="2.8347"/><rect class="cls-6" x="53.8586" y="58.1103" width="2.8347" height="2.8347"/><rect class="cls-6" x="59.5278" y="58.1103" width="2.8347" height="2.8347"/><rect class="cls-6" x="65.1972" y="58.1103" width="2.8347" height="2.8347"/><rect class="cls-6" x="5.6695" y="60.9448" width="2.8347" height="2.8347"/><rect class="cls-6" x="11.3387" y="60.9448" width="2.8347" height="2.8347"/><rect class="cls-6" x="17.0081" y="60.9448" width="2.8347" height="2.8347"/><rect class="cls-6" x="19.8428" y="60.9448" width="2.8347" height="2.8347"/><rect class="cls-6" x="25.512" y="60.9448" width="2.8347" height="2.8347"/><rect class="cls-6" x="31.1814" y="60.9448" width="2.8347" height="2.8347"/><rect class="cls-6" x="42.52" y="60.9448" width="2.8347" height="2.8347"/><rect class="cls-6" x="48.1892" y="60.9448" width="2.8347" height="2.8347"/><rect class="cls-6" x="51.0239" y="60.9448" width="2.8347" height="2.8347"/><rect class="cls-6" x="53.8586" y="60.9448" width="2.8347" height="2.8347"/><rect class="cls-6" x="56.693" y="60.9448" width="2.8347" height="2.8347"/><rect class="cls-6" x="59.5278" y="60.9448" width="2.8347" height="2.8347"/><rect class="cls-6" x="17.0081" y="63.7795" width="2.8347" height="2.8347"/><rect class="cls-6" x="22.6773" y="63.7795" width="2.8347" height="2.8347"/><rect class="cls-6" x="25.512" y="63.7795" width="2.8347" height="2.8347"/><rect class="cls-6" x="31.1814" y="63.7795" width="2.8347" height="2.8347"/><rect class="cls-6" x="36.8506" y="63.7795" width="2.8347" height="2.8347"/><rect class="cls-6" x="42.52" y="63.7795" width="2.8347" height="2.8347"/><rect class="cls-6" x="48.1892" y="63.7795" width="2.8347" height="2.8347"/><rect class="cls-6" x="51.0239" y="63.7795" width="2.8347" height="2.8347"/><rect class="cls-6" x="56.693" y="63.7795" width="2.8347" height="2.8347"/><rect class="cls-6" x="62.3625" y="63.7795" width="2.8347" height="2.8347"/><rect class="cls-6" x="5.6695" y="66.6142" width="2.8347" height="2.8347"/><rect class="cls-6" x="8.5042" y="66.6142" width="2.8347" height="2.8347"/><rect class="cls-6" x="11.3387" y="66.6142" width="2.8347" height="2.8347"/><rect class="cls-6" x="25.512" y="66.6142" width="2.8347" height="2.8347"/><rect class="cls-6" x="31.1814" y="66.6142" width="2.8347" height="2.8347"/><rect class="cls-6" x="42.52" y="66.6142" width="2.8347" height="2.8347"/><rect class="cls-6" x="48.1892" y="66.6142" width="2.8347" height="2.8347"/><rect class="cls-6" x="62.3625" y="66.6142" width="2.8347" height="2.8347"/><rect class="cls-6" x="68.0316" y="66.6142" width="2.8347" height="2.8347"/><rect class="cls-6" x="8.5042" y="69.4489" width="2.8347" height="2.8347"/><rect class="cls-6" x="14.1734" y="69.4489" width="2.8347" height="2.8347"/><rect class="cls-6" x="17.0081" y="69.4489" width="2.8347" height="2.8347"/><rect class="cls-6" x="19.8428" y="69.4489" width="2.8347" height="2.8347"/><rect class="cls-6" x="25.512" y="69.4489" width="2.8347" height="2.8347"/><rect class="cls-6" x="31.1814" y="69.4489" width="2.8347" height="2.8347"/><rect class="cls-6" x="34.0159" y="69.4489" width="2.8347" height="2.8347"/><rect class="cls-6" x="36.8506" y="69.4489" width="2.8347" height="2.8347"/><rect class="cls-6" x="39.6853" y="69.4489" width="2.8347" height="2.8347"/><rect class="cls-6" x="42.52" y="69.4489" width="2.8347" height="2.8347"/><rect class="cls-6" x="48.1892" y="69.4489" width="2.8347" height="2.8347"/><rect class="cls-6" x="53.8586" y="69.4489" width="2.8347" height="2.8347"/><rect class="cls-6" x="62.3625" y="69.4489" width="2.8347" height="2.8347"/><rect class="cls-6" x="65.1972" y="69.4489" width="2.8347" height="2.8347"/><rect class="cls-6" x="68.0316" y="69.4489" width="2.8347" height="2.8347"/><rect class="cls-6" x="11.3387" y="72.2834" width="2.8347" height="2.8347"/><rect class="cls-6" x="14.1734" y="72.2834" width="2.8347" height="2.8347"/><rect class="cls-6" x="25.512" y="72.2834" width="2.8347" height="2.8347"/><rect class="cls-6" x="48.1892" y="72.2834" width="2.8347" height="2.8347"/><rect class="cls-6" x="62.3625" y="72.2834" width="2.8347" height="2.8347"/><rect class="cls-6" x="14.1734" y="75.1181" width="2.8347" height="2.8347"/><rect class="cls-6" x="25.512" y="75.1181" width="2.8347" height="2.8347"/><rect class="cls-6" x="28.3467" y="75.1181" width="2.8347" height="2.8347"/><rect class="cls-6" x="31.1814" y="75.1181" width="2.8347" height="2.8347"/><rect class="cls-6" x="34.0159" y="75.1181" width="2.8347" height="2.8347"/><rect class="cls-6" x="36.8506" y="75.1181" width="2.8347" height="2.8347"/><rect class="cls-6" x="39.6853" y="75.1181" width="2.8347" height="2.8347"/><rect class="cls-6" x="42.52" y="75.1181" width="2.8347" height="2.8347"/><rect class="cls-6" x="45.3545" y="75.1181" width="2.8347" height="2.8347"/><rect class="cls-6" x="48.1892" y="75.1181" width="2.8347" height="2.8347"/><rect class="cls-6" x="51.0239" y="75.1181" width="2.8347" height="2.8347"/><rect class="cls-6" x="53.8586" y="75.1181" width="2.8347" height="2.8347"/><rect class="cls-6" x="59.5278" y="75.1181" width="2.8347" height="2.8347"/><rect class="cls-6" x="62.3625" y="75.1181" width="2.8347" height="2.8347"/><rect class="cls-6" x="19.8428" y="77.9528" width="2.8347" height="2.8347"/><rect class="cls-6" x="28.3467" y="77.9528" width="2.8347" height="2.8347"/><rect class="cls-6" x="34.0159" y="77.9528" width="2.8347" height="2.8347"/><rect class="cls-6" x="42.52" y="77.9528" width="2.8347" height="2.8347"/><rect class="cls-6" x="62.3625" y="77.9528" width="2.8347" height="2.8347"/><rect class="cls-6" x="68.0316" y="77.9528" width="2.8347" height="2.8347"/><rect class="cls-6" x="8.5042" y="80.7875" width="2.8347" height="2.8347"/><rect class="cls-6" x="11.3387" y="80.7875" width="2.8347" height="2.8347"/><rect class="cls-6" x="17.0081" y="80.7875" width="2.8347" height="2.8347"/><rect class="cls-6" x="19.8428" y="80.7875" width="2.8347" height="2.8347"/><rect class="cls-6" x="25.512" y="80.7875" width="2.8347" height="2.8347"/><rect class="cls-6" x="28.3467" y="80.7875" width="2.8347" height="2.8347"/><rect class="cls-6" x="31.1814" y="80.7875" width="2.8347" height="2.8347"/><rect class="cls-6" x="42.52" y="80.7875" width="2.8347" height="2.8347"/><rect class="cls-6" x="48.1892" y="80.7875" width="2.8347" height="2.8347"/><rect class="cls-6" x="59.5278" y="80.7875" width="2.8347" height="2.8347"/><rect class="cls-6" x="62.3625" y="80.7875" width="2.8347" height="2.8347"/><rect class="cls-6" x="8.5042" y="83.622" width="2.8347" height="2.8347"/><rect class="cls-6" x="14.1734" y="83.622" width="2.8347" height="2.8347"/><rect class="cls-6" x="19.8428" y="83.622" width="2.8347" height="2.8347"/><rect class="cls-6" x="28.3467" y="83.622" width="2.8347" height="2.8347"/><rect class="cls-6" x="36.8506" y="83.622" width="2.8347" height="2.8347"/><rect class="cls-6" x="45.3545" y="83.622" width="2.8347" height="2.8347"/><rect class="cls-6" x="51.0239" y="83.622" width="2.8347" height="2.8347"/><rect class="cls-6" x="53.8586" y="83.622" width="2.8347" height="2.8347"/><rect class="cls-6" x="56.693" y="83.622" width="2.8347" height="2.8347"/><rect class="cls-6" x="59.5278" y="83.622" width="2.8347" height="2.8347"/><rect class="cls-6" x="62.3625" y="83.622" width="2.8347" height="2.8347"/><rect class="cls-6" x="65.1972" y="83.622" width="2.8347" height="2.8347"/><rect class="cls-6" x="8.5042" y="86.4567" width="2.8347" height="2.8347"/><rect class="cls-6" x="17.0081" y="86.4567" width="2.8347" height="2.8347"/><rect class="cls-6" x="19.8428" y="86.4567" width="2.8347" height="2.8347"/><rect class="cls-6" x="28.3467" y="86.4567" width="2.8347" height="2.8347"/><rect class="cls-6" x="39.6853" y="86.4567" width="2.8347" height="2.8347"/><rect class="cls-6" x="62.3625" y="86.4567" width="2.8347" height="2.8347"/><rect class="cls-6" x="68.0316" y="86.4567" width="2.8347" height="2.8347"/><rect class="cls-6" x="11.3387" y="89.2914" width="2.8347" height="2.8347"/><rect class="cls-6" x="22.6773" y="89.2914" width="2.8347" height="2.8347"/><rect class="cls-6" x="25.512" y="89.2914" width="2.8347" height="2.8347"/><rect class="cls-6" x="28.3467" y="89.2914" width="2.8347" height="2.8347"/><rect class="cls-6" x="31.1814" y="89.2914" width="2.8347" height="2.8347"/><rect class="cls-6" x="34.0159" y="89.2914" width="2.8347" height="2.8347"/><rect class="cls-6" x="42.52" y="89.2914" width="2.8347" height="2.8347"/><rect class="cls-6" x="48.1892" y="89.2914" width="2.8347" height="2.8347"/><rect class="cls-6" x="51.0239" y="89.2914" width="2.8347" height="2.8347"/><rect class="cls-6" x="56.693" y="89.2914" width="2.8347" height="2.8347"/><rect class="cls-6" x="59.5278" y="89.2914" width="2.8347" height="2.8347"/><rect class="cls-6" x="65.1972" y="89.2914" width="2.8347" height="2.8347"/><rect class="cls-6" x="8.5042" y="92.1261" width="2.8347" height="2.8347"/><rect class="cls-6" x="11.3387" y="92.1261" width="2.8347" height="2.8347"/><rect class="cls-6" x="22.6773" y="92.1261" width="2.8347" height="2.8347"/><rect class="cls-6" x="36.8506" y="92.1261" width="2.8347" height="2.8347"/><rect class="cls-6" x="42.52" y="92.1261" width="2.8347" height="2.8347"/><rect class="cls-6" x="51.0239" y="92.1261" width="2.8347" height="2.8347"/><rect class="cls-6" x="56.693" y="92.1261" width="2.8347" height="2.8347"/><rect class="cls-6" x="68.0316" y="92.1261" width="2.8347" height="2.8347"/><rect class="cls-6" x="25.512" y="94.9606" width="2.8347" height="2.8347"/><rect class="cls-6" x="28.3467" y="94.9606" width="2.8347" height="2.8347"/><rect class="cls-6" x="34.0159" y="94.9606" width="2.8347" height="2.8347"/><rect class="cls-6" x="51.0239" y="94.9606" width="2.8347" height="2.8347"/><rect class="cls-6" x="53.8586" y="94.9606" width="2.8347" height="2.8347"/><rect class="cls-6" x="59.5278" y="94.9606" width="2.8347" height="2.8347"/><rect class="cls-7" x="25.512" y="52.4409" width="25.5118" height="25.5118"/><g class="cls-8"><rect class="cls-9" x="22.6773" y="49.6063" width="2.8346" height="5.6694"/><rect class="cls-9" x="25.512" y="49.6063" width="2.8346" height="2.8346"/><rect class="cls-9" x="24.0947" y="76.5354" width="2.8346" height="5.6694" transform="translate(-53.8581 104.8821) rotate(-90)"/><rect class="cls-9" x="22.6773" y="75.1182" width="2.8346" height="2.8346" transform="translate(-52.4408 100.6301) rotate(-90)"/><rect class="cls-9" x="51.0239" y="75.118" width="2.8346" height="5.6694" transform="translate(104.8824 155.9055) rotate(180)"/><rect class="cls-9" x="48.1892" y="77.9528" width="2.8346" height="2.8346" transform="translate(99.2131 158.7402) rotate(180)"/><rect class="cls-9" x="49.6065" y="48.1889" width="2.8346" height="5.6694" transform="translate(102.0474 -0.0003) rotate(90)"/><rect class="cls-9" x="51.0238" y="52.4409" width="2.8346" height="2.8346" transform="translate(106.2994 1.4171) rotate(90)"/></g><path class="cls-10" d="M28.229,16.6987a.8605.8605,0,0,1-.6733-.2519,1.3011,1.3011,0,0,1-.2281-.8721,1.2739,1.2739,0,0,1,.0391-.2661c.0254-.1133.0532-.231.082-.3535s.0567-.2378.0826-.3443a1.12,1.12,0,0,0,.0385-.2275c0-.0391-.0029-.0937-.0093-.1645s-.0131-.149-.02-.233-.0132-.1694-.02-.2568-.01-.1631-.01-.2275q0-.126.02-.3921c.0126-.1778.0258-.3618.0385-.5523s.0259-.3716.0391-.5429.02-.292.02-.3633q0-.1743-.02-.5327t-.0391-.7559q-.0191-.3969-.0385-.76c-.0132-.2427-.02-.4249-.02-.5479a4.159,4.159,0,0,1,.0342-.5615,1.47,1.47,0,0,1,.1211-.4361.6362.6362,0,0,1,.2471-.2812.8064.8064,0,0,1,.4213-.0967.63.63,0,0,1,.4263.15,1.21,1.21,0,0,1,.29.3828,2.3842,2.3842,0,0,1,.1841.5137,5.0853,5.0853,0,0,1,.1021.5474c.0224.1777.0371.3388.0434.4843s.01.2505.01.315a2.2148,2.2148,0,0,1-.0342.33c-.0224.1416-.0469.2675-.0722.3774q0,.6687.0092,1.1675t.0244.8769q.0147.378.0386.6587t.0537.5039a6.1244,6.1244,0,0,1,.0581.8623,1.4,1.4,0,0,1-.0581.3492q-.0585.2124-.1406.436t-.1743.4263a2.6515,2.6515,0,0,1-.16.31.4566.4566,0,0,1-.1211.13.86.86,0,0,1-.184.1069,1.2792,1.2792,0,0,1-.208.0679A.917.917,0,0,1,28.229,16.6987Z" transform="translate(0 0)"/><path class="cls-10" d="M29.3721,28.9551q-.2614,0-.6783-.5039-.5229-.6489-.8671-1.1626a9.1124,9.1124,0,0,0-.625-.8428,2.7055,2.7055,0,0,1-.1934-.228c-.0454-.0615-.0908-.1177-.1357-.1695q-.33-.3-1.1045-1.017a5.497,5.497,0,0,1-.7076-.6109q-.31-.3193-.5327-.5327a6.2609,6.2609,0,0,1-.47-.46c-.1455-.1587-.2861-.3149-.4219-.47a1.1651,1.1651,0,0,1-.0966-1.1094,1.4678,1.4678,0,0,1,.2421-.3681,1.2307,1.2307,0,0,1,.3247-.2569.71.71,0,0,1,.334-.0966.6467.6467,0,0,1,.354.1015,1.7027,1.7027,0,0,1,.3052.252,3.6094,3.6094,0,0,1,.271.3149q.126.1649.2422.2905.5816.4944,1.0806.9595t.9638.94q.0967.1062.3.3535t.4409.5473q.2373.3.4844.5957t.4409.4893a2.665,2.665,0,0,0,.7364-.8623c.0385-.0771.0966-.189.1743-.334s.1631-.3052.2568-.48.1919-.3554.2954-.5429.2017-.3648.2954-.5328.1778-.3183.252-.4506.1274-.231.16-.2955a.6915.6915,0,0,0,.0728-.1308,1.0529,1.0529,0,0,0,.0625-.15q.1552-.32.3057-.5816a4.3663,4.3663,0,0,1,.3725-.5424q.3392-.3488.5816-.5816a2.9831,2.9831,0,0,1,.4555-.3681,1.4937,1.4937,0,0,1,.4116-.189,1.6727,1.6727,0,0,1,.4312-.0532.7113.7113,0,0,1,.5229.2133.8257.8257,0,0,1,.2134.61,1.0616,1.0616,0,0,1-.1841.5908,8.3979,8.3979,0,0,1-.5234.6978q-.1743.2322-.2759.3779c-.0678.0967-.1147.1611-.1406.1938q-.0673.1062-.2808.441t-.4941.7846q-.2812.45-.5962.9639t-.5957.9688q-.2812.4555-.4892.809t-.2759.48q-.32.62-.5235,1.003a3.5226,3.5226,0,0,1-.3779.5913.939.939,0,0,1-.3535.2807A1.1784,1.1784,0,0,1,29.3721,28.9551Z" transform="translate(0 0)"/><rect class="cls-11" x="22.6773" y="43.9369" width="11.3386" height="5.6693"/><rect class="cls-12" x="34.0158" y="43.9371" width="11.3386" height="5.6693"/><rect class="cls-11" x="45.3546" y="43.9368" width="11.3386" height="5.6693"/><rect class="cls-12" x="51.0238" y="72.2835" width="11.3386" height="5.6693" transform="translate(-18.4251 131.8112) rotate(-90)"/><rect class="cls-11" x="48.1891" y="80.7872" width="11.3386" height="5.6693"/><rect class="cls-12" x="36.8506" y="80.7875" width="11.3386" height="5.6693"/><rect class="cls-12" x="18.4255" y="76.5354" width="2.8346" height="5.6693" transform="translate(-59.5273 99.2129) rotate(-90)"/><rect class="cls-11" x="14.1735" y="69.4487" width="11.3386" height="5.6693" transform="translate(-52.4406 92.1262) rotate(-90)"/><rect class="cls-12" x="14.1735" y="58.1104" width="11.3386" height="5.6693" transform="translate(-41.1022 80.7879) rotate(-90)"/><rect class="cls-11" x="17.0082" y="43.9371" width="5.6693" height="11.3386"/><rect class="cls-13" x="28.3468" y="38.2677" width="11.3386" height="5.6693"/><rect class="cls-14" x="17.0082" y="38.2677" width="11.3386" height="5.6693"/><rect class="cls-15" x="14.1733" y="29.7632" width="5.6693" height="11.3385" transform="translate(-18.4245 52.4404) rotate(-90)"/><rect class="cls-16" x="25.5119" y="29.7634" width="5.6693" height="11.3385" transform="translate(-7.0861 63.7793) rotate(-90)"/><rect class="cls-12" x="56.6931" y="43.9371" width="2.8346" height="5.6693"/><rect class="cls-12" x="53.8587" y="49.6063" width="5.6693" height="8.5039"/><rect class="cls-11" x="53.8587" y="58.1102" width="5.6693" height="11.3386"/><rect class="cls-12" x="17.0082" y="80.7873" width="8.5039" height="5.6693"/><rect class="cls-11" x="25.5121" y="80.787" width="11.3386" height="5.6693"/><rect class="cls-13" x="51.0239" y="38.2677" width="11.3386" height="5.6693"/><rect class="cls-14" x="39.6853" y="38.2677" width="11.3386" height="5.6693"/><rect class="cls-14" x="62.3624" y="38.2677" width="2.8346" height="5.6693"/><rect class="cls-13" x="56.6931" y="55.2756" width="11.3386" height="5.6693" transform="translate(120.4727 -4.2522) rotate(90)"/><rect class="cls-14" x="58.1104" y="45.3544" width="8.5039" height="5.6693" transform="translate(110.5515 -14.1733) rotate(90)"/><rect class="cls-13" x="56.6931" y="77.9527" width="11.3386" height="5.6693" transform="translate(143.1498 18.4249) rotate(90)"/><rect class="cls-14" x="56.6931" y="66.6141" width="11.3386" height="5.6693" transform="translate(131.8111 7.0863) rotate(90)"/><rect class="cls-13" x="42.5198" y="86.4568" width="11.3386" height="5.6693" transform="translate(96.3783 178.5828) rotate(180)"/><rect class="cls-14" x="53.8585" y="86.4568" width="11.3386" height="5.6693" transform="translate(119.0556 178.5828) rotate(180)"/><rect class="cls-13" x="19.8428" y="86.4568" width="11.3386" height="5.6693" transform="translate(51.0242 178.5828) rotate(180)"/><rect class="cls-14" x="31.1814" y="86.4568" width="11.3386" height="5.6693" transform="translate(73.7014 178.5828) rotate(180)"/><rect class="cls-14" x="11.3388" y="86.4568" width="8.5039" height="5.6693" transform="translate(31.1815 178.5828) rotate(180)"/><rect class="cls-13" x="8.5041" y="75.1183" width="11.3386" height="5.6693" transform="translate(-63.7796 92.1264) rotate(-90)"/><rect class="cls-13" x="8.5041" y="52.4412" width="11.3386" height="5.6693" transform="translate(-41.1025 69.4493) rotate(-90)"/><rect class="cls-14" x="8.5041" y="63.7799" width="11.3386" height="5.6693" transform="translate(-52.4411 80.7879) rotate(-90)"/><rect class="cls-14" x="8.5041" y="41.1025" width="11.3386" height="5.6693" transform="translate(-29.7637 58.1105) rotate(-90)"/><rect class="cls-14" x="12.7561" y="82.2047" width="2.8346" height="5.6693" transform="translate(-70.8659 99.2127) rotate(-90)"/><rect class="cls-15" x="36.8505" y="29.7637" width="5.6693" height="11.3385" transform="translate(4.2521 75.1181) rotate(-90)"/><rect class="cls-16" x="48.1891" y="29.764" width="5.6693" height="11.3385" transform="translate(15.5905 86.457) rotate(-90)"/><rect class="cls-15" x="59.5279" y="29.7639" width="5.6693" height="11.3385" transform="translate(26.9295 97.7957) rotate(-90)"/><rect class="cls-16" x="66.6147" y="34.0161" width="5.6693" height="2.8346" transform="translate(34.0159 104.8827) rotate(-90)"/><rect class="cls-16" x="65.1976" y="38.2677" width="5.6693" height="8.5039"/><rect class="cls-15" x="65.1973" y="46.7714" width="5.6693" height="11.3385"/><rect class="cls-16" x="65.197" y="58.1101" width="5.6693" height="11.3385"/><rect class="cls-15" x="65.1972" y="69.4489" width="5.6693" height="11.3385"/><rect class="cls-16" x="65.197" y="80.7871" width="5.6693" height="11.3385"/><rect class="cls-15" x="17.008" y="89.2917" width="5.6693" height="11.3385" transform="translate(-75.1183 114.8037) rotate(-90)"/><rect class="cls-16" x="28.3467" y="89.292" width="5.6693" height="11.3385" transform="translate(-63.7799 126.1426) rotate(-90)"/><rect class="cls-15" x="39.6852" y="89.2923" width="5.6693" height="11.3385" transform="translate(-52.4417 137.4814) rotate(-90)"/><rect class="cls-16" x="51.0238" y="89.2926" width="5.6693" height="11.3385" transform="translate(-41.1033 148.8203) rotate(-90)"/><rect class="cls-15" x="62.3627" y="89.2924" width="5.6693" height="11.3385" transform="translate(-29.7644 160.159) rotate(-90)"/><rect class="cls-16" x="7.0869" y="90.7099" width="5.6693" height="8.5039" transform="translate(-85.0402 104.8834) rotate(-90)"/><rect class="cls-16" x="7.0869" y="87.8741" width="2.8346" height="5.6693" transform="translate(-82.2045 99.213) rotate(-90)"/><rect class="cls-16" x="5.6699" y="43.9368" width="5.6693" height="11.3386"/><rect class="cls-15" x="5.6696" y="55.2743" width="5.6693" height="11.3385"/><rect class="cls-16" x="5.6693" y="66.613" width="5.6693" height="11.3385"/><rect class="cls-15" x="5.6694" y="77.9518" width="5.6693" height="11.3385"/><rect class="cls-15" x="5.6693" y="32.5978" width="5.6693" height="11.3385"/></svg>