<svg id="originals" xmlns="http://www.w3.org/2000/svg" xmlns:xlink="http://www.w3.org/1999/xlink" viewBox="0 0 436.5354 433.7008"><defs><style>.cls-1,.cls-2,.cls-3{fill:none;}.cls-2{stroke:#e6e7e8;}.cls-2,.cls-3,.cls-6,.cls-7{stroke-miterlimit:10;}.cls-2,.cls-3{stroke-width:0.0283px;}.cls-3{stroke:#939598;}.cls-4,.cls-7{fill:#fff;}.cls-5{fill:url(#_2x2);}.cls-6{fill:#6d6e71;}.cls-6,.cls-7{stroke:#231f20;stroke-width:0.4252px;}.cls-8{fill:#231f20;}</style><pattern id="_2x2" data-name="2x2" width="2.8346" height="2.8346" patternUnits="userSpaceOnUse" viewBox="0 0 2.835 2.835"><rect class="cls-1" width="2.8346" height="2.8346"/><rect class="cls-2" x="2.8346" y="1.4174" width="1.4173" height="1.4173"/><rect class="cls-2" x="2.8346" y="2.8348" width="1.4173" height="1.4173"/><rect class="cls-3" x="2.8346" y="1.4174" width="2.8346" height="5.6693"/><rect class="cls-2" y="1.4174" width="1.4173" height="1.4173"/><rect class="cls-2" x="1.4173" y="1.4174" width="1.4173" height="1.4173"/><rect class="cls-2" y="2.8348" width="1.4173" height="1.4173"/><rect class="cls-2" x="1.4173" y="2.8348" width="1.4173" height="1.4173"/><rect class="cls-3" y="1.4174" width="2.8346" height="5.6693"/><rect class="cls-2" x="-1.4173" y="1.4174" width="1.4173" height="1.4173"/><rect class="cls-2" x="-1.4173" y="2.8348" width="1.4173" height="1.4173"/><rect class="cls-3" x="-2.8347" y="1.4174" width="2.8346" height="5.6693"/><rect class="cls-2" x="2.8346" y="1.4174" width="1.4173" height="1.4173"/><rect class="cls-2" x="2.8346" y="2.8348" width="1.4173" height="1.4173"/><rect class="cls-2" x="2.8346" y="-1.4172" width="1.4173" height="1.4173"/><rect class="cls-2" x="2.8346" y="0.0001" width="1.4173" height="1.4173"/><rect class="cls-3" x="2.8346" y="-1.4172" width="2.8346" height="5.6693"/><rect class="cls-2" y="1.4174" width="1.4173" height="1.4173"/><rect class="cls-2" x="1.4173" y="1.4174" width="1.4173" height="1.4173"/><rect class="cls-2" y="2.8348" width="1.4173" height="1.4173"/><rect class="cls-2" x="1.4173" y="2.8348" width="1.4173" height="1.4173"/><rect class="cls-2" y="-1.4172" width="1.4173" height="1.4173"/><rect class="cls-2" x="1.4173" y="-1.4172" width="1.4173" height="1.4173"/><rect class="cls-2" y="0.0001" width="1.4173" height="1.4173"/><rect class="cls-2" x="1.4173" y="0.0001" width="1.4173" height="1.4173"/><rect class="cls-3" y="-1.4172" width="2.8346" height="5.6693"/><rect class="cls-2" x="-1.4173" y="1.4174" width="1.4173" height="1.4173"/><rect class="cls-2" x="-1.4173" y="2.8348" width="1.4173" height="1.4173"/><rect class="cls-2" x="-1.4173" y="-1.4172" width="1.4173" height="1.4173"/><rect class="cls-2" x="-1.4173" y="0.0001" width="1.4173" height="1.4173"/><rect class="cls-3" x="-2.8347" y="-1.4172" width="2.8346" height="5.6693"/><rect class="cls-2" x="2.8346" y="-1.4172" width="1.4173" height="1.4173"/><rect class="cls-2" x="2.8346" y="0.0001" width="1.4173" height="1.4173"/><rect class="cls-3" x="2.8346" y="-4.2518" width="2.8346" height="5.6693"/><rect class="cls-2" y="-1.4172" width="1.4173" height="1.4173"/><rect class="cls-2" x="1.4173" y="-1.4172" width="1.4173" height="1.4173"/><rect class="cls-2" y="0.0001" width="1.4173" height="1.4173"/><rect class="cls-2" x="1.4173" y="0.0001" width="1.4173" height="1.4173"/><rect class="cls-3" y="-4.2518" width="2.8346" height="5.6693"/><rect class="cls-2" x="-1.4173" y="-1.4172" width="1.4173" height="1.4173"/><rect class="cls-2" x="-1.4173" y="0.0001" width="1.4173" height="1.4173"/><rect class="cls-3" x="-2.8347" y="-4.2518" width="2.8346" height="5.6693"/></pattern></defs><title>fig-005</title><g id="BG"><rect class="cls-4" width="436.5354" height="433.7008"/><rect class="cls-5" width="436.5354" height="433.7008"/></g><rect class="cls-6" x="62.3622" y="4.252" width="28.3465" height="28.3465"/><rect class="cls-7" x="62.3622" y="32.5984" width="28.3465" height="28.3465"/><rect class="cls-6" x="90.7087" y="4.252" width="28.3465" height="28.3465"/><rect class="cls-7" x="90.7087" y="32.5984" width="28.3465" height="28.3465"/><rect class="cls-6" x="119.0551" y="4.252" width="28.3465" height="28.3465"/><rect class="cls-7" x="119.0551" y="32.5984" width="28.3465" height="28.3465"/><rect class="cls-6" x="147.4016" y="4.252" width="28.3465" height="28.3465"/><rect class="cls-7" x="147.4016" y="32.5984" width="28.3465" height="28.3465"/><rect class="cls-6" x="175.748" y="4.252" width="28.3465" height="28.3465"/><rect class="cls-7" x="175.748" y="32.5984" width="28.3465" height="28.3465"/><rect class="cls-6" x="204.0945" y="4.252" width="28.3465" height="28.3465"/><rect class="cls-7" x="204.0945" y="32.5984" width="28.3465" height="28.3465"/><rect class="cls-6" x="232.4409" y="4.252" width="28.3465" height="28.3465"/><rect class="cls-7" x="232.4409" y="32.5984" width="28.3465" height="28.3465"/><rect class="cls-6" x="260.7874" y="4.252" width="28.3465" height="28.3465"/><rect class="cls-7" x="260.7874" y="32.5984" width="28.3465" height="28.3465"/><rect class="cls-6" x="289.1339" y="4.252" width="28.3465" height="28.3465"/><rect class="cls-7" x="289.1339" y="32.5984" width="28.3465" height="28.3465"/><rect class="cls-6" x="317.4803" y="4.252" width="28.3465" height="28.3465"/><rect class="cls-7" x="317.4803" y="32.5984" width="28.3465" height="28.3465"/><rect class="cls-6" x="345.8268" y="4.252" width="28.3465" height="28.3465"/><rect class="cls-7" x="345.8268" y="32.5984" width="28.3465" height="28.3465"/><rect class="cls-6" x="374.1732" y="4.252" width="28.3465" height="28.3465"/><rect class="cls-7" x="374.1732" y="32.5984" width="28.3465" height="28.3465"/><rect class="cls-6" x="402.5197" y="4.252" width="28.3465" height="28.3465"/><rect class="cls-7" x="402.5197" y="32.5984" width="28.3465" height="28.3465"/><rect class="cls-6" x="402.5197" y="60.9449" width="28.3465" height="28.3465" transform="translate(491.811 -341.5748) rotate(90)"/><rect class="cls-7" x="374.1732" y="60.9449" width="28.3465" height="28.3465" transform="translate(463.4646 -313.2283) rotate(90)"/><rect class="cls-6" x="402.5197" y="89.2913" width="28.3465" height="28.3465" transform="translate(520.1575 -313.2283) rotate(90)"/><rect class="cls-7" x="374.1732" y="89.2913" width="28.3465" height="28.3465" transform="translate(491.811 -284.8819) rotate(90)"/><rect class="cls-6" x="402.5197" y="117.6378" width="28.3465" height="28.3465" transform="translate(548.5039 -284.8819) rotate(90)"/><rect class="cls-7" x="374.1732" y="117.6378" width="28.3465" height="28.3465" transform="translate(520.1575 -256.5354) rotate(90)"/><rect class="cls-6" x="402.5197" y="145.9843" width="28.3465" height="28.3465" transform="translate(576.8504 -256.5354) rotate(90)"/><rect class="cls-7" x="374.1732" y="145.9843" width="28.3465" height="28.3465" transform="translate(548.5039 -228.189) rotate(90)"/><rect class="cls-6" x="402.5197" y="174.3307" width="28.3465" height="28.3465" transform="translate(605.1969 -228.189) rotate(90)"/><rect class="cls-7" x="374.1732" y="174.3307" width="28.3465" height="28.3465" transform="translate(576.8504 -199.8425) rotate(90)"/><rect class="cls-6" x="402.5197" y="202.6772" width="28.3465" height="28.3465" transform="translate(633.5433 -199.8425) rotate(90)"/><rect class="cls-7" x="374.1732" y="202.6772" width="28.3465" height="28.3465" transform="translate(605.1969 -171.4961) rotate(90)"/><rect class="cls-6" x="402.5197" y="231.0236" width="28.3465" height="28.3465" transform="translate(661.8898 -171.4961) rotate(90)"/><rect class="cls-7" x="374.1732" y="231.0236" width="28.3465" height="28.3465" transform="translate(633.5433 -143.1496) rotate(90)"/><rect class="cls-6" x="402.5197" y="259.3701" width="28.3465" height="28.3465" transform="translate(690.2362 -143.1496) rotate(90)"/><rect class="cls-7" x="374.1732" y="259.3701" width="28.3465" height="28.3465" transform="translate(661.8898 -114.8031) rotate(90)"/><rect class="cls-6" x="402.5197" y="287.7165" width="28.3465" height="28.3465" transform="translate(718.5827 -114.8031) rotate(90)"/><rect class="cls-7" x="374.1732" y="287.7165" width="28.3465" height="28.3465" transform="translate(690.2362 -86.4567) rotate(90)"/><rect class="cls-6" x="402.5197" y="316.063" width="28.3465" height="28.3465" transform="translate(746.9291 -86.4567) rotate(90)"/><rect class="cls-7" x="374.1732" y="316.063" width="28.3465" height="28.3465" transform="translate(718.5827 -58.1102) rotate(90)"/><rect class="cls-6" x="402.5197" y="344.4094" width="28.3465" height="28.3465" transform="translate(775.2756 -58.1102) rotate(90)"/><rect class="cls-7" x="374.1732" y="344.4094" width="28.3465" height="28.3465" transform="translate(746.9291 -29.7638) rotate(90)"/><rect class="cls-6" x="402.5197" y="372.7559" width="28.3465" height="28.3465" transform="translate(803.622 -29.7638) rotate(90)"/><rect class="cls-7" x="374.1732" y="372.7559" width="28.3465" height="28.3465" transform="translate(775.2756 -1.4173) rotate(90)"/><rect class="cls-6" x="402.5197" y="401.1024" width="28.3465" height="28.3465" transform="translate(831.9685 -1.4173) rotate(90)"/><rect class="cls-7" x="374.1732" y="401.1024" width="28.3465" height="28.3465" transform="translate(803.622 26.9291) rotate(90)"/><rect class="cls-6" x="345.8268" y="401.1024" width="28.3465" height="28.3465" transform="translate(720 830.5512) rotate(180)"/><rect class="cls-7" x="345.8268" y="372.7559" width="28.3465" height="28.3465" transform="translate(720 773.8583) rotate(180)"/><rect class="cls-6" x="317.4803" y="401.1024" width="28.3465" height="28.3465" transform="translate(663.3071 830.5512) rotate(180)"/><rect class="cls-7" x="317.4803" y="372.7559" width="28.3465" height="28.3465" transform="translate(663.3071 773.8583) rotate(180)"/><rect class="cls-6" x="289.1339" y="401.1024" width="28.3465" height="28.3465" transform="translate(606.6142 830.5512) rotate(180)"/><rect class="cls-7" x="289.1339" y="372.7559" width="28.3465" height="28.3465" transform="translate(606.6142 773.8583) rotate(180)"/><rect class="cls-6" x="260.7874" y="401.1024" width="28.3465" height="28.3465" transform="translate(549.9213 830.5512) rotate(180)"/><rect class="cls-7" x="260.7874" y="372.7559" width="28.3465" height="28.3465" transform="translate(549.9213 773.8583) rotate(180)"/><rect class="cls-6" x="232.4409" y="401.1024" width="28.3465" height="28.3465" transform="translate(493.2283 830.5512) rotate(180)"/><rect class="cls-7" x="232.4409" y="372.7559" width="28.3465" height="28.3465" transform="translate(493.2283 773.8583) rotate(180)"/><rect class="cls-6" x="204.0945" y="401.1024" width="28.3465" height="28.3465" transform="translate(436.5354 830.5512) rotate(180)"/><rect class="cls-7" x="204.0945" y="372.7559" width="28.3465" height="28.3465" transform="translate(436.5354 773.8583) rotate(180)"/><rect class="cls-6" x="175.748" y="401.1024" width="28.3465" height="28.3465" transform="translate(379.8425 830.5512) rotate(180)"/><rect class="cls-7" x="175.748" y="372.7559" width="28.3465" height="28.3465" transform="translate(379.8425 773.8583) rotate(180)"/><rect class="cls-6" x="147.4016" y="401.1024" width="28.3465" height="28.3465" transform="translate(323.1496 830.5512) rotate(180)"/><rect class="cls-7" x="147.4016" y="372.7559" width="28.3465" height="28.3465" transform="translate(323.1496 773.8583) rotate(180)"/><rect class="cls-6" x="119.0551" y="401.1024" width="28.3465" height="28.3465" transform="translate(266.4567 830.5512) rotate(180)"/><rect class="cls-7" x="119.0551" y="372.7559" width="28.3465" height="28.3465" transform="translate(266.4567 773.8583) rotate(180)"/><rect class="cls-6" x="90.7087" y="401.1024" width="28.3465" height="28.3465" transform="translate(209.7638 830.5512) rotate(180)"/><rect class="cls-7" x="90.7087" y="372.7559" width="28.3465" height="28.3465" transform="translate(209.7638 773.8583) rotate(180)"/><rect class="cls-6" x="62.3622" y="401.1024" width="28.3465" height="28.3465" transform="translate(153.0709 830.5512) rotate(180)"/><rect class="cls-7" x="62.3622" y="372.7559" width="28.3465" height="28.3465" transform="translate(153.0709 773.8583) rotate(180)"/><rect class="cls-6" x="34.0157" y="401.1024" width="28.3465" height="28.3465" transform="translate(96.378 830.5512) rotate(180)"/><rect class="cls-7" x="34.0157" y="372.7559" width="28.3465" height="28.3465" transform="translate(96.378 773.8583) rotate(180)"/><rect class="cls-6" x="5.6693" y="401.1024" width="28.3465" height="28.3465" transform="translate(39.685 830.5512) rotate(180)"/><rect class="cls-7" x="5.6693" y="372.7559" width="28.3465" height="28.3465" transform="translate(39.685 773.8583) rotate(180)"/><rect class="cls-6" x="5.6693" y="344.4094" width="28.3465" height="28.3465" transform="translate(-338.7402 378.4252) rotate(-90)"/><rect class="cls-7" x="34.0157" y="344.4094" width="28.3465" height="28.3465" transform="translate(-310.3937 406.7717) rotate(-90)"/><rect class="cls-6" x="5.6693" y="316.063" width="28.3465" height="28.3465" transform="translate(-310.3937 350.0787) rotate(-90)"/><rect class="cls-7" x="34.0157" y="316.063" width="28.3465" height="28.3465" transform="translate(-282.0472 378.4252) rotate(-90)"/><rect class="cls-6" x="5.6693" y="287.7165" width="28.3465" height="28.3465" transform="translate(-282.0472 321.7323) rotate(-90)"/><rect class="cls-7" x="34.0157" y="287.7165" width="28.3465" height="28.3465" transform="translate(-253.7008 350.0787) rotate(-90)"/><rect class="cls-6" x="5.6693" y="259.3701" width="28.3465" height="28.3465" transform="translate(-253.7008 293.3858) rotate(-90)"/><rect class="cls-7" x="34.0157" y="259.3701" width="28.3465" height="28.3465" transform="translate(-225.3543 321.7323) rotate(-90)"/><rect class="cls-6" x="5.6693" y="231.0236" width="28.3465" height="28.3465" transform="translate(-225.3543 265.0394) rotate(-90)"/><rect class="cls-7" x="34.0157" y="231.0236" width="28.3465" height="28.3465" transform="translate(-197.0079 293.3858) rotate(-90)"/><rect class="cls-6" x="5.6693" y="202.6772" width="28.3465" height="28.3465" transform="translate(-197.0079 236.6929) rotate(-90)"/><rect class="cls-7" x="34.0157" y="202.6772" width="28.3465" height="28.3465" transform="translate(-168.6614 265.0394) rotate(-90)"/><rect class="cls-6" x="5.6693" y="174.3307" width="28.3465" height="28.3465" transform="translate(-168.6614 208.3465) rotate(-90)"/><rect class="cls-7" x="34.0157" y="174.3307" width="28.3465" height="28.3465" transform="translate(-140.315 236.6929) rotate(-90)"/><rect class="cls-6" x="5.6693" y="145.9843" width="28.3465" height="28.3465" transform="translate(-140.315 180) rotate(-90)"/><rect class="cls-7" x="34.0157" y="145.9843" width="28.3465" height="28.3465" transform="translate(-111.9685 208.3465) rotate(-90)"/><rect class="cls-6" x="5.6693" y="117.6378" width="28.3465" height="28.3465" transform="translate(-111.9685 151.6535) rotate(-90)"/><rect class="cls-7" x="34.0157" y="117.6378" width="28.3465" height="28.3465" transform="translate(-83.622 180) rotate(-90)"/><rect class="cls-6" x="5.6693" y="89.2913" width="28.3465" height="28.3465" transform="translate(-83.622 123.3071) rotate(-90)"/><rect class="cls-7" x="34.0157" y="89.2913" width="28.3465" height="28.3465" transform="translate(-55.2756 151.6535) rotate(-90)"/><rect class="cls-6" x="5.6693" y="60.9449" width="28.3465" height="28.3465" transform="translate(-55.2756 94.9606) rotate(-90)"/><rect class="cls-7" x="34.0157" y="60.9449" width="28.3465" height="28.3465" transform="translate(-26.9291 123.3071) rotate(-90)"/><rect class="cls-6" x="5.6693" y="32.5984" width="28.3465" height="28.3465" transform="translate(-26.9291 66.6142) rotate(-90)"/><rect class="cls-7" x="34.0157" y="32.5984" width="28.3465" height="28.3465" transform="translate(1.4173 94.9606) rotate(-90)"/><rect class="cls-6" x="5.6693" y="4.252" width="28.3465" height="28.3465" transform="translate(1.4173 38.2677) rotate(-90)"/><rect class="cls-7" x="34.0157" y="4.252" width="28.3465" height="28.3465" transform="translate(29.7638 66.6142) rotate(-90)"/><rect class="cls-6" x="90.7087" y="188.5039" width="28.3465" height="28.3465"/><rect class="cls-7" x="90.7087" y="216.8504" width="28.3465" height="28.3465"/><path class="cls-8" d="M146.86,198.1543a1.2591,1.2591,0,0,1-.0289.2568,1.3178,1.3178,0,0,1-.1162.315,3.6313,3.6313,0,0,1-.2373.3969,5.4587,5.4587,0,0,1-.3926.504q-.2614.31-.5908.6591t-.6733.6924q-.3442.3442-.6831.6636t-.63.5718q-.62.5427-1.2207,1.0127t-1.1821.8379a7.5415,7.5415,0,0,1-1.87.8525,7.29,7.29,0,0,1-2.1119.3,2.9724,2.9724,0,0,1-1.2885-.2661,2.84,2.84,0,0,1-.95-.7173,3.0634,3.0634,0,0,1-.586-1.0557,4.0527,4.0527,0,0,1-.1987-1.2744,6.6212,6.6212,0,0,1,.5327-2.5527,11.6816,11.6816,0,0,1,1.4629-2.524,6.3012,6.3012,0,0,1,.5474-.63,5.5185,5.5185,0,0,1,.664-.5767,3.8979,3.8979,0,0,1,.7168-.4214,1.75,1.75,0,0,1,.7168-.1645,1.5908,1.5908,0,0,1,.4893.0825,2.0064,2.0064,0,0,1,.5039.2471,2.4325,2.4325,0,0,1,.47.4165,2.3655,2.3655,0,0,1,.3774.5908,2.7746,2.7746,0,0,1,.31.9883,2.9335,2.9335,0,0,1-.0337.4023,1.7667,1.7667,0,0,1-.126.45,1.1209,1.1209,0,0,1-.247.3633.5459.5459,0,0,1-.397.15.8337.8337,0,0,1-.5864-.2085,1.6858,1.6858,0,0,1-.3682-.4844,3.6817,3.6817,0,0,1-.2275-.5474,1.95,1.95,0,0,0-.1651-.3974,1.12,1.12,0,0,0-.5762.2666,3.4059,3.4059,0,0,0-.5766.61,5.8163,5.8163,0,0,0-.5279.8575,8.1512,8.1512,0,0,0-.436,1.0273,7.65,7.65,0,0,0-.2954,1.1094,5.92,5.92,0,0,0-.1069,1.1,1.1966,1.1966,0,0,0,.3589.8623,1.1339,1.1339,0,0,0,.7553.4067,5.7063,5.7063,0,0,0,2.127-.4067,9.3434,9.3434,0,0,0,1.9717-1.0855q.6679-.4746,1.5014-1.1626t1.6763-1.5014q.2805-.2718.5571-.5474t.523-.499a4.8722,4.8722,0,0,1,.4458-.3633.6194.6194,0,0,1,.3247-.1406.3288.3288,0,0,1,.29.1694A.67.67,0,0,1,146.86,198.1543Z" transform="translate(0 0)"/><path class="cls-8" d="M166.5771,198.4741a.8009.8009,0,0,1-.0439.2276,3.0722,3.0722,0,0,1-.1113.3,3.3269,3.3269,0,0,1-.16.3247q-.0922.1647-.1792.31a6.2041,6.2041,0,0,1-.4165.562q-.2622.3193-.5815.6685t-.6783.6977q-.358.3488-.707.649-.2812.2328-.6592.5136a7.7256,7.7256,0,0,1-.8042.523,5.63,5.63,0,0,1-.8672.4023,2.4828,2.4828,0,0,1-.8476.16,1.8538,1.8538,0,0,1-.7315-.15,1.6339,1.6339,0,0,1-.6587-.5669,3.9848,3.9848,0,0,1-.5375-1.1626,10.7753,10.7753,0,0,1-.3682-1.938c-.0068-.0771-.0147-.1987-.0244-.3633l-.0293-.4941c-.0093-.1646-.021-.3081-.0337-.4312s-.0259-.184-.0386-.184c-.0517,0-.1377.0776-.2568.2324s-.2617.36-.4263.6152-.3442.5493-.5381.8819-.394.6767-.6006,1.0317q-.3875.6782-.7314,1.2163a8.7983,8.7983,0,0,1-.6489.9009,3.0089,3.0089,0,0,1-.5913.5571,1.0183,1.0183,0,0,1-.5762.1939,1.39,1.39,0,0,1-.7271-.17,1.1562,1.1562,0,0,1-.4453-.5229,3.06,3.06,0,0,1-.2329-.9107q-.0674-.5573-.0869-1.3227-.0292-1.2789-.0825-1.9956t-.15-.7173c-.0777,0-.2071.1006-.3877.3a9.4631,9.4631,0,0,0-.6446.8237q-.3727.5231-.8134,1.2305t-.9063,1.521q-.1157.2132-.2807.4941t-.3394.5718q-.1743.2907-.3437.562t-.3052.4649a1.1706,1.1706,0,0,1-.4263.3828,1.1385,1.1385,0,0,1-.5327.1308,1.29,1.29,0,0,1-.6782-.1694,1.3228,1.3228,0,0,1-.4556-.46,2.1879,2.1879,0,0,1-.2568-.6879,4.1578,4.1578,0,0,1-.0821-.8428q0-.3971.0191-.7168c.0132-.2134.0322-.4277.0581-.6445s.0566-.4439.0923-.6831.0757-.5132.1211-.8233q.0577-.4073.0869-.8574t.0581-.8818q.0292-.4308.0679-.7994a3.7576,3.7576,0,0,1,.1069-.61,3.5821,3.5821,0,0,1,.126-.3535,1.1775,1.1775,0,0,1,.2226-.3492,1.1819,1.1819,0,0,1,.92-.3823.9269.9269,0,0,1,.4844.1114.7436.7436,0,0,1,.2813.3,1.35,1.35,0,0,1,.13.4361,3.7442,3.7442,0,0,1,.0342.518,4.25,4.25,0,0,1-.063.63q-.063.3978-.1553.877t-.208.998c-.0776.3452-.15.6768-.2182.9927s-.1275.6025-.1792.8579-.0869.4536-.1065.5957c.0127-.0259.05-.09.1114-.1938s.1357-.229.2231-.378.1792-.3066.2759-.4746.1889-.3261.2763-.4746.1626-.2778.2276-.3877.103-.1777.1162-.2036q.1743-.2907.4067-.6538t.4844-.7363q.252-.3729.499-.7124t.4507-.5713a3.1987,3.1987,0,0,1,.9253-.7461,2.243,2.243,0,0,1,1.0415-.252,1.3264,1.3264,0,0,1,.9883.4068,2.09,2.09,0,0,1,.5327,1.0659,5.39,5.39,0,0,1,.0776.61q.0294.3685.0435.7706t.0244.8085q.01.4073.0147.7271t.0146.5229c.0064.1358.0191.2037.0386.2037.0581,0,.1421-.0811.2519-.2422s.2325-.3653.3682-.61.2774-.51.4263-.7944.2905-.5459.4262-.7852q.3391-.5712.7168-1.1a9.5245,9.5245,0,0,1,.751-.93,4.549,4.549,0,0,1,.7124-.6391,1.092,1.092,0,0,1,.6006-.2373,1.9223,1.9223,0,0,1,.3779.0386,2.0826,2.0826,0,0,1,.3731.1113,1.6249,1.6249,0,0,1,.3242.1743.7812.7812,0,0,1,.2231.228,1.966,1.966,0,0,1,.2422.5713,4.61,4.61,0,0,1,.1114.688q.0336.378.0483.8335t.0728,1.0073a7.1142,7.1142,0,0,0,.31,1.5791q.2037.5721.5811.5718a1.107,1.107,0,0,0,.4311-.1211,5.8171,5.8171,0,0,0,.5816-.31q.3148-.189.6489-.4214t.625-.4649q.32-.2518.61-.5185t.5767-.5474q.2856-.2812.5815-.5864t.6246-.6441a.6409.6409,0,0,1,.4653-.2036Q166.5769,198.0283,166.5771,198.4741Z" transform="translate(0 0)"/><path class="cls-8" d="M178.7075,198.4546a2.3943,2.3943,0,0,1,.29-.2808.5267.5267,0,0,1,.3394-.1259.2864.2864,0,0,1,.2612.121.8541.8541,0,0,1,.0777.4312,2.0842,2.0842,0,0,1-.0918.5767,1.5809,1.5809,0,0,1-.2569.5278q-.2035.252-.499.5767t-.6543.6782q-.3582.3537-.7554.707t-.79.6733q-.3925.32-.7656.5816a5.109,5.109,0,0,1-.6929.4165q-.378.1838-.6924.31a5.41,5.41,0,0,1-.625.2081,4.5955,4.5955,0,0,1-.63.1215,5.81,5.81,0,0,1-.6977.0386,1.5013,1.5013,0,0,1-.78-.2036,1.8366,1.8366,0,0,1-.5908-.5718,2.875,2.875,0,0,1-.3828-.8862,4.5106,4.5106,0,0,1-.1358-1.148q-.33.3971-.7075.8135t-.78.8091q-.4022.3925-.8042.7363t-.77.6055a4.5259,4.5259,0,0,1-.688.4121,1.3433,1.3433,0,0,1-.5522.15,1.988,1.988,0,0,1-.8672-.1743,1.7588,1.7588,0,0,1-.5957-.4507,1.8233,1.8233,0,0,1-.3443-.62,2.1777,2.1777,0,0,1-.1113-.6733q0-.1547.0147-.3824c.01-.1518.0239-.3066.0434-.4653s.0435-.3149.0728-.47a3.1243,3.1243,0,0,1,.1015-.4073,7.915,7.915,0,0,1,.4654-1.2158,12.6456,12.6456,0,0,1,.6879-1.2593q.3869-.6253.8379-1.2163a11.1107,11.1107,0,0,1,.93-1.0752,7.5956,7.5956,0,0,1,.959-.8286,3.5083,3.5083,0,0,1,.9155-.4892,1.67,1.67,0,0,1,.3-.1162c.1294-.0386.2681-.0743.417-.1065s.292-.0581.4312-.0776a2.5744,2.5744,0,0,1,.3339-.0288,1.0828,1.0828,0,0,1,.46.0966,1.2417,1.2417,0,0,1,.3682.2618,1.57,1.57,0,0,1,.2661.3681,1.4467,1.4467,0,0,1,.1455.4263,1.4894,1.4894,0,0,1,.3393.0581,1.0823,1.0823,0,0,1,.2954.1357.7245.7245,0,0,1,.2129.2178.542.542,0,0,1,.0826.2954,1.5362,1.5362,0,0,1-.0337.2715q-.0345.1743-.0826.3779c-.0322.1358-.0712.2759-.1162.4214s-.0874.2827-.1259.4117-.0777.29-.1163.48-.0747.3872-.1069.5909-.0581.4038-.0771.6-.0293.37-.0293.5186a3.65,3.65,0,0,0,.2231,1.4727.7521.7521,0,0,0,.7266.4746,1.7788,1.7788,0,0,0,.6152-.1455,6.5312,6.5312,0,0,0,.8281-.4019q.4556-.2563.9693-.6055t1.0268-.7607q.5135-.4116,1.003-.8672T178.7075,198.4546Zm-9.7275,2.4028a8.65,8.65,0,0,0,.62-.78,11.3858,11.3858,0,0,0,.6348-.998,9.39,9.39,0,0,0,.5424-1.1289,6.1481,6.1481,0,0,0,.3438-1.1626.4835.4835,0,0,0-.1694-.2954.4.4,0,0,0-.2183-.0728,1.3461,1.3461,0,0,0-.4551.0874,4.1234,4.1234,0,0,0-.4555.1939,2.6728,2.6728,0,0,0-.625.47,8.0753,8.0753,0,0,0-.7461.8237q-.3824.48-.7554,1.0513a12.9776,12.9776,0,0,0-.6685,1.1431,8.0307,8.0307,0,0,0-.4751,1.1,2.9342,2.9342,0,0,0-.1792.9253,1.78,1.78,0,0,0,.0147.2231,1.3512,1.3512,0,0,0,.0434.2129.5016.5016,0,0,0,.0777.16.151.151,0,0,0,.126.0625.7358.7358,0,0,0,.2954-.1451,6.5616,6.5616,0,0,0,.5332-.4072q.3141-.2615.707-.6343T168.98,200.8574Z" transform="translate(0 0)"/><path class="cls-8" d="M193.6475,197.9316a.7905.7905,0,0,1-.0386.1988,1.52,1.52,0,0,1-.15.3193,2.8867,2.8867,0,0,1-.32.4263,4.8091,4.8091,0,0,1-.5474.5185,8.3792,8.3792,0,0,1-.8281.5816q-.5091.3193-1.1338.6635t-1.3228.7071q-.6972.3633-1.3852.7026t-1.3369.6489q-.65.3106-1.1724.5523a5.203,5.203,0,0,0-.6733.373q-.3348.2182-.6494.417a5.89,5.89,0,0,1-.61.3389,1.3011,1.3011,0,0,1-.5571.1406,2.0811,2.0811,0,0,1-.5376-.0679,1.4007,1.4007,0,0,1-.4556-.2084,1,1,0,0,1-.3144-.3633,1.1591,1.1591,0,0,1-.1167-.5425.6246.6246,0,0,1,.184-.4507,1.7925,1.7925,0,0,1,.4507-.3291,3.9275,3.9275,0,0,1,.562-.2422q.2952-.1019.5088-.18.2908-.1062.5474-.1792a2.188,2.188,0,0,0,.4214-.16,2.3116,2.3116,0,0,0,.4941-.3731,4.5218,4.5218,0,0,0,.4409-.5039,6.8117,6.8117,0,0,0,.3921-.581q.1847-.3055.3491-.5865a2.07,2.07,0,0,0,.1841-.3969q.077-.2235.1358-.4458a4.0218,4.0218,0,0,0,.0869-.4214,2.4079,2.4079,0,0,0,.0293-.3443,1.6408,1.6408,0,0,0-.1748-.8183.505.505,0,0,0-.4356-.3052,1.0853,1.0853,0,0,0-.5039.16,4.8262,4.8262,0,0,0-.5913.3877,7.4383,7.4383,0,0,0-.5713.48q-.2716.2519-.436.4262-.3882.4169-.8189.9351t-.8237,1.0752q-.3918.5574-.7168,1.1338a6.49,6.49,0,0,0-.5088,1.1289,3.8789,3.8789,0,0,0-.1743.7553q-.0579.4263-.0918.8916t-.0532.9444q-.02.48-.0488.9253-.0485.7264-.0533,1.4487a7.2282,7.2282,0,0,1-.1211,1.3223,1.2627,1.2627,0,0,1-.1357.3681,1.18,1.18,0,0,1-1.0557.61,1.0465,1.0465,0,0,1-.354-.0723,1.47,1.47,0,0,1-.373-.2036,1.3751,1.3751,0,0,1-.2954-.3.6156.6156,0,0,1-.1211-.3633q0-.2036.0195-.4892t.0532-.61c.0225-.2168.0469-.436.0728-.6592s.0513-.4326.0771-.6294.0489-.373.0679-.5283.0357-.271.0488-.3486q.1253-.9207.2325-2.0781t.1645-2.3789q.019-.31.0342-.7749t.0288-.9351q.0147-.47.0293-.8623c.0093-.2617.0176-.4507.0239-.5669a3.5472,3.5472,0,0,1,.3975-1.521.9953.9953,0,0,1,.9009-.5039,1.0283,1.0283,0,0,1,.4458.1016,1.2484,1.2484,0,0,1,.373.2714,1.4647,1.4647,0,0,1,.2568.3731.9411.9411,0,0,1,.0967.4067,3.8357,3.8357,0,0,1-.0385.4751q-.0388.2908-.0923.61t-.1162.63q-.063.31-.1114.5229.2037-.3392.4409-.7168t.48-.7412q.2418-.3633.4844-.6782a4.6616,4.6616,0,0,1,.4653-.5283q.4065-.397.8233-.7412a6.2954,6.2954,0,0,1,.8525-.5958,4.376,4.376,0,0,1,.9107-.3969,3.381,3.381,0,0,1,.998-.1455,1.8127,1.8127,0,0,1,.8091.1987,2.2749,2.2749,0,0,1,.7217.5713,3.0626,3.0626,0,0,1,.5234.9014,3.3043,3.3043,0,0,1,.2036,1.1962,2.782,2.782,0,0,1-.102.7124,4.7083,4.7083,0,0,1-.2759.76,4.8045,4.8045,0,0,1-.417.7271,3.8143,3.8143,0,0,1-.5327.62q.6108-.31,1.2886-.6782t1.3613-.7652q.6834-.3969,1.3467-.7993t1.2256-.7607q.2813-.1839.4892-.3052a.8493.8493,0,0,1,.4312-.1211.32.32,0,0,1,.3491.3491,1.2568,1.2568,0,0,1-.01.1548A1.0465,1.0465,0,0,0,193.6475,197.9316Z" transform="translate(0 0)"/><path class="cls-8" d="M214.43,198.2515a.7332.7332,0,0,1-.0825.3,2.8389,2.8389,0,0,1-.2134.3681c-.0869.1294-.1826.2583-.2857.3872s-.2.2491-.2905.3589q-.3976.4651-.8672.9785t-.9931,1.0074q-.5231.4942-1.0948.9448a8.7133,8.7133,0,0,1-1.187.79,6.9488,6.9488,0,0,1-1.2549.5425,4.2829,4.2829,0,0,1-1.3076.2036,2.6228,2.6228,0,0,1-.8818-.15,1.9989,1.9989,0,0,1-.751-.47,2.2973,2.2973,0,0,1-.5181-.814,3.26,3.26,0,0,1-.1938-1.1914c0-.0581.0049-.1455.0146-.2617s.0225-.2407.0386-.373.0337-.2632.0532-.3926a2.2693,2.2693,0,0,1,.0679-.3193q-.252.3192-.5957.7314t-.7461.8428q-.4021.4314-.8433.8476a9.7949,9.7949,0,0,1-.8764.7412,5.0442,5.0442,0,0,1-.8574.5235,1.8468,1.8468,0,0,1-.78.1982,2.2933,2.2933,0,0,1-.8526-.15,1.73,1.73,0,0,1-.63-.4165,1.83,1.83,0,0,1-.3872-.6347,2.3,2.3,0,0,1-.1358-.8042,4.7634,4.7634,0,0,1,.063-.7027,4.6425,4.6425,0,0,1,.2178-.8476q-.2418.3486-.5713.809t-.7075.95q-.378.4893-.7847.9639a10.3178,10.3178,0,0,1-.8091.8477,4.9058,4.9058,0,0,1-.7749.6006,1.3377,1.3377,0,0,1-.6831.228,2.1779,2.1779,0,0,1-.7461-.126,2.0756,2.0756,0,0,1-.62-.3491,2.0315,2.0315,0,0,1-.4556-.5278,1.999,1.999,0,0,1-.2519-.6734,2.1866,2.1866,0,0,1-.0484-.3681q-.0095-.1941-.01-.3975,0-.4453.0488-.9688t.1211-1.061q.0724-.5376.1694-1.0464t.1939-.92q.0966-.4116.1841-.6924a1.2142,1.2142,0,0,1,.145-.3491q.1941-.145.3393-.2324a1.5463,1.5463,0,0,1,.2857-.1358,1.4971,1.4971,0,0,1,.2861-.0678,2.55,2.55,0,0,1,.3291-.0191,1.1592,1.1592,0,0,1,.2324.0288,1.1012,1.1012,0,0,1,.2618.0923.6207.6207,0,0,1,.2133.1743.4345.4345,0,0,1,.0869.2759.837.837,0,0,1-.0239.2036c-.0161.0645-.0405.1455-.0727.2422-.0259.0972-.0518.1875-.0777.2715s-.0532.1792-.0825.2856-.061.2325-.0967.378-.0791.3247-.1308.5376q-.0777.3778-.145.7944t-.1119.8042q-.0432.3874-.0678.7075c-.0161.2129-.024.378-.024.4942a1.3031,1.3031,0,0,0,.0826.5327q.0819.1743.1884.1743a.6687.6687,0,0,0,.31-.15,5.0616,5.0616,0,0,0,.5137-.4312q.3-.2812.6782-.6977t.8042-.95q.2615-.329.5376-.6782t.5234-.6685q.2469-.3193.4409-.5859a4.6956,4.6956,0,0,0,.2906-.441q.2518-.4357.4843-.8911t.47-.8383a4.1787,4.1787,0,0,1,.4751-.6392.86.86,0,0,1,.4985-.2959,2.257,2.257,0,0,1,.3877.0342,1.6154,1.6154,0,0,1,.3535.1015.7551.7551,0,0,1,.2569.1695.3464.3464,0,0,1,.0971.247,2.414,2.414,0,0,1-.0971.64q-.0967.3486-.2422.751t-.315.8574q-.1692.4555-.3149.9492-.1356.4944-.2373,1.0513a6.4865,6.4865,0,0,0-.1016,1.1675q0,.5427.2227.5429a1.1161,1.1161,0,0,0,.5522-.1938,5.1034,5.1034,0,0,0,.6734-.499q.3537-.3055.727-.6685t.7022-.6929q.0966-.0966.2617-.2763c.11-.1192.229-.252.3584-.397s.2632-.3018.4023-.47.2744-.334.4068-.4986.2548-.3247.3681-.48.2051-.2906.2759-.4068a1.19,1.19,0,0,1,.4311-.436,1.4183,1.4183,0,0,1,.5572-.1646.93.93,0,0,1,.436.0918.9643.9643,0,0,1,.2861.2232.7493.7493,0,0,1,.1548.2807.9357.9357,0,0,1,.0435.2569,1.8635,1.8635,0,0,1-.0674.5278q-.0681.2278-.126.373-.1362.4944-.2568,1.1143a6.7347,6.7347,0,0,0-.1211,1.2983,1.448,1.448,0,0,0,.0918.5523.92.92,0,0,0,.2519.3584.8986.8986,0,0,0,.378.189,1.93,1.93,0,0,0,.46.0532,3.03,3.03,0,0,0,.9737-.1841,5.6892,5.6892,0,0,0,1.2011-.61,14.6969,14.6969,0,0,0,1.4825-1.1142q.8188-.6878,1.8168-1.7051a3.6757,3.6757,0,0,0,.2955-.33,2.5545,2.5545,0,0,1,.2421-.271,1.0027,1.0027,0,0,1,.2618-.1841.8075.8075,0,0,1,.3535-.0678.3739.3739,0,0,1,.2905.1064A.4027.4027,0,0,1,214.43,198.2515Z" transform="translate(0 0)"/><path class="cls-8" d="M229.3408,198.4355a2.1079,2.1079,0,0,1-.1162.4214,3.2389,3.2389,0,0,1-.32.6441q-.31.4848-.7363,1.0561t-.93,1.1387q-.504.5661-1.0752,1.0947a9.4457,9.4457,0,0,1-1.1773.93,6.4686,6.4686,0,0,1-1.2255.644,3.36,3.36,0,0,1-1.2305.2422,2.3014,2.3014,0,0,1-1.9136-.8623,4.3014,4.3014,0,0,1-.6929-2.664q-.2615.3486-.581.7168t-.6543.7119q-.334.3442-.6587.6494t-.6055.5376a10.3863,10.3863,0,0,1-1.4873,1.0317,2.9333,2.9333,0,0,1-1.4487.4121,1.517,1.517,0,0,1-.44-.102,2.05,2.05,0,0,1-.6011-.3438,2.1512,2.1512,0,0,1-.5327-.6538,2.1125,2.1125,0,0,1-.2276-1.0322,9.3442,9.3442,0,0,1,.063-1.1143q.063-.5229.1743-1.0268t.2666-1.0122q.1547-.5091.3291-1.0708.0683-.2037.1695-.4893t.2036-.5571q.1019-.2711.1792-.48a1.2715,1.2715,0,0,0,.0776-.2471.8673.8673,0,0,1,.1548-.3681,2.4055,2.4055,0,0,1,.3247-.3877,2.2277,2.2277,0,0,1,.3877-.3052.6829.6829,0,0,1,.334-.1211.9668.9668,0,0,1,.4849.1211,1.323,1.323,0,0,1,.5761.6538.8975.8975,0,0,1,.0728.32,1.0112,1.0112,0,0,1-.0532.252,4.2434,4.2434,0,0,1-.15.4023q-.0968.2278-.2178.4942c-.0811.1772-.1665.3569-.2568.5376a6.6916,6.6916,0,0,0-.3487.8574q-.1647.4893-.2861,1.0073t-.1934,1.0078a5.8332,5.8332,0,0,0-.0727.8477c0,.0454.0015.1006.0049.165a.9049.9049,0,0,0,.0288.189.6567.6567,0,0,0,.063.16.112.112,0,0,0,.0971.0678,1.1694,1.1694,0,0,0,.5376-.1938,6.1941,6.1941,0,0,0,.7266-.5039q.3926-.31.8091-.6929t.8042-.7651q.3874-.3831.707-.7217t.5039-.562a11.7881,11.7881,0,0,0,.7847-1.003,12.2253,12.2253,0,0,0,.6592-1.0708c.1093-.1933.2114-.3681.3051-.5229a2.5142,2.5142,0,0,1,.2857-.3926,1.1017,1.1017,0,0,1,.3052-.2422.783.783,0,0,1,.3632-.082.8325.8325,0,0,1,.6153.2373,1.1211,1.1211,0,0,1,.2373.8091,1.2111,1.2111,0,0,1-.0869.271q-.0872.2234-.1988.48t-.2133.4848c-.0679.1514-.108.2471-.1211.2857a3.9668,3.9668,0,0,0-.1792.6054q-.0726.334-.1163.6685t-.0581.64q-.0146.3048-.0146.5279a2.0045,2.0045,0,0,0,.2959,1.1675.9437.9437,0,0,0,.8184.4213,1.96,1.96,0,0,0,.78-.184,5.6392,5.6392,0,0,0,.8765-.4893,9.44,9.44,0,0,0,.92-.707q.4652-.4022.9063-.8428t.8378-.8916q.3971-.45.7168-.8477.1165-.1355.252-.2763a2.8978,2.8978,0,0,1,.2764-.252,2.48,2.48,0,0,1,.2617-.1841.4145.4145,0,0,1,.1982-.0722,1.1836,1.1836,0,0,1,.1455.0093.3481.3481,0,0,1,.1455.0537.3212.3212,0,0,1,.1114.13A.5287.5287,0,0,1,229.3408,198.4355Z" transform="translate(0 0)"/><path class="cls-8" d="M244.4551,198.4355a2.1151,2.1151,0,0,1-.1162.4214,3.24,3.24,0,0,1-.32.6441q-.31.4848-.7363,1.0561t-.93,1.1387q-.5038.5661-1.0752,1.0947a9.4449,9.4449,0,0,1-1.1772.93,6.4663,6.4663,0,0,1-1.2256.644,3.36,3.36,0,0,1-1.2305.2422,2.3011,2.3011,0,0,1-1.9135-.8623,4.3008,4.3008,0,0,1-.6929-2.664q-.2614.3486-.5811.7168t-.6543.7119q-.3339.3442-.6586.6494t-.6055.5376a10.3863,10.3863,0,0,1-1.4873,1.0317,2.9333,2.9333,0,0,1-1.4487.4121,1.5181,1.5181,0,0,1-.4405-.102,2.0523,2.0523,0,0,1-.6011-.3438,2.1527,2.1527,0,0,1-.5327-.6538,2.1136,2.1136,0,0,1-.2275-1.0322,9.3442,9.3442,0,0,1,.063-1.1143q.063-.5229.1743-1.0268t.2666-1.0122q.1545-.5091.3291-1.0708.0681-.2037.1694-.4893t.2036-.5571q.1018-.2711.1792-.48a1.2676,1.2676,0,0,0,.0777-.2471.866.866,0,0,1,.1548-.3681,2.4055,2.4055,0,0,1,.3247-.3877,2.224,2.224,0,0,1,.3877-.3052.6826.6826,0,0,1,.334-.1211.9667.9667,0,0,1,.4848.1211,1.3238,1.3238,0,0,1,.5762.6538.8992.8992,0,0,1,.0727.32,1.0065,1.0065,0,0,1-.0532.252,4.189,4.189,0,0,1-.15.4023q-.0966.2278-.2177.4942c-.0811.1772-.1665.3569-.2569.5376a6.7067,6.7067,0,0,0-.3486.8574q-.1649.4893-.2861,1.0073t-.1934,1.0078a5.8348,5.8348,0,0,0-.0728.8477c0,.0454.0015.1006.0049.165a.9115.9115,0,0,0,.0288.189.6567.6567,0,0,0,.063.16.1121.1121,0,0,0,.0972.0678,1.17,1.17,0,0,0,.5376-.1938,6.2108,6.2108,0,0,0,.7266-.5039q.3925-.31.809-.6929t.8042-.7651q.3875-.3831.7071-.7217t.5039-.562a11.7861,11.7861,0,0,0,.7846-1.003,12.2253,12.2253,0,0,0,.6592-1.0708c.1094-.1933.2114-.3681.3052-.5229a2.5205,2.5205,0,0,1,.2856-.3926,1.1031,1.1031,0,0,1,.3052-.2422.7838.7838,0,0,1,.3633-.082.8324.8324,0,0,1,.6152.2373,1.1211,1.1211,0,0,1,.2373.8091,1.2111,1.2111,0,0,1-.0869.271q-.0871.2234-.1987.48t-.2134.4848c-.0679.1514-.1079.2471-.1211.2857a3.9781,3.9781,0,0,0-.1792.6054q-.0725.334-.1162.6685t-.0581.64q-.0147.3048-.0146.5279a2.0045,2.0045,0,0,0,.2959,1.1675.9436.9436,0,0,0,.8183.4213,1.9608,1.9608,0,0,0,.78-.184,5.6431,5.6431,0,0,0,.8764-.4893,9.4286,9.4286,0,0,0,.9205-.707q.465-.4022.9062-.8428t.8379-.8916q.3969-.45.7168-.8477.1164-.1355.2519-.2763a2.9222,2.9222,0,0,1,.2764-.252,2.5006,2.5006,0,0,1,.2617-.1841.4148.4148,0,0,1,.1983-.0722,1.1848,1.1848,0,0,1,.1455.0093.3486.3486,0,0,1,.1455.0537.3218.3218,0,0,1,.1113.13A.5285.5285,0,0,1,244.4551,198.4355Zm-6.3072-7.3344a1.4265,1.4265,0,0,1-.102.4648,3.6843,3.6843,0,0,1-.2856.5962,4.0649,4.0649,0,0,1-.4507.62,3.3818,3.3818,0,0,1-.5957.5381h.01a3.2972,3.2972,0,0,1-.5571.2906,4.9782,4.9782,0,0,1-.6831.2275,6.898,6.898,0,0,1-.7266.1455,4.8129,4.8129,0,0,1-.688.0532,4.4577,4.4577,0,0,1-1.0659-.126,4.0694,4.0694,0,0,1-.9492-.3584,3.6009,3.6009,0,0,1-.78-.5571,3.34,3.34,0,0,1-.5761-.7119,2.327,2.327,0,0,1-.1309-.2959q-.063-.1692-.1113-.3291a2.7722,2.7722,0,0,1-.0728-.2861,1.1473,1.1473,0,0,1-.0244-.1646,1.028,1.028,0,0,1,.0923-.47.7325.7325,0,0,1,.2324-.2764.774.774,0,0,1,.3-.126,1.6933,1.6933,0,0,1,.2954-.0288,1.26,1.26,0,0,1,.625.16.6955.6955,0,0,1,.3345.5669,1.6348,1.6348,0,0,0,.1162.5039,1.2435,1.2435,0,0,0,.3291.4844,1.91,1.91,0,0,0,.61.3584,2.5141,2.5141,0,0,0,.9013.1455,1.77,1.77,0,0,0,.2954-.0293c.1128-.02.2276-.0435.3438-.0728a2.5933,2.5933,0,0,0,.3442-.1113,2.1408,2.1408,0,0,0,.2857-.1357,1.2625,1.2625,0,0,0,.33-.2808,1.9679,1.9679,0,0,0,.2324-.3535,3.1767,3.1767,0,0,0,.1645-.3779q.0681-.189.1162-.3443a.69.69,0,0,1,.16-.271,1.1317,1.1317,0,0,1,.2422-.1938,1.1051,1.1051,0,0,1,.2715-.1162.968.968,0,0,1,.2563-.0391,1.053,1.053,0,0,1,.6592.1939A.8478.8478,0,0,1,238.1479,191.1011Z" transform="translate(0 0)"/><path class="cls-8" d="M255.1514,196.3716a3.6389,3.6389,0,0,0-.61-.7652,11.8427,11.8427,0,0,0-.9883-.872,4.1468,4.1468,0,0,1-.8574-.8721,1.308,1.308,0,0,1-.2471-.7075,1.4863,1.4863,0,0,1,.0581-.4019,2.2474,2.2474,0,0,1,.1548-.4018,2.2218,2.2218,0,0,1,.2232-.3589,1.3419,1.3419,0,0,1,.271-.271,1.4363,1.4363,0,0,1,.3491-.1841q.2226-.0872.4985-.17t.5913-.16q.315-.0776.6348-.1357.397-.077.8037-.1646t.7754-.1743q.3676-.0871.6782-.1694t.4942-.1406c.103-.0455.2226-.0953.3584-.15a1.0166,1.0166,0,0,1,.3779-.0821.515.515,0,0,1,.373.1114.5814.5814,0,0,1,.1114.4116.692.692,0,0,1-.1162.3486,1.9538,1.9538,0,0,1-.33.3975,3.2644,3.2644,0,0,1-.523.3974,5.0737,5.0737,0,0,1-.6977.3584,4.3334,4.3334,0,0,1-.46.15c-.1973.0552-.4087.1114-.6348.17s-.457.1147-.6928.1694-.4488.1079-.6392.16-.3457.1-.4653.1455-.1826.084-.189.1162q0,.0388.0777.1113c.0517.0483.1127.1016.184.16s.147.1181.2276.18.15.1113.2085.15a8.6125,8.6125,0,0,1,1.1723,1.0756,5.6559,5.6559,0,0,1,.8379,1.2207,5.8064,5.8064,0,0,1,.499,1.4434,8.4565,8.4565,0,0,1,.1646,1.7344,5.47,5.47,0,0,1-.1309,1.1577,8.01,8.01,0,0,1-.3584,1.1968,7.9273,7.9273,0,0,1-.5424,1.1333,5.9843,5.9843,0,0,1-.6929.9692,4.7925,4.7925,0,0,1-.7652.7022,5.5171,5.5171,0,0,1-.8916.538,4.9937,4.9937,0,0,1-.9492.3438,3.8777,3.8777,0,0,1-.94.1211,1.839,1.839,0,0,1-.814-.1743,2.1712,2.1712,0,0,1-.63-.46,2.6842,2.6842,0,0,1-.455-.6538,4.7606,4.7606,0,0,1-.3-.751,5.0152,5.0152,0,0,1-.1695-.7509,4.585,4.585,0,0,1-.0537-.649,6.0345,6.0345,0,0,1,.1651-1.3808,7.8669,7.8669,0,0,1,.45-1.3565,7.99,7.99,0,0,1,.6733-1.2353,6.0188,6.0188,0,0,1,.8384-1.0122,3.9942,3.9942,0,0,1,.9443-.6831,2.16,2.16,0,0,1,.9883-.252,1.3045,1.3045,0,0,1,.6782.1841Zm.2905.8721a1.8845,1.8845,0,0,0-1.0078.2807,3.2784,3.2784,0,0,0-.8184.7271,5.03,5.03,0,0,0-.63.9975,9.0907,9.0907,0,0,0-.4458,1.0952,7.5423,7.5423,0,0,0-.2661,1.0269,4.6472,4.6472,0,0,0-.0874.7847,3.2625,3.2625,0,0,0,.1646,1.1626q.1647.4167.3974.4165a1.1884,1.1884,0,0,0,.5328-.1548,3.5485,3.5485,0,0,0,.6054-.4019,4.5967,4.5967,0,0,0,.5816-.5669,4.1475,4.1475,0,0,0,.46-.64,7.8106,7.8106,0,0,0,.6446-1.4483,4.7923,4.7923,0,0,0,.2373-1.4873,4.9494,4.9494,0,0,0-.1358-1.3564Q255.5389,197.2439,255.4419,197.2437Z" transform="translate(0 0)"/><path class="cls-8" d="M276.6118,198.4355a2.1079,2.1079,0,0,1-.1162.4214,3.2389,3.2389,0,0,1-.32.6441q-.31.4848-.7363,1.0561t-.93,1.1387q-.504.5661-1.0752,1.0947a9.4457,9.4457,0,0,1-1.1773.93,6.4686,6.4686,0,0,1-1.2255.644,3.36,3.36,0,0,1-1.2305.2422,2.3014,2.3014,0,0,1-1.9136-.8623,4.3014,4.3014,0,0,1-.6929-2.664q-.2615.3486-.581.7168t-.6543.7119q-.334.3442-.6587.6494t-.6055.5376a10.3863,10.3863,0,0,1-1.4873,1.0317,2.9333,2.9333,0,0,1-1.4487.4121,1.517,1.517,0,0,1-.44-.102,2.05,2.05,0,0,1-.6011-.3438,2.1512,2.1512,0,0,1-.5327-.6538,2.1125,2.1125,0,0,1-.2276-1.0322,9.3442,9.3442,0,0,1,.063-1.1143q.063-.5229.1743-1.0268t.2666-1.0122q.1547-.5091.3291-1.0708.0681-.2037.1695-.4893t.2036-.5571q.1019-.2711.1792-.48a1.2715,1.2715,0,0,0,.0776-.2471.8673.8673,0,0,1,.1548-.3681,2.4055,2.4055,0,0,1,.3247-.3877,2.2277,2.2277,0,0,1,.3877-.3052.6829.6829,0,0,1,.334-.1211.9671.9671,0,0,1,.4849.1211,1.323,1.323,0,0,1,.5761.6538.8975.8975,0,0,1,.0728.32,1.0112,1.0112,0,0,1-.0532.252,4.2434,4.2434,0,0,1-.15.4023q-.0967.2278-.2178.4942c-.0811.1772-.1665.3569-.2568.5376a6.6916,6.6916,0,0,0-.3487.8574q-.1647.4893-.2861,1.0073t-.1934,1.0078a5.8332,5.8332,0,0,0-.0727.8477c0,.0454.0014.1006.0049.165a.9049.9049,0,0,0,.0288.189.6567.6567,0,0,0,.063.16.112.112,0,0,0,.0971.0678,1.1694,1.1694,0,0,0,.5376-.1938,6.1941,6.1941,0,0,0,.7266-.5039q.3926-.31.8091-.6929t.8042-.7651q.3875-.3831.707-.7217t.5039-.562a11.7881,11.7881,0,0,0,.7847-1.003,12.2253,12.2253,0,0,0,.6592-1.0708c.1093-.1933.2114-.3681.3051-.5229a2.5142,2.5142,0,0,1,.2857-.3926,1.1017,1.1017,0,0,1,.3052-.2422.783.783,0,0,1,.3632-.082.8325.8325,0,0,1,.6153.2373,1.1211,1.1211,0,0,1,.2373.8091,1.2111,1.2111,0,0,1-.0869.271q-.0872.2234-.1988.48t-.2134.4848c-.0678.1514-.1079.2471-.121.2857a3.9668,3.9668,0,0,0-.1792.6054q-.0726.334-.1163.6685t-.0581.64q-.0146.3048-.0146.5279a2.0045,2.0045,0,0,0,.2959,1.1675.9437.9437,0,0,0,.8183.4213,1.96,1.96,0,0,0,.78-.184,5.6392,5.6392,0,0,0,.8765-.4893,9.44,9.44,0,0,0,.92-.707q.4652-.4022.9062-.8428t.8379-.8916q.397-.45.7168-.8477.1166-.1355.252-.2763a2.8978,2.8978,0,0,1,.2764-.252,2.48,2.48,0,0,1,.2617-.1841.4145.4145,0,0,1,.1982-.0722,1.1836,1.1836,0,0,1,.1455.0093.3481.3481,0,0,1,.1455.0537.3212.3212,0,0,1,.1114.13A.5287.5287,0,0,1,276.6118,198.4355Z" transform="translate(0 0)"/><path class="cls-8" d="M296.7261,198.4741a.8016.8016,0,0,1-.044.2276,3.0722,3.0722,0,0,1-.1113.3,3.3043,3.3043,0,0,1-.16.3247q-.0922.1647-.1792.31a6.2041,6.2041,0,0,1-.4165.562q-.2622.3193-.5815.6685t-.6782.6977q-.3582.3488-.7071.649-.2812.2328-.6591.5136a7.7468,7.7468,0,0,1-.8042.523,5.6344,5.6344,0,0,1-.8672.4023,2.4838,2.4838,0,0,1-.8477.16,1.8533,1.8533,0,0,1-.7314-.15,1.6326,1.6326,0,0,1-.6587-.5669,3.9873,3.9873,0,0,1-.5376-1.1626,10.7753,10.7753,0,0,1-.3682-1.938c-.0068-.0771-.0146-.1987-.0244-.3633l-.0293-.4941c-.0093-.1646-.021-.3081-.0337-.4312s-.0259-.184-.0386-.184c-.0517,0-.1377.0776-.2568.2324s-.2617.36-.4263.6152-.3442.5493-.5381.8819-.394.6767-.6005,1.0317q-.3875.6782-.7315,1.2163a8.7983,8.7983,0,0,1-.6489.9009,3.0061,3.0061,0,0,1-.5913.5571,1.0181,1.0181,0,0,1-.5762.1939,1.3894,1.3894,0,0,1-.727-.17,1.1558,1.1558,0,0,1-.4454-.5229,3.06,3.06,0,0,1-.2329-.9107q-.0673-.5573-.0869-1.3227-.0292-1.2789-.0825-1.9956t-.15-.7173c-.0776,0-.207.1006-.3877.3a9.4455,9.4455,0,0,0-.6445.8237q-.3729.5231-.8135,1.2305t-.9063,1.521q-.1157.2132-.2807.4941t-.3394.5718q-.1743.2907-.3437.562t-.3052.4649a1.1706,1.1706,0,0,1-.4263.3828,1.1382,1.1382,0,0,1-.5327.1308,1.29,1.29,0,0,1-.6782-.1694,1.3228,1.3228,0,0,1-.4556-.46,2.1879,2.1879,0,0,1-.2568-.6879,4.1579,4.1579,0,0,1-.082-.8428q0-.3971.019-.7168c.0132-.2134.0322-.4277.0581-.6445s.0566-.4439.0923-.6831.0757-.5132.1211-.8233q.0579-.4073.0869-.8574t.0581-.8818q.0292-.4308.0679-.7994a3.7685,3.7685,0,0,1,.1069-.61,3.5821,3.5821,0,0,1,.126-.3535,1.18,1.18,0,0,1,.2226-.3492,1.1819,1.1819,0,0,1,.9205-.3823.9262.9262,0,0,1,.4843.1114.7436.7436,0,0,1,.2813.3,1.3524,1.3524,0,0,1,.13.4361,3.76,3.76,0,0,1,.0341.518,4.25,4.25,0,0,1-.063.63q-.0628.3978-.1552.877t-.208.998c-.0777.3452-.15.6768-.2183.9927s-.1274.6025-.1792.8579-.0869.4536-.1064.5957c.0127-.0259.05-.09.1113-.1938s.1357-.229.2231-.378.1792-.3066.2759-.4746.189-.3261.2764-.4746.1626-.2778.2275-.3877.103-.1777.1162-.2036q.1743-.2907.4068-.6538t.4843-.7363q.252-.3729.4991-.7124t.4506-.5713a3.2013,3.2013,0,0,1,.9253-.7461,2.243,2.243,0,0,1,1.0415-.252,1.3264,1.3264,0,0,1,.9883.4068,2.0892,2.0892,0,0,1,.5327,1.0659,5.3871,5.3871,0,0,1,.0777.61q.0292.3685.0434.7706t.0244.8085q.01.4073.0147.7271t.0146.5229c.0064.1358.0191.2037.0386.2037.0581,0,.1421-.0811.252-.2422s.2324-.3653.3681-.61.2774-.51.4263-.7944.2905-.5459.4263-.7852q.339-.5712.7168-1.1a9.51,9.51,0,0,1,.7509-.93,4.549,4.549,0,0,1,.7124-.6391,1.092,1.092,0,0,1,.6006-.2373,1.9233,1.9233,0,0,1,.378.0386,2.0816,2.0816,0,0,1,.373.1113,1.6222,1.6222,0,0,1,.3242.1743.7829.7829,0,0,1,.2232.228,1.9714,1.9714,0,0,1,.2422.5713,4.623,4.623,0,0,1,.1113.688q.0337.378.0483.8335t.0728,1.0073a7.1142,7.1142,0,0,0,.31,1.5791q.2037.5721.5811.5718a1.1066,1.1066,0,0,0,.4311-.1211,5.8171,5.8171,0,0,0,.5816-.31q.315-.189.6489-.4214t.625-.4649q.32-.2518.61-.5185t.5766-.5474q.2858-.2812.5816-.5864t.6245-.6441a.6409.6409,0,0,1,.4653-.2036Q296.7259,198.0283,296.7261,198.4741Z" transform="translate(0 0)"/><path class="cls-8" d="M158.4482,226.9268a1.5533,1.5533,0,0,1-.1211.5815,3.492,3.492,0,0,1-.3056.5859q-.1839.2865-.3823.5381t-.3633.4453q-.3978.4754-.8482.9644t-.9541.9443a12.7751,12.7751,0,0,1-1.0561.8575,7.8163,7.8163,0,0,1-1.1529.6977,6.6051,6.6051,0,0,1-1.2451.4648,5.2013,5.2013,0,0,1-1.332.17,3.9242,3.9242,0,0,1-1.0322-.1309,1.78,1.78,0,0,1-.8282-.4941,2.5358,2.5358,0,0,1-.5522-.9981,5.4531,5.4531,0,0,1-.2036-1.6323,4.8521,4.8521,0,0,1,.0391-.5522q.038-.33.1064-.7027t.16-.7461a5.5589,5.5589,0,0,1,.2085-.6733q-.0681.1164-.2422.4165t-.3731.64q-.1984.3391-.373.6392t-.252.417q-.339.4936-.7944,1.08a8.6582,8.6582,0,0,1-1.0029,1.0854,5.982,5.982,0,0,1-1.1578.833,2.6091,2.6091,0,0,1-1.269.3345,1.8625,1.8625,0,0,1-1.313-.5718,2.2768,2.2768,0,0,1-.4844-.79,3.3057,3.3057,0,0,1-.1889-1.187q0-.1356.0386-.4844t.0874-.7608q.0483-.4116.1064-.8139c.0391-.2676.0679-.48.0874-.6343q-.0872.1839-.2183.45t-.2807.5669q-.15.3-.31.6152t-.3052.5913q-.1456.2762-.2714.4986a3.29,3.29,0,0,1-.2129.3393,6.61,6.61,0,0,1-1.88,1.8023,4.19,4.19,0,0,1-2.18.581,3.029,3.029,0,0,1-.8916-.14,2.5738,2.5738,0,0,1-.8281-.4312,2.2071,2.2071,0,0,1-.8482-1.812,1.7928,1.7928,0,0,1,.044-.3974,1.0071,1.0071,0,0,1,.1792-.3775.7722.7722,0,0,1,.3388-.2568,1.0438,1.0438,0,0,1,.4073-.1021.98.98,0,0,1,.7119.291,1.092,1.092,0,0,1,.3149.7652.6371.6371,0,0,0,.1113.3535.8827.8827,0,0,0,.2374.228.9752.9752,0,0,0,.2861.126,1.0776,1.0776,0,0,0,.2661.0386,2.0933,2.0933,0,0,0,.7656-.252,3.8145,3.8145,0,0,0,.7071-.5088,5.53,5.53,0,0,0,.6445-.6923q.3054-.3875.5718-.7994t.4941-.8237q.2271-.4116.4019-.77a9.5754,9.5754,0,0,1,.48-.8721q.2373-.3779.4653-.6733a5.2221,5.2221,0,0,1,.4458-.5137,5.3527,5.3527,0,0,1,.4214-.3828.9668.9668,0,0,1,.16-.082c.0806-.0357.1661-.0694.2569-.1021s.1792-.06.2666-.082a.8405.8405,0,0,1,.1885-.0342,2.3092,2.3092,0,0,1,.2959.0244,1.0974,1.0974,0,0,1,.3437.1065.7122.7122,0,0,1,.3975.6928,3.2609,3.2609,0,0,1-.0293.5039,3.4342,3.4342,0,0,1-.0777.3487q-.0674.2907-.1162.6538t-.082.7412q-.0345.3779-.0488.7558t-.0142.7071a4.8809,4.8809,0,0,0,.0967,1.1142c.0644.2588.1553.3877.2715.3877a1.2172,1.2172,0,0,0,.48-.0966,2.1366,2.1366,0,0,0,.4165-.233,2.3963,2.3963,0,0,0,.3247-.2758c.09-.0938.1582-.1661.2031-.2183q.4944-.5618,1.0464-1.2593t1.061-1.4145q.5091-.7172.9351-1.395a12.5522,12.5522,0,0,0,.6782-1.2017,2.045,2.045,0,0,1,.1987-.3149,1.86,1.86,0,0,1,.2808-.2955,1.4541,1.4541,0,0,1,.3584-.2226,1.0159,1.0159,0,0,1,.4121-.0874.7413.7413,0,0,1,.2471.063,1.4644,1.4644,0,0,1,.3149.1743,1.311,1.311,0,0,1,.271.2617.52.52,0,0,1,.1162.3247,1.3631,1.3631,0,0,1-.0337.252c-.0229.11-.0532.2422-.0923.3969q-.0776.3106-.1308.5816t-.14.6391q-.0775.32-.1552.7271t-.1451.8525q-.0681.4453-.1069.9156t-.0386.9057a2.5052,2.5052,0,0,0,.1211.8526,1.4326,1.4326,0,0,0,.3.5136.9087.9087,0,0,0,.3926.2471,1.3772,1.3772,0,0,0,.3872.063,3.1326,3.1326,0,0,0,1.061-.2183,7.7486,7.7486,0,0,0,1.23-.5859,11.5134,11.5134,0,0,0,1.25-.8428,10.0954,10.0954,0,0,0,1.1094-.9883q.1545-.1647.3389-.3828c.1225-.1455.2485-.3017.3779-.47q.2226-.2805.4844-.5762t.562-.5864a1.6994,1.6994,0,0,1,.2324-.1982.4174.4174,0,0,1,.2422-.0728.4762.4762,0,0,1,.291.1016A.4278.4278,0,0,1,158.4482,226.9268Z" transform="translate(0 0)"/><path class="cls-8" d="M172.8457,227.3726a6.2418,6.2418,0,0,1-.543.95,13.8287,13.8287,0,0,1-.9834,1.2934,18.8083,18.8083,0,0,1-1.3222,1.4,13.1189,13.1189,0,0,1-1.55,1.2788,9.0273,9.0273,0,0,1-1.6714.9351,4.3117,4.3117,0,0,1-1.69.3633,1.2332,1.2332,0,0,1-.688-.189,1.5692,1.5692,0,0,1-.4844-.5039,2.3747,2.3747,0,0,1-.2861-.707,3.5051,3.5051,0,0,1-.0918-.7993,4.3358,4.3358,0,0,1,.0337-.46c.0229-.1968.0532-.4214.0922-.6733s.084-.523.1358-.814.103-.5874.1548-.8911l.1552-.8335q.077-.4161.15-.7993t.1211-.7071a5.3328,5.3328,0,0,0,.0581-.5571.8471.8471,0,0,0-.2617.0728,1.0281,1.0281,0,0,0-.334.2856,4.2651,4.2651,0,0,0-.4262.6445,12.5359,12.5359,0,0,0-.5474,1.1382q-.1941.4461-.4165.93t-.49.9688a10.5356,10.5356,0,0,1-.5909.95,7.4559,7.4559,0,0,1-.7216.8813,4.342,4.342,0,0,1-1.4727,1.0127,4.26,4.26,0,0,1-1.6279.3345,2.3717,2.3717,0,0,1-.9492-.1841,2.2666,2.2666,0,0,1-.7271-.49,2.1821,2.1821,0,0,1-.4648-.7021,2.2871,2.2871,0,0,1-.0777-1.4775,1.1634,1.1634,0,0,1,.2324-.4263.8333.8333,0,0,1,.33-.2275,1.1056,1.1056,0,0,1,.3877-.0679,1.0849,1.0849,0,0,1,.7364.2519,1.1219,1.1219,0,0,1,.33.8037.6347.6347,0,0,0,.1162.3394.699.699,0,0,0,.2226.1938.7676.7676,0,0,0,.2471.087,1.2378,1.2378,0,0,0,.1792.02,1.8488,1.8488,0,0,0,1.2451-.707,9.0911,9.0911,0,0,0,1.4-2.1607q.4167-.8334.7075-1.4243t.523-1.0127q.2328-.4212.4311-.7119a3.6657,3.6657,0,0,1,.4312-.5234,2.4324,2.4324,0,0,1,.9253-.5713,3.4078,3.4078,0,0,1,1.1479-.1939,2.6539,2.6539,0,0,1,.4219.0435,2.1946,2.1946,0,0,1,.5034.15,1.4668,1.4668,0,0,1,.4361.2856.6755.6755,0,0,1,.2084.46,3.2484,3.2484,0,0,1-.0629.45q-.063.3441-.16.8383t-.208,1.08q-.1113.5866-.2085,1.187t-.16,1.1577a8.877,8.877,0,0,0-.063.9834,7.24,7.24,0,0,0,.0289.7266,1.57,1.57,0,0,0,.0874.4116.3353.3353,0,0,0,.1455.1841.4686.4686,0,0,0,.2129.0439,1.9133,1.9133,0,0,0,.8574-.2714,7.33,7.33,0,0,0,1.1045-.7461q.5961-.4746,1.25-1.1045t1.3032-1.3467q.2615-.2907.5132-.5571t.47-.4746a2.6208,2.6208,0,0,1,.4116-.33.6681.6681,0,0,1,.3394-.1211.5232.5232,0,0,1,.3584.15.4843.4843,0,0,1,.1645.373Z" transform="translate(0 0)"/><path class="cls-8" d="M184.9951,226.8008a2.387,2.387,0,0,1,.29-.2808.5268.5268,0,0,1,.3394-.126.2865.2865,0,0,1,.2612.1211.8538.8538,0,0,1,.0777.4312,2.0829,2.0829,0,0,1-.0918.5766,1.5805,1.5805,0,0,1-.2569.5279q-.2035.252-.499.5766t-.6543.6783q-.3582.3537-.7554.707t-.79.6733q-.3925.32-.7656.5816a5.109,5.109,0,0,1-.6929.4165q-.378.1838-.6924.31a5.39,5.39,0,0,1-.625.208,4.5808,4.5808,0,0,1-.63.1216,5.81,5.81,0,0,1-.6977.0386,1.501,1.501,0,0,1-.78-.2036,1.8377,1.8377,0,0,1-.5908-.5718,2.875,2.875,0,0,1-.3828-.8862,4.5106,4.5106,0,0,1-.1358-1.148q-.33.3971-.7075.8135t-.78.8091q-.4022.3926-.8042.7363t-.77.6055a4.5259,4.5259,0,0,1-.688.4121,1.3433,1.3433,0,0,1-.5522.15,1.988,1.988,0,0,1-.8672-.1743,1.7588,1.7588,0,0,1-.5957-.4507,1.8217,1.8217,0,0,1-.3443-.62,2.1778,2.1778,0,0,1-.1113-.6734q0-.1545.0147-.3823c.01-.1518.0239-.3066.0434-.4653s.0435-.315.0728-.47a3.1082,3.1082,0,0,1,.1015-.4073,7.915,7.915,0,0,1,.4654-1.2158,12.6345,12.6345,0,0,1,.6879-1.2593q.3869-.6255.8379-1.2163a11.1107,11.1107,0,0,1,.93-1.0752,7.5956,7.5956,0,0,1,.959-.8286,3.5083,3.5083,0,0,1,.9155-.4892,1.67,1.67,0,0,1,.3-.1162c.1294-.0386.2681-.0743.417-.1065s.292-.0581.4312-.0776a2.5744,2.5744,0,0,1,.3339-.0288,1.0828,1.0828,0,0,1,.46.0966,1.2417,1.2417,0,0,1,.3682.2618,1.57,1.57,0,0,1,.2661.3681,1.4467,1.4467,0,0,1,.1455.4263,1.4894,1.4894,0,0,1,.3393.0581,1.0823,1.0823,0,0,1,.2954.1357.7234.7234,0,0,1,.2129.2178.5417.5417,0,0,1,.0826.2954,1.5362,1.5362,0,0,1-.0337.2715q-.0345.1743-.0826.3779c-.0322.1358-.0712.2759-.1162.4214s-.0874.2827-.1259.4116-.0777.29-.1163.48-.0747.3872-.1069.5908-.0581.4039-.0771.6006-.0293.37-.0293.5186a3.6493,3.6493,0,0,0,.2231,1.4726.7519.7519,0,0,0,.7266.4747,1.777,1.777,0,0,0,.6152-.1456,6.5158,6.5158,0,0,0,.8281-.4018q.4555-.2563.9693-.6055t1.0268-.7607q.5135-.4116,1.003-.8672T184.9951,226.8008Zm-9.7275,2.4028a8.65,8.65,0,0,0,.62-.78,11.4092,11.4092,0,0,0,.6348-.998,9.39,9.39,0,0,0,.5424-1.1289,6.1481,6.1481,0,0,0,.3438-1.1626.4835.4835,0,0,0-.1694-.2954.4.4,0,0,0-.2183-.0728,1.3461,1.3461,0,0,0-.4551.0874,4.1234,4.1234,0,0,0-.4555.1939,2.67,2.67,0,0,0-.625.47,8.0753,8.0753,0,0,0-.7461.8237q-.3824.48-.7554,1.0513a12.9631,12.9631,0,0,0-.6685,1.1431,8.0307,8.0307,0,0,0-.4751,1.1,2.9342,2.9342,0,0,0-.1792.9253,1.7814,1.7814,0,0,0,.0147.2231,1.3512,1.3512,0,0,0,.0434.2129.5.5,0,0,0,.0777.16.1513.1513,0,0,0,.126.0625.7358.7358,0,0,0,.2954-.1451,6.5616,6.5616,0,0,0,.5332-.4072q.3141-.2615.707-.6343T175.2676,229.2036Z" transform="translate(0 0)"/><path class="cls-8" d="M192.9688,225.4541a8.7241,8.7241,0,0,1-.15,1.6328,10.1512,10.1512,0,0,1-1.0126,2.8872,10.4166,10.4166,0,0,1-.7559,1.2158,6.8808,6.8808,0,0,1-2.0879,1.8892,5.7171,5.7171,0,0,1-1.3032.5571,5.039,5.039,0,0,1-1.4048.1988,1.5959,1.5959,0,0,1-.8232-.2422,2.5128,2.5128,0,0,1-.7364-.6929,3.7823,3.7823,0,0,1-.5332-1.085,4.6493,4.6493,0,0,1-.2031-1.4194,7.9439,7.9439,0,0,1,.0918-1.1772,5.5761,5.5761,0,0,1,.3633-1.2788,7.5112,7.5112,0,0,1,.7607-1.3809,9.9237,9.9237,0,0,1,1.2739-1.4824,5.817,5.817,0,0,1,1.0225-.79,7.2242,7.2242,0,0,1,1.0464-.5278,5.6719,5.6719,0,0,1,.9492-.2954,3.7326,3.7326,0,0,1,.7412-.0923h.0967c.0586,0,.12.0034.1841.01a5.1855,5.1855,0,0,0-.4116-1.1626,4.5844,4.5844,0,0,0-.5957-.92,2.887,2.887,0,0,0-.6978-.61,1.4,1.4,0,0,0-.7266-.2231c-.0712,0-.1518.0034-.2421.01s-.1812.0161-.2715.0293-.1792.0274-.2661.0435a2.14,2.14,0,0,0-.2281.0532q-.0871.0292-.2226.0679t-.2857.0825c-.1006.0288-.1958.0532-.2861.0723a1.08,1.08,0,0,1-.2129.0293.5007.5007,0,0,1-.2422-.063.8147.8147,0,0,1-.2036-.1548.7674.7674,0,0,1-.1406-.2085.5326.5326,0,0,1-.0532-.2227.5674.5674,0,0,1,.1064-.3149,1.6564,1.6564,0,0,1,.2666-.3052,2.91,2.91,0,0,1,.3486-.2715c.126-.084.2408-.1548.3443-.2134a4.0417,4.0417,0,0,1,.8427-.2807,5.4757,5.4757,0,0,1,1.1724-.1065,3.1878,3.1878,0,0,1,1.6084.4649,4.7615,4.7615,0,0,1,1.4434,1.3369,7.3081,7.3081,0,0,1,1.0371,2.1221A9.2961,9.2961,0,0,1,192.9688,225.4541Zm-2.0733.6006q0-.2124-.01-.5523a2.7269,2.7269,0,0,0-.0874-.6294,4.2976,4.2976,0,0,0-.9492.2471,5.56,5.56,0,0,0-.9931.4942,6.0405,6.0405,0,0,0-.93.7168,4.8071,4.8071,0,0,0-.77.9252,8.1758,8.1758,0,0,0-.5718,1.0367,6.021,6.021,0,0,0-.3247.8867,4.6057,4.6057,0,0,0-.145.7749q-.0345.3633-.0342.7026a2.3829,2.3829,0,0,0,.0386.4068,1.9648,1.9648,0,0,0,.1167.4116,1.1516,1.1516,0,0,0,.1889.32.3287.3287,0,0,0,.2564.1309c.1225,0,.2441-.0034.3632-.01a1.57,1.57,0,0,0,.3731-.0679,2.1828,2.1828,0,0,0,.417-.1792,3.243,3.243,0,0,0,.4941-.3437,5.0655,5.0655,0,0,0,.7412-.7412,7.694,7.694,0,0,0,.6294-.8965,8.9473,8.9473,0,0,0,.5088-.9736,9.81,9.81,0,0,0,.3779-.9786,7.0529,7.0529,0,0,0,.2325-.9106A4.4007,4.4007,0,0,0,190.8955,226.0547Z" transform="translate(0 0)"/><path class="cls-8" d="M217.3555,226.5977a.7312.7312,0,0,1-.0826.3,2.82,2.82,0,0,1-.2133.3682c-.0869.1294-.1826.2583-.2857.3872s-.2.249-.2905.3589q-.3976.4651-.8672.9785t-.9932,1.0073q-.5229.4944-1.0947.9449a8.7226,8.7226,0,0,1-1.187.79,6.9559,6.9559,0,0,1-1.2549.5425,4.286,4.286,0,0,1-1.3076.2036,2.6228,2.6228,0,0,1-.8818-.15,1.9989,1.9989,0,0,1-.751-.47,2.2973,2.2973,0,0,1-.5181-.814,3.26,3.26,0,0,1-.1938-1.1914c0-.0581.0049-.1455.0146-.2617s.0225-.2407.0386-.373.0337-.2632.0532-.3926a2.2742,2.2742,0,0,1,.0679-.3194q-.252.3193-.5957.7315t-.7461.8428q-.4022.4314-.8433.8476a9.7949,9.7949,0,0,1-.8764.7412,5.0506,5.0506,0,0,1-.8574.5235,1.8468,1.8468,0,0,1-.78.1982,2.2933,2.2933,0,0,1-.8526-.15,1.7307,1.7307,0,0,1-.63-.4165,1.8308,1.8308,0,0,1-.3872-.6348,2.3,2.3,0,0,1-.1358-.8042,4.7633,4.7633,0,0,1,.063-.7026,4.6374,4.6374,0,0,1,.2178-.8477q-.2418.3488-.5713.8091t-.7075.95q-.378.4893-.7847.9639a10.3178,10.3178,0,0,1-.8091.8477,4.9079,4.9079,0,0,1-.7749.6005,1.3373,1.3373,0,0,1-.6831.2281,2.1779,2.1779,0,0,1-.7461-.126,2.0756,2.0756,0,0,1-.62-.3491,2.03,2.03,0,0,1-.4556-.5279,1.9976,1.9976,0,0,1-.2519-.6733,2.1865,2.1865,0,0,1-.0484-.3682q-.0095-.1941-.01-.3974,0-.4453.0488-.9688t.1211-1.061q.0725-.5376.1694-1.0464t.1939-.92q.0966-.4116.1841-.6924a1.2142,1.2142,0,0,1,.145-.3491q.1941-.145.3393-.2324a1.54,1.54,0,0,1,.2857-.1358,1.49,1.49,0,0,1,.2861-.0678,2.549,2.549,0,0,1,.3291-.0191,1.1592,1.1592,0,0,1,.2324.0288,1.1,1.1,0,0,1,.2617.0923.62.62,0,0,1,.2134.1743.4343.4343,0,0,1,.0869.2759.837.837,0,0,1-.0239.2036c-.0161.0645-.0405.1455-.0727.2422-.0259.0972-.0518.1875-.0777.2715s-.0532.1792-.0825.2856-.061.2325-.0967.378-.0791.3247-.1308.5376q-.0777.3778-.1451.7944t-.1118.8042q-.0432.3875-.0678.7075t-.024.4942a1.3031,1.3031,0,0,0,.0826.5327q.0819.1743.1884.1743a.6687.6687,0,0,0,.31-.15,5.0749,5.0749,0,0,0,.5137-.4312q.3-.2812.6782-.6977t.8042-.95q.2614-.329.5376-.6783t.5234-.6684q.2469-.3194.4409-.5859a4.7087,4.7087,0,0,0,.2906-.441q.2518-.4358.4843-.8911t.47-.8384a4.1824,4.1824,0,0,1,.4751-.6391.86.86,0,0,1,.4985-.2959,2.257,2.257,0,0,1,.3877.0342,1.6154,1.6154,0,0,1,.3535.1015.7536.7536,0,0,1,.2568.1695.346.346,0,0,1,.0972.247,2.41,2.41,0,0,1-.0972.64q-.0966.3486-.2421.751t-.315.8574q-.1692.4556-.3149.9492-.1356.4944-.2373,1.0513a6.4854,6.4854,0,0,0-.1016,1.1674q0,.5429.2227.543a1.1161,1.1161,0,0,0,.5522-.1938,5.0889,5.0889,0,0,0,.6733-.4991q.3538-.3054.7271-.6684t.7021-.6929q.0968-.0966.2618-.2764c.11-.1191.229-.2519.3584-.3969s.2631-.3018.4023-.47.2744-.334.4067-.4986.2549-.3247.3682-.48.2051-.2905.2759-.4067a1.19,1.19,0,0,1,.4311-.436,1.4183,1.4183,0,0,1,.5572-.1646.93.93,0,0,1,.436.0918.9627.9627,0,0,1,.2861.2232.7493.7493,0,0,1,.1548.2807.9357.9357,0,0,1,.0435.2569,1.8635,1.8635,0,0,1-.0674.5278q-.0681.2277-.126.373-.1362.4944-.2568,1.1143a6.7347,6.7347,0,0,0-.1211,1.2983,1.4484,1.4484,0,0,0,.0918.5523.92.92,0,0,0,.2519.3584.8973.8973,0,0,0,.378.1889,1.9252,1.9252,0,0,0,.46.0533,3.0306,3.0306,0,0,0,.9737-.1841,5.6892,5.6892,0,0,0,1.2011-.61,14.6968,14.6968,0,0,0,1.4824-1.1142q.8189-.6877,1.8169-1.7051a3.6757,3.6757,0,0,0,.2955-.33,2.5545,2.5545,0,0,1,.2421-.271,1.0027,1.0027,0,0,1,.2618-.1841.8075.8075,0,0,1,.3535-.0678.3741.3741,0,0,1,.29.1064A.4027.4027,0,0,1,217.3555,226.5977Z" transform="translate(0 0)"/><path class="cls-8" d="M232.2666,226.7817a2.1079,2.1079,0,0,1-.1162.4214,3.2389,3.2389,0,0,1-.32.6441q-.31.4848-.7364,1.0561t-.93,1.1387q-.504.5661-1.0752,1.0947a9.4531,9.4531,0,0,1-1.1773.93,6.4663,6.4663,0,0,1-1.2256.644,3.3593,3.3593,0,0,1-1.23.2422,2.3014,2.3014,0,0,1-1.9136-.8623,4.3014,4.3014,0,0,1-.6929-2.664q-.2614.3486-.581.7168t-.6543.7119q-.3341.3442-.6587.6494t-.6055.5376a10.3863,10.3863,0,0,1-1.4873,1.0317,2.9333,2.9333,0,0,1-1.4487.4121,1.5215,1.5215,0,0,1-.4405-.102,2.0529,2.0529,0,0,1-.601-.3438,2.15,2.15,0,0,1-.5327-.6538,2.1125,2.1125,0,0,1-.2276-1.0322,9.3442,9.3442,0,0,1,.063-1.1143q.063-.5229.1743-1.0268t.2666-1.0122q.1546-.5091.3291-1.0708.0681-.2037.1695-.4893t.2036-.5571q.1017-.2711.1792-.48a1.2715,1.2715,0,0,0,.0776-.2471.8673.8673,0,0,1,.1548-.3681,2.4055,2.4055,0,0,1,.3247-.3877,2.2229,2.2229,0,0,1,.3877-.3052.6826.6826,0,0,1,.334-.1211.9664.9664,0,0,1,.4848.1211,1.3238,1.3238,0,0,1,.5762.6538.897.897,0,0,1,.0728.32,1.0079,1.0079,0,0,1-.0533.252,4.2126,4.2126,0,0,1-.15.4023q-.0967.2279-.2178.4942c-.0811.1772-.1665.3569-.2569.5376a6.7067,6.7067,0,0,0-.3486.8574q-.1649.4891-.2861,1.0073t-.1934,1.0078a5.8332,5.8332,0,0,0-.0727.8477c0,.0454.0014.1006.0048.165a.905.905,0,0,0,.0289.189.6583.6583,0,0,0,.0629.16.1122.1122,0,0,0,.0972.0679,1.1694,1.1694,0,0,0,.5376-.1938,6.1941,6.1941,0,0,0,.7266-.5039q.3925-.31.8091-.6929t.8042-.7651q.3875-.3831.707-.7217t.5039-.562a11.7881,11.7881,0,0,0,.7847-1.003,12.2251,12.2251,0,0,0,.6591-1.0708c.1094-.1933.2115-.3681.3052-.5229a2.5142,2.5142,0,0,1,.2857-.3926,1.1013,1.1013,0,0,1,.3051-.2422.7838.7838,0,0,1,.3633-.082.8326.8326,0,0,1,.6153.2373,1.1211,1.1211,0,0,1,.2373.8091,1.2139,1.2139,0,0,1-.087.271q-.0872.2234-.1987.4795t-.2134.4848c-.0678.1514-.1079.2471-.1211.2857a3.9781,3.9781,0,0,0-.1792.6054q-.0725.3341-.1162.6685t-.0581.64q-.0145.3048-.0146.5279a2.0045,2.0045,0,0,0,.2959,1.1675.9437.9437,0,0,0,.8183.4213,1.96,1.96,0,0,0,.78-.184,5.6392,5.6392,0,0,0,.8765-.4893,9.44,9.44,0,0,0,.92-.707q.465-.4021.9062-.8428t.8379-.8916q.3971-.45.7168-.8477.1165-.1354.252-.2763a2.9091,2.9091,0,0,1,.2763-.252,2.4907,2.4907,0,0,1,.2618-.1841.4141.4141,0,0,1,.1982-.0722,1.2026,1.2026,0,0,1,.1455.0092.35.35,0,0,1,.1455.0538.3218.3218,0,0,1,.1113.13A.5271.5271,0,0,1,232.2666,226.7817Z" transform="translate(0 0)"/><path class="cls-8" d="M247.3809,226.7817a2.1176,2.1176,0,0,1-.1163.4214,3.2335,3.2335,0,0,1-.32.6441q-.31.4848-.7363,1.0561t-.93,1.1387q-.5038.5661-1.0752,1.0947a9.4449,9.4449,0,0,1-1.1772.93,6.4663,6.4663,0,0,1-1.2256.644,3.36,3.36,0,0,1-1.2305.2422,2.3011,2.3011,0,0,1-1.9135-.8623,4.3008,4.3008,0,0,1-.6929-2.664q-.2615.3486-.5811.7168t-.6543.7119q-.3339.3442-.6587.6494t-.6054.5376a10.3863,10.3863,0,0,1-1.4873,1.0317,2.9334,2.9334,0,0,1-1.4488.4121,1.5217,1.5217,0,0,1-.44-.102,2.052,2.052,0,0,1-.6011-.3438,2.1527,2.1527,0,0,1-.5327-.6538,2.1136,2.1136,0,0,1-.2275-1.0322,9.3442,9.3442,0,0,1,.063-1.1143q.063-.5229.1743-1.0268t.2666-1.0122q.1545-.5091.3291-1.0708.0681-.2037.1694-.4893t.2036-.5571q.1019-.2711.1792-.48a1.2676,1.2676,0,0,0,.0777-.2471.866.866,0,0,1,.1548-.3681,2.4055,2.4055,0,0,1,.3247-.3877,2.2155,2.2155,0,0,1,.3877-.3052.6826.6826,0,0,1,.3339-.1211.9668.9668,0,0,1,.4849.1211,1.3078,1.3078,0,0,1,.3584.2954,1.3213,1.3213,0,0,1,.2178.3584.8988.8988,0,0,1,.0727.32,1.0065,1.0065,0,0,1-.0532.252,4.189,4.189,0,0,1-.15.4023q-.0966.2279-.2178.4942c-.081.1772-.1665.3569-.2568.5376a6.6777,6.6777,0,0,0-.3486.8574q-.1648.4891-.2862,1.0073t-.1933,1.0078a5.8348,5.8348,0,0,0-.0728.8477c0,.0454.0015.1006.0049.165a.9049.9049,0,0,0,.0288.189.6543.6543,0,0,0,.063.16.112.112,0,0,0,.0972.0679,1.17,1.17,0,0,0,.5376-.1938,6.202,6.202,0,0,0,.7265-.5039q.3927-.31.8091-.6929t.8042-.7651q.3875-.3831.707-.7217t.504-.562a11.8064,11.8064,0,0,0,.7846-1.003,12.2253,12.2253,0,0,0,.6592-1.0708c.1094-.1933.2114-.3681.3052-.5229a2.5076,2.5076,0,0,1,.2856-.3926,1.1017,1.1017,0,0,1,.3052-.2422.7832.7832,0,0,1,.3633-.082.8324.8324,0,0,1,.6152.2373,1.1211,1.1211,0,0,1,.2373.8091,1.2111,1.2111,0,0,1-.0869.271q-.0871.2234-.1987.4795t-.2134.4848c-.0679.1514-.1079.2471-.1211.2857a3.9668,3.9668,0,0,0-.1792.6054q-.0724.3341-.1162.6685t-.0581.64q-.0147.3048-.0147.5279a2.0052,2.0052,0,0,0,.2959,1.1675.9439.9439,0,0,0,.8184.4213,1.9608,1.9608,0,0,0,.78-.184,5.6431,5.6431,0,0,0,.8764-.4893,9.4278,9.4278,0,0,0,.92-.707q.4651-.4021.9063-.8428t.8379-.8916q.3969-.45.7168-.8477.1164-.1354.2519-.2763a2.91,2.91,0,0,1,.2764-.252,2.5006,2.5006,0,0,1,.2617-.1841.4148.4148,0,0,1,.1983-.0722,1.2038,1.2038,0,0,1,.1455.0092.35.35,0,0,1,.1455.0538.3218.3218,0,0,1,.1113.13A.5285.5285,0,0,1,247.3809,226.7817Zm-6.3072-7.3344a1.4265,1.4265,0,0,1-.102.4648,3.6769,3.6769,0,0,1-.2857.5962,4.0573,4.0573,0,0,1-.4506.62,3.3868,3.3868,0,0,1-.5958.5381h.01a3.2938,3.2938,0,0,1-.5571.2905,4.983,4.983,0,0,1-.6831.2276,6.9287,6.9287,0,0,1-.7266.1455,4.8129,4.8129,0,0,1-.688.0532,4.4577,4.4577,0,0,1-1.0659-.126,4.0694,4.0694,0,0,1-.9492-.3584,3.6009,3.6009,0,0,1-.78-.5571,3.34,3.34,0,0,1-.5762-.7119,2.3275,2.3275,0,0,1-.1308-.2959q-.063-.1692-.1113-.3291a2.753,2.753,0,0,1-.0728-.2861,1.1473,1.1473,0,0,1-.0244-.1646,1.028,1.028,0,0,1,.0923-.47.7316.7316,0,0,1,.2324-.2764.7727.7727,0,0,1,.3-.126,1.6924,1.6924,0,0,1,.2954-.0288,1.26,1.26,0,0,1,.625.16.6956.6956,0,0,1,.3345.5669,1.6348,1.6348,0,0,0,.1162.5039,1.2424,1.2424,0,0,0,.3291.4844,1.91,1.91,0,0,0,.61.3584,2.515,2.515,0,0,0,.9014.1455,1.771,1.771,0,0,0,.2954-.0293c.1128-.0195.2276-.0435.3438-.0728a2.5933,2.5933,0,0,0,.3442-.1113,2.1331,2.1331,0,0,0,.2856-.1357,1.2609,1.2609,0,0,0,.33-.2808,1.9631,1.9631,0,0,0,.2325-.3535,3.1767,3.1767,0,0,0,.1645-.3779q.0681-.189.1162-.3443a.6889.6889,0,0,1,.16-.271,1.1317,1.1317,0,0,1,.2422-.1938,1.1051,1.1051,0,0,1,.2715-.1162.9674.9674,0,0,1,.2563-.0391,1.0536,1.0536,0,0,1,.6592.1938A.8481.8481,0,0,1,241.0737,219.4473Z" transform="translate(0 0)"/><path class="cls-8" d="M258.0771,224.7178a3.638,3.638,0,0,0-.61-.7652,11.8427,11.8427,0,0,0-.9883-.872,4.1466,4.1466,0,0,1-.8574-.8721,1.3083,1.3083,0,0,1-.2471-.7075,1.4863,1.4863,0,0,1,.0581-.4019,2.2445,2.2445,0,0,1,.1548-.4018,2.2174,2.2174,0,0,1,.2232-.3589,1.3419,1.3419,0,0,1,.271-.271,1.4344,1.4344,0,0,1,.3491-.1841q.2226-.0871.4985-.17t.5913-.16q.315-.0775.6348-.1357.3969-.077.8037-.1646t.7754-.1743q.3676-.0872.6782-.1694t.4942-.1407c.103-.0454.2226-.0952.3583-.15a1.0175,1.0175,0,0,1,.378-.0821.5154.5154,0,0,1,.373.1113.5823.5823,0,0,1,.1114.4117.6913.6913,0,0,1-.1163.3486,1.953,1.953,0,0,1-.3295.3975,3.2689,3.2689,0,0,1-.523.3974,5.0694,5.0694,0,0,1-.6978.3584,4.3458,4.3458,0,0,1-.46.15q-.2959.0828-.6348.17t-.6928.1695q-.3539.0821-.6392.16t-.4653.1456c-.12.0449-.1827.0839-.189.1162q0,.0387.0776.1113c.0518.0483.1128.1016.1841.16s.147.1181.2276.18.15.1113.2084.15a8.6136,8.6136,0,0,1,1.1724,1.0756,5.657,5.657,0,0,1,.8379,1.2207,5.81,5.81,0,0,1,.499,1.4434,8.4565,8.4565,0,0,1,.1646,1.7344,5.47,5.47,0,0,1-.1309,1.1577,8.01,8.01,0,0,1-.3584,1.1968,7.9171,7.9171,0,0,1-.5425,1.1333,5.9778,5.9778,0,0,1-.6928.9692,4.7925,4.7925,0,0,1-.7652.7022,5.5171,5.5171,0,0,1-.8916.538,4.9937,4.9937,0,0,1-.9492.3438,3.8777,3.8777,0,0,1-.94.1211,1.839,1.839,0,0,1-.814-.1743,2.17,2.17,0,0,1-.63-.46,2.6873,2.6873,0,0,1-.4551-.6538,4.77,4.77,0,0,1-.3-.751,5.0152,5.0152,0,0,1-.1695-.7509,4.585,4.585,0,0,1-.0537-.649,6.04,6.04,0,0,1,.165-1.3808,7.884,7.884,0,0,1,.45-1.3565,7.9987,7.9987,0,0,1,.6734-1.2353,6.0188,6.0188,0,0,1,.8384-1.0122,3.9942,3.9942,0,0,1,.9443-.6831,2.16,2.16,0,0,1,.9883-.252,1.3045,1.3045,0,0,1,.6782.1841Zm.2906.872a1.8846,1.8846,0,0,0-1.0078.2808,3.2766,3.2766,0,0,0-.8184.7271,5.03,5.03,0,0,0-.63.9975,9.0743,9.0743,0,0,0-.4458,1.0952,7.5385,7.5385,0,0,0-.2661,1.0269,4.6472,4.6472,0,0,0-.0874.7847,3.2625,3.2625,0,0,0,.1646,1.1626q.1647.4167.3974.4165a1.1881,1.1881,0,0,0,.5327-.1548,3.5512,3.5512,0,0,0,.6055-.4019,4.5894,4.5894,0,0,0,.5815-.5669,4.1484,4.1484,0,0,0,.46-.64,7.813,7.813,0,0,0,.6445-1.4483,4.7923,4.7923,0,0,0,.2373-1.4873,4.95,4.95,0,0,0-.1357-1.3564Q258.4647,225.59,258.3677,225.59Z" transform="translate(0 0)"/><path class="cls-8" d="M279.5376,226.7817a2.1079,2.1079,0,0,1-.1162.4214,3.2389,3.2389,0,0,1-.32.6441q-.31.4848-.7364,1.0561t-.93,1.1387q-.504.5661-1.0752,1.0947a9.4531,9.4531,0,0,1-1.1773.93,6.4663,6.4663,0,0,1-1.2256.644,3.3593,3.3593,0,0,1-1.23.2422,2.3014,2.3014,0,0,1-1.9136-.8623,4.3014,4.3014,0,0,1-.6929-2.664q-.2614.3486-.581.7168t-.6543.7119q-.334.3442-.6587.6494t-.6055.5376a10.3863,10.3863,0,0,1-1.4873,1.0317,2.9333,2.9333,0,0,1-1.4487.4121,1.5215,1.5215,0,0,1-.44-.102,2.0529,2.0529,0,0,1-.601-.3438,2.15,2.15,0,0,1-.5327-.6538,2.1125,2.1125,0,0,1-.2276-1.0322,9.3442,9.3442,0,0,1,.063-1.1143q.063-.5229.1743-1.0268t.2666-1.0122q.1545-.5091.3291-1.0708.0681-.2037.1695-.4893t.2036-.5571q.1017-.2711.1792-.48a1.2715,1.2715,0,0,0,.0776-.2471.8673.8673,0,0,1,.1548-.3681,2.4055,2.4055,0,0,1,.3247-.3877,2.2229,2.2229,0,0,1,.3877-.3052.6826.6826,0,0,1,.334-.1211.9664.9664,0,0,1,.4848.1211,1.3238,1.3238,0,0,1,.5762.6538.897.897,0,0,1,.0728.32,1.0079,1.0079,0,0,1-.0533.252,4.2126,4.2126,0,0,1-.15.4023q-.0967.2279-.2178.4942c-.0811.1772-.1665.3569-.2569.5376a6.7067,6.7067,0,0,0-.3486.8574q-.1648.4891-.2861,1.0073t-.1934,1.0078a5.8332,5.8332,0,0,0-.0727.8477c0,.0454.0014.1006.0048.165a.905.905,0,0,0,.0289.189.6583.6583,0,0,0,.0629.16.112.112,0,0,0,.0972.0679,1.1694,1.1694,0,0,0,.5376-.1938,6.1941,6.1941,0,0,0,.7266-.5039q.3926-.31.8091-.6929t.8042-.7651q.3874-.3831.707-.7217t.5039-.562a11.7881,11.7881,0,0,0,.7847-1.003,12.2251,12.2251,0,0,0,.6591-1.0708c.1094-.1933.2115-.3681.3052-.5229a2.5142,2.5142,0,0,1,.2857-.3926,1.1013,1.1013,0,0,1,.3051-.2422.7838.7838,0,0,1,.3633-.082.8322.8322,0,0,1,.6152.2373,1.1206,1.1206,0,0,1,.2374.8091,1.2139,1.2139,0,0,1-.087.271q-.0872.2234-.1987.4795t-.2134.4848c-.0678.1514-.1079.2471-.1211.2857a3.9781,3.9781,0,0,0-.1792.6054q-.0725.3341-.1162.6685t-.0581.64q-.0146.3048-.0146.5279a2.0045,2.0045,0,0,0,.2959,1.1675.9436.9436,0,0,0,.8183.4213,1.96,1.96,0,0,0,.78-.184,5.6392,5.6392,0,0,0,.8765-.4893,9.44,9.44,0,0,0,.92-.707q.465-.4021.9062-.8428t.8379-.8916q.3971-.45.7168-.8477.1166-.1354.252-.2763a2.9091,2.9091,0,0,1,.2763-.252,2.4907,2.4907,0,0,1,.2618-.1841.4141.4141,0,0,1,.1982-.0722,1.2038,1.2038,0,0,1,.1455.0092.35.35,0,0,1,.1455.0538.3218.3218,0,0,1,.1113.13A.5285.5285,0,0,1,279.5376,226.7817Z" transform="translate(0 0)"/><path class="cls-8" d="M299.6514,226.82a.8016.8016,0,0,1-.044.2276,3.0614,3.0614,0,0,1-.1113.3,3.2947,3.2947,0,0,1-.16.3248q-.0923.1647-.1792.31a6.2182,6.2182,0,0,1-.4165.562q-.2622.3193-.5815.6685t-.6782.6977q-.3582.3487-.7071.649-.2812.2328-.6592.5136a7.7418,7.7418,0,0,1-.8042.523,5.6291,5.6291,0,0,1-.8671.4023,2.4838,2.4838,0,0,1-.8477.16,1.8533,1.8533,0,0,1-.7314-.15,1.6326,1.6326,0,0,1-.6587-.5669,3.9873,3.9873,0,0,1-.5376-1.1626,10.777,10.777,0,0,1-.3682-1.938c-.0068-.0771-.0146-.1987-.0244-.3633l-.0293-.4941c-.0093-.1646-.021-.3081-.0337-.4312s-.0259-.184-.0386-.184c-.0517,0-.1377.0776-.2568.2324s-.2617.36-.4263.6152-.3442.5493-.5381.8818-.394.6768-.6005,1.0318q-.3875.6781-.7315,1.2163a8.7983,8.7983,0,0,1-.6489.9009,3.0061,3.0061,0,0,1-.5913.5571,1.0179,1.0179,0,0,1-.5762.1938,1.39,1.39,0,0,1-.7271-.17,1.1562,1.1562,0,0,1-.4453-.5229,3.06,3.06,0,0,1-.2329-.9107q-.0674-.5574-.0869-1.3227-.0292-1.2789-.0825-1.9956t-.15-.7173c-.0776,0-.207.1006-.3877.3a9.4455,9.4455,0,0,0-.6445.8237q-.3729.5229-.8135,1.2305t-.9063,1.521q-.1157.2131-.2807.4941t-.3394.5718q-.1743.2907-.3437.562t-.3052.4648a1.1709,1.1709,0,0,1-.4263.3829,1.1382,1.1382,0,0,1-.5327.1308,1.29,1.29,0,0,1-.6782-.1694,1.3228,1.3228,0,0,1-.4556-.46,2.1876,2.1876,0,0,1-.2568-.688,4.1562,4.1562,0,0,1-.082-.8427q0-.3971.019-.7168c.0132-.2134.0322-.4278.0581-.6446s.0566-.4438.0923-.6831.0757-.5131.1211-.8232q.0579-.4073.0869-.8574t.0581-.8819q.0292-.4307.0679-.7993a3.7685,3.7685,0,0,1,.1069-.61,3.5821,3.5821,0,0,1,.126-.3535,1.18,1.18,0,0,1,.2226-.3492,1.181,1.181,0,0,1,.92-.3823.9276.9276,0,0,1,.4844.1113.7445.7445,0,0,1,.2813.3,1.35,1.35,0,0,1,.13.4361,3.7442,3.7442,0,0,1,.0342.518,4.25,4.25,0,0,1-.063.63q-.063.3978-.1552.877t-.208.998c-.0777.3452-.15.6768-.2183.9927s-.1274.6025-.1792.8579-.0869.4536-.1065.5957c.0127-.0259.05-.09.1114-.1938s.1357-.229.2231-.378.1792-.3066.2759-.4746.189-.3262.2764-.4746.1626-.2778.2275-.3877.103-.1777.1162-.2036q.1743-.2907.4068-.6538t.4843-.7363q.252-.3729.4991-.7124t.4506-.5713a3.2013,3.2013,0,0,1,.9253-.7461,2.243,2.243,0,0,1,1.0415-.252,1.3264,1.3264,0,0,1,.9883.4068,2.0892,2.0892,0,0,1,.5327,1.0659,5.3871,5.3871,0,0,1,.0777.61q.0292.3684.0434.77t.0244.8086q.01.4073.0147.7271t.0146.5229c.0064.1358.0191.2037.0386.2037.0581,0,.1421-.0811.252-.2422s.2324-.3653.3681-.61.2774-.51.4263-.7944.2905-.5459.4263-.7852q.339-.5712.7168-1.1a9.51,9.51,0,0,1,.7509-.93,4.549,4.549,0,0,1,.7124-.6391,1.092,1.092,0,0,1,.6006-.2373,1.9306,1.9306,0,0,1,.378.0385,2.09,2.09,0,0,1,.373.1114,1.6249,1.6249,0,0,1,.3242.1743.7829.7829,0,0,1,.2232.228,1.9714,1.9714,0,0,1,.2422.5713,4.6208,4.6208,0,0,1,.1113.688q.0336.3779.0483.8335t.0728,1.0073a7.1142,7.1142,0,0,0,.31,1.5791q.2037.5721.5811.5718a1.1066,1.1066,0,0,0,.4311-.1211,5.7989,5.7989,0,0,0,.5816-.31q.3149-.1889.6489-.4213t.625-.4649q.32-.252.61-.5185t.5766-.5474q.2858-.2812.5816-.5864t.6245-.6441a.6409.6409,0,0,1,.4653-.2036Q299.6512,226.3745,299.6514,226.82Z" transform="translate(0 0)"/></svg>